{
.appVersion = "3151";
.formatVersion = 3;
DisplayStrings = (
"anmoxdhneoBdhnonhnojiTtjhononomza
AHKDHSION",
"ADHESIDON
adhesion
ADHESION",
I,
"æ",
"&",
"+!.?,;?",
"/sterling.ss01 £",
E,
L,
"/sterling.ss.002",
"§¢@$€£¥",
"ľ",
"ÍÎÏİÌĪ",
"cĊŻäċíöż",
"cĊŻäċíöż",
"cĊ",
"Ċ"
);
customParameters = (
{
name = glyphOrder;
value = (
A,
Aacute,
Abreve,
Acircumflex,
Adieresis,
Agrave,
Amacron,
Aogonek,
Aring,
Atilde,
AE,
B,
C,
Cacute,
Ccaron,
Ccedilla,
Cdotaccent,
D,
Dcaron,
Dcroat,
Eth,
E,
Eacute,
Ecaron,
Ecircumflex,
Edieresis,
Edotaccent,
Egrave,
Emacron,
Eogonek,
F,
G,
Gbreve,
Gcommaaccent,
Gdotaccent,
H,
Hbar,
I,
Iacute,
Icircumflex,
Idieresis,
Idotaccent,
Igrave,
Imacron,
Iogonek,
J,
K,
Kcommaaccent,
L,
Lacute,
Lcaron,
Lcommaaccent,
Lslash,
M,
N,
Nacute,
Ncaron,
Ncommaaccent,
Ntilde,
Eng,
O,
Oacute,
Ocircumflex,
Odieresis,
Ograve,
Ohungarumlaut,
Omacron,
Oslash,
Otilde,
OE,
P,
Thorn,
Q,
R,
Racute,
Rcaron,
Rcommaaccent,
S,
Sacute,
Scaron,
Scedilla,
Scommaaccent,
Germandbls,
T,
Tcaron,
Tcommaaccent,
U,
Uacute,
Ubreve,
Ucircumflex,
Udieresis,
Ugrave,
Uhungarumlaut,
Umacron,
Uogonek,
Uring,
V,
W,
Wacute,
Wcircumflex,
Wdieresis,
Wgrave,
X,
Y,
Yacute,
Ycircumflex,
Ydieresis,
Ygrave,
Z,
Zacute,
Zcaron,
Zdotaccent,
a,
aacute,
abreve,
acircumflex,
adieresis,
agrave,
amacron,
aogonek,
aring,
atilde,
ae,
b,
c,
cacute,
ccaron,
ccedilla,
cdotaccent,
d,
dcaron,
dcroat,
eth,
e,
eacute,
ecaron,
ecircumflex,
edieresis,
edotaccent,
egrave,
emacron,
eogonek,
f,
g,
gbreve,
gcommaaccent,
gdotaccent,
h,
hbar,
i,
idotless,
iacute,
icircumflex,
idieresis,
idotaccent,
igrave,
imacron,
iogonek,
j,
jdotless,
k,
kcommaaccent,
l,
lacute,
lcaron,
lcommaaccent,
lslash,
m,
n,
nacute,
ncaron,
ncommaaccent,
ntilde,
eng,
o,
oacute,
ocircumflex,
odieresis,
ograve,
ohungarumlaut,
omacron,
oslash,
otilde,
oe,
p,
thorn,
q,
r,
racute,
rcaron,
rcommaaccent,
s,
sacute,
scaron,
scedilla,
scommaaccent,
germandbls,
t,
tcaron,
tcommaaccent,
u,
uacute,
ubreve,
ucircumflex,
udieresis,
ugrave,
uhungarumlaut,
umacron,

glyphs = (
{
color = 10;
glyphname = A;
lastChange = "2023-11-12 14:50:04 +0000";
layers = (
{
layerId = "49F060A0-2273-4F54-8B81-08E0B15B03EC";
shapes = (
{
closed = 1;
nodes = (
(423,285,o),
(400,285,o),
(400,285,cs),
(359,285,o),
(344,298,o),
(344,325,cs),
(344,350,o),
(346,451,o),
(454,451,cs),
(562,451,o),
(564,350,o),
(564,325,cs),
(564,298,o),
(549,285,o),
(508,285,cs),
(508,285,o),
(485,285,o),
(455,285,cs),
(453,285,ls)
);
},
{
closed = 1;
nodes = (
(364,3,o),
(371,31,o),
(362,62,cs),
(358,76,o),
(346,110,o),
(346,138,cs),
(346,156,o),
(361,177,o),
(402,177,cs),
(402,177,o),
(425,177,o),
(453,177,cs),
(455,177,ls),
(483,177,o),
(506,177,o),
(506,177,cs),
(547,177,o),
(562,156,o),
(562,138,cs),
(562,110,o),
(550,76,o),
(546,62,cs),
(537,31,o),
(544,3,o),
(570,-12,cs),
(598,-27,o),
(621,-12,o),
(646,10,cs),
(720,76,o),
(854,250,o),
(854,457,cs),
(854,655,o),
(679,799,o),
(455,799,cs),
(453,799,ls),
(229,799,o),
(54,655,o),
(54,457,cs),
(54,250,o),
(188,76,o),
(262,10,cs),
(287,-12,o),
(310,-27,o),
(338,-12,cs)
);
}
);
width = 886;
}
);
unicode = 65;
},
{
glyphname = Aacute;
lastChange = "2023-11-14 12:18:39 +0000";
layers = (
{
anchors = (
{
name = top;
pos = (432,811);
}
);
layerId = "49F060A0-2273-4F54-8B81-08E0B15B03EC";
shapes = (
{
ref = A;
},
{
closed = 1;
nodes = (
(495,890,o),
(442,865,o),
(398,859,cs),
(368,855,o),
(339,857,o),
(326,882,cs),
(310,914,o),
(330,938,o),
(370,958,cs),
(435,991,o),
(440,1044,o),
(486,1070,cs),
(516,1087,o),
(551,1082,o),
(576,1049,cs),
(607,1008,o),
(588,960,o),
(535,920,cs)
);
}
);
width = 886;
}
);
unicode = 193;
},
{
glyphname = Abreve;
lastChange = "2023-11-15 12:12:42 +0000";
layers = (
{
anchors = (
{
name = top;
pos = (444,1075);
}
);
hints = (
{
horizontal = 1;
place = (876, 202);
place = (876, 202);
type = Stem;
},
{
place = (224, 414);
place = (224, 414);
type = Stem;
}
);
layerId = "49F060A0-2273-4F54-8B81-08E0B15B03EC";
shapes = (
{
ref = A;
},
{
closed = 1;
nodes = (
(314,837,o),
(234,873,o),
(206,940,cs),
(181,1002,o),
(200,1059,o),
(252,1076,cs),
(285,1088,o),
(317,1072,o),
(328,1041,cs),
(334,1024,o),
(336,998,o),
(342,976,cs),
(359,915,o),
(396,903,o),
(445,903,cs),
(493,903,o),
(529,915,o),
(546,976,cs),
(554,1006,o),
(556,1026,o),
(560,1041,cs),
(570,1072,o),
(601,1087,o),
(635,1076,cs),
(688,1059,o),
(707,1002,o),
(682,939,cs),
(654,871,o),
(570,837,o),
(445,837,cs)
);
}
);
width = 886;
}
);
unicode = 258;
},
{
glyphname = Acircumflex;
lastChange = "2023-11-15 10:46:35 +0000";
layers = (
{
anchors = (
{
name = top;
pos = (437,1076);
}
);
layerId = "49F060A0-2273-4F54-8B81-08E0B15B03EC";
shapes = (
{
ref = A;
},
{
closed = 1;
nodes = (
(451,927,o),
(442,918,o),
(418,901,cs),
(365,862,l),
(331,838,o),
(306,820,o),
(287,838,cs),
(272,854,o),
(286,873,o),
(304,911,cs),
(317,936,o),
(334,968,o),
(354,1003,cs),
(381,1051,o),
(417,1081,o),
(461,1081,cs),
(505,1081,o),
(541,1051,o),
(568,1003,cs),
(588,968,o),
(605,936,o),
(618,911,cs),
(636,873,o),
(650,854,o),
(635,838,cs),
(616,820,o),
(591,838,o),
(557,862,cs),
(544,872,o),
(520,889,o),
(499,904,cs),
(481,917,o),
(471,927,o),
(461,927,cs)
);
}
);
width = 886;
},
{
anchors = (
{
name = _top;
pos = (436,1039);
}
);
associatedMasterId = "49F060A0-2273-4F54-8B81-08E0B15B03EC";
layerId = "7002ED80-2CE0-475E-9D40-5767B02273F6";
name = "2 Nov 23 at 05:38";
shapes = (
{
ref = A;
},
{
closed = 1;
nodes = (
(452,921,o),
(464,915,o),
(486,893,cs),
(530,847,o),
(562,827,o),
(584,827,cs),
(600,827,o),
(608,841,o),
(608,855,cs),
(608,896,o),
(590,929,o),
(549,974,cs),
(509,1018,o),
(464,1039,o),
(436,1039,cs),
(407,1039,o),
(362,1018,o),
(322,974,cs),
(281,929,o),
(263,896,o),
(263,855,cs),
(263,841,o),
(271,827,o),
(287,827,cs),
(309,827,o),
(341,847,o),
(385,893,cs),
(407,915,o),
(419,921,o),
(436,921,cs)
);
}
);
width = 886;
}
);
unicode = 194;
},
{
glyphname = Adieresis;
lastChange = "2023-11-14 20:21:05 +0000";
layers = (
{
anchors = (
{
name = top;
pos = (462,1082);
}
);
layerId = "49F060A0-2273-4F54-8B81-08E0B15B03EC";
shapes = (
{
ref = A;
},
{
closed = 1;
nodes = (
(288,961,o),
(318,932,o),
(364,932,cs),
(410,932,o),
(440,961,o),
(440,1006,cs),
(440,1050,o),
(410,1078,o),
(364,1078,cs),
(318,1078,o),
(288,1050,o),
(288,1006,cs)
);
},
{
closed = 1;
nodes = (
(484,961,o),
(514,932,o),
(560,932,cs),
(606,932,o),
(636,961,o),
(636,1006,cs),
(636,1050,o),
(606,1078,o),
(560,1078,cs),
(514,1078,o),
(484,1050,o),
(484,1006,cs)
);
}
);
width = 886;
}
);
unicode = 196;
},
{
glyphname = Agrave;
lastChange = "2023-11-14 12:16:39 +0000";
layers = (
{
anchors = (
{
name = top;
pos = (401,1086);
}
);
layerId = "49F060A0-2273-4F54-8B81-08E0B15B03EC";
shapes = (
{
ref = A;
},
{
closed = 1;
nodes = (
(310,961,o),
(291,1009,o),
(322,1050,cs),
(347,1083,o),
(382,1088,o),
(412,1071,cs),
(458,1045,o),
(463,992,o),
(528,959,cs),
(568,939,o),
(588,915,o),
(572,883,cs),
(559,858,o),
(530,856,o),
(500,860,cs),
(456,866,o),
(403,891,o),
(363,921,cs)
);
}
);
width = 886;
}
);
unicode = 192;
},
{
glyphname = Amacron;
lastChange = "2023-11-15 11:20:42 +0000";
layers = (
{
anchors = (
{
name = top;
pos = (435,1082);
}
);
layerId = "49F060A0-2273-4F54-8B81-08E0B15B03EC";
shapes = (
{
ref = A;
},
{
closed = 1;
nodes = (
(244,918,o),
(206,951,o),
(206,998,cs),
(206,1043,o),
(242,1079,o),
(370,1079,cs),
(477,1079,o),
(562,1065,o),
(584,1061,cs),
(670,1044,o),
(697,1029,o),
(697,1003,cs),
(697,977,o),
(667,957,o),
(590,941,cs),
(554,933,o),
(468,918,o),
(374,918,cs)
);
}
);
width = 886;
}
);
unicode = 256;
},
{
glyphname = Aogonek;
lastChange = "2023-11-15 13:57:10 +0000";
layers = (
{
anchors = (
{
name = "botto=";
pos = (414,-19);
}
);
layerId = "49F060A0-2273-4F54-8B81-08E0B15B03EC";
shapes = (
{
ref = A;
},
{
closed = 1;
nodes = (
(634,-176,o),
(645,-168,o),
(645,-156,cs),
(645,-144,o),
(634,-137,o),
(617,-137,cs),
(589,-137,o),
(573,-127,o),
(573,-107,cs),
(573,-94,o),
(586,-83,o),
(597,-74,cs),
(618,-56,o),
(628,-34,o),
(603,-10,cs),
(584,8,o),
(549,1,o),
(523,-28,cs),
(486,-70,o),
(492,-123,o),
(529,-156,cs),
(552,-177,o),
(580,-184,o),
(618,-178,c)
);
}
);
width = 886;
}
);
unicode = 260;
},
{
glyphname = Aring;
lastChange = "2023-11-15 12:49:02 +0000";
layers = (
{
anchors = (
{
name = top;
pos = (445,1082);
}
);
layerId = "49F060A0-2273-4F54-8B81-08E0B15B03EC";
shapes = (
{
closed = 1;
nodes = (
(317,400,o),
(380,434,o),
(444,434,cs),
(507,434,o),
(569,400,o),
(569,334,cs),
(569,319,o),
(566,297,o),
(552,282,cs),
(535,264,o),
(496,251,o),
(448,251,cs),
(402,251,o),
(355,263,o),
(336,281,cs),
(324,292,o),
(317,309,o),
(317,332,cs)
);
},
{
closed = 1;
nodes = (
(747,71,o),
(856,317,o),
(856,471,cs),
(856,667,o),
(678,817,o),
(443,817,cs),
(212,817,o),
(30,671,o),
(30,468,cs),
(30,317,o),
(131,80,o),
(276,1,cs),
(296,-10,o),
(311,-14,o),
(322,-14,cs),
(366,-14,o),
(363,42,o),
(353,81,cs),
(348,102,o),
(336,137,o),
(336,150,cs),
(336,160,o),
(342,169,o),
(356,175,cs),
(370,181,o),
(406,190,o),
(445,190,cs),
(474,190,o),
(506,185,o),
(530,175,cs),
(547,168,o),
(551,161,o),
(551,153,cs),
(551,137,o),
(537,102,o),
(533,81,cs),
(525,35,o),
(520,-14,o),
(564,-14,cs),
(575,-14,o),
(591,-10,o),
(610,0,cs)
);
},
{
closed = 1;
nodes = (
(506,850,o),
(559,901,o),
(559,968,cs),
(559,1032,o),
(506,1083,o),
(445,1083,cs),
(384,1083,o),
(328,1032,o),
(328,967,cs),
(328,901,o),
(384,850,o),
(443,850,cs)
);
},
{
closed = 1;
nodes = (
(418,884,o),
(401,907,o),
(401,937,cs),
(401,968,o),
(418,991,o),
(443,991,cs),
(469,991,o),
(486,968,o),
(486,937,cs),
(486,907,o),
(469,884,o),
(443,884,cs)
);
}
);
width = 886;
}
);
unicode = 197;
},
{
glyphname = Atilde;
lastChange = "2023-11-14 22:06:06 +0000";
layers = (
{
hints = (
{
horizontal = 1;
place = (923, 91);
place = (923, 91);
type = Stem;
},
{
horizontal = 1;
place = (867, 91);
place = (867, 91);
type = Stem;
},
{
place = (270, 339);
place = (270, 339);
type = Stem;
}
);
layerId = "49F060A0-2273-4F54-8B81-08E0B15B03EC";
shapes = (
{
ref = A;
},
{
closed = 1;
nodes = (
(490,871,o),
(569,853,o),
(631,891,cs),
(700,934,o),
(717,984,o),
(682,1042,cs),
(639,1109,o),
(609,1062,o),
(545,1015,cs),
(521,1003,o),
(503,1001,o),
(490,1011,cs),
(395,1086,o),
(316,1104,o),
(254,1065,cs),
(185,1024,o),
(169,973,o),
(205,915,cs),
(225,882,o),
(251,876,o),
(285,895,cs),
(299,904,o),
(327,931,o),
(341,940,cs),
(362,953,o),
(380,955,o),
(395,945,cs)
);
}
);
width = 886;
}
);
unicode = 195;
},
{
glyphname = AE;
lastChange = "2023-11-07 03:39:39 +0000";
layers = (
{
layerId = "49F060A0-2273-4F54-8B81-08E0B15B03EC";
shapes = (
{
closed = 1;
nodes = (
(318,400,o),
(380,434,o),
(444,434,cs),
(507,434,o),
(568,400,o),
(568,334,cs),
(568,319,o),
(565,298,o),
(551,283,cs),
(534,265,o),
(496,252,o),
(448,252,cs),
(402,252,o),
(356,264,o),
(337,282,cs),
(325,293,o),
(318,310,o),
(318,332,cs)
);
},
{
closed = 1;
nodes = (
(745,73,o),
(854,318,o),
(854,471,cs),
(854,665,o),
(677,815,o),
(443,815,cs),
(213,815,o),
(32,669,o),
(32,468,cs),
(32,318,o),
(133,82,o),
(277,3,cs),
(297,-8,o),
(312,-11,o),
(323,-11,cs),
(366,-11,o),
(363,44,o),
(354,83,cs),
(349,104,o),
(337,139,o),
(337,152,cs),
(337,161,o),
(343,170,o),
(357,176,cs),
(370,182,o),
(406,191,o),
(445,191,cs),
(474,191,o),
(506,186,o),
(529,176,cs),
(546,169,o),
(550,162,o),
(550,154,cs),
(550,139,o),
(536,104,o),
(532,83,cs),
(525,37,o),
(520,-11,o),
(563,-11,cs),
(574,-11,o),
(590,-8,o),
(609,2,c)
);
},
{
closed = 1;
nodes = (
(1080,79,o),
(1045,67,o),
(989,67,cs),
(906,67,o),
(850,110,o),
(840,212,c),
(854,221,o),
(872,224,o),
(894,224,cs),
(942,224,o),
(1005,209,o),
(1054,209,cs),
(1095,209,o),
(1125,220,o),
(1125,259,cs),
(1125,298,o),
(1095,310,o),
(1054,310,cs),
(1005,310,o),
(943,295,o),
(895,295,cs),
(875,295,o),
(858,297,o),
(846,305,c),
(861,380,o),
(907,434,o),
(993,434,cs),
(1035,434,o),
(1081,430,o),
(1105,425,cs),
(1124,421,o),
(1146,417,o),
(1172,417,cs),
(1267,417,o),
(1316,480,o),
(1316,580,cs),
(1316,717,o),
(1205,816,o),
(1012,816,cs),
(746,816,o),
(580,627,o),
(580,396,cs),
(580,149,o),
(769,-10,o),
(982,-10,cs),
(1047,-10,o),
(1109,5,o),
(1150,24,cs),
(1221,57,o),
(1236,102,o),
(1212,123,cs),
(1186,146,o),
(1137,119,o),
(1102,95,cs)
);
}
);
width = 1334;
}
);
unicode = 198;
},
{
color = 10;
glyphname = B;
lastChange = "2023-11-11 12:19:22 +0000";
layers = (
{
layerId = "49F060A0-2273-4F54-8B81-08E0B15B03EC";
shapes = (
{
closed = 1;
nodes = (
(606,273,o),
(599,279,o),
(599,286,cs),
(599,294,o),
(606,301,o),
(613,301,cs),
(616,301,o),
(834,319,o),
(834,519,cs),
(834,689,o),
(671,813,o),
(464,813,cs),
(219,813,o),
(50,638,o),
(50,406,cs),
(50,166,o),
(230,-13,o),
(460,-13,cs),
(606,-13,o),
(726,68,o),
(726,169,cs),
(726,231,o),
(681,273,o),
(613,273,cs)
);
},
{
closed = 1;
nodes = (
(403,97,o),
(373,115,o),
(373,138,cs),
(373,162,o),
(403,180,o),
(440,180,cs),
(476,180,o),
(506,162,o),
(506,138,cs),
(506,115,o),
(476,97,o),
(440,97,cs)
);
},
{
closed = 1;
nodes = (
(384,232,o),
(283,233,o),
(283,311,cs),
(283,353,o),
(320,401,o),
(373,431,cs),
(435,466,o),
(542,469,o),
(542,391,cs),
(542,354,o),
(512,307,o),
(457,275,cs)
);
}
);
width = 875;
}
);
unicode = 66;
},
{
color = 10;
glyphname = C;
lastChange = "2023-11-15 13:50:48 +0000";
layers = (
{
layerId = "49F060A0-2273-4F54-8B81-08E0B15B03EC";
shapes = (
{
closed = 1;
nodes = (
(755,744,o),
(625,812,o),
(474,812,cs),
(268,812,o),
(24,685,o),
(24,399,cs),
(24,157,o),
(223,-14,o),
(442,-14,cs),
(501,-14,o),
(563,-3,o),
(601,14,cs),
(664,44,o),
(678,82,o),
(664,114,cs),
(653,139,o),
(612,167,o),
(566,136,cs),
(525,107,o),
(499,91,o),
(453,91,cs),
(357,91,o),
(287,167,o),
(287,272,cs),
(287,390,o),
(351,476,o),
(439,476,cs),
(499,476,o),
(541,446,o),
(597,446,cs),
(693,446,o),
(756,524,o),
(755,597,cs)
);
}
);
width = 782;
}
);
unicode = 67;
},
{
glyphname = Cacute;
lastChange = "2023-11-14 18:47:27 +0000";
layers = (
{
layerId = "49F060A0-2273-4F54-8B81-08E0B15B03EC";
shapes = (
{
ref = C;
},
{
closed = 1;
nodes = (
(476,891,o),
(423,866,o),
(379,860,cs),
(349,856,o),
(320,858,o),
(307,883,cs),
(291,915,o),
(311,939,o),
(351,959,cs),
(416,992,o),
(421,1045,o),
(467,1071,cs),
(497,1088,o),
(532,1083,o),
(557,1050,cs),
(588,1009,o),
(569,961,o),
(516,921,cs)
);
}
);
width = 782;
}
);
unicode = 262;
},
{
glyphname = Ccaron;
lastChange = "2023-11-07 03:50:39 +0000";
layers = (
{
anchors = (
{
name = top;
pos = (431,1071);
}
);
layerId = "49F060A0-2273-4F54-8B81-08E0B15B03EC";
shapes = (
{
ref = C;
},
{
closed = 1;
nodes = (
(397,984,o),
(385,990,o),
(363,1012,cs),
(319,1058,o),
(287,1078,o),
(265,1078,cs),
(249,1078,o),
(241,1064,o),
(241,1050,cs),
(241,1009,o),
(259,976,o),
(300,931,cs),
(340,887,o),
(385,866,o),
(414,866,cs),
(442,866,o),
(487,887,o),
(527,931,cs),
(568,976,o),
(586,1009,o),
(586,1050,cs),
(586,1064,o),
(578,1078,o),
(562,1078,cs),
(540,1078,o),
(508,1058,o),
(464,1012,cs),
(442,990,o),
(430,984,o),
(414,984,cs)
);
}
);
width = 782;
}
);
unicode = 268;
},
{
glyphname = Ccedilla;
lastChange = "2023-11-15 13:49:57 +0000";
layers = (
{
anchors = (
{
name = bottom;
pos = (400,-24);
}
);
layerId = "49F060A0-2273-4F54-8B81-08E0B15B03EC";
shapes = (
{
ref = C;
},
{
closed = 1;
nodes = (
(488,-107,o),
(487,-94,o),
(483,-82,cs),
(467,-32,o),
(413,-8,o),
(385,-26,cs),
(375,-33,o),
(362,-46,o),
(362,-66,cs),
(362,-81,o),
(370,-89,o),
(380,-94,cs),
(391,-100,o),
(404,-102,o),
(413,-108,cs),
(418,-112,o),
(422,-118,o),
(422,-126,cs),
(422,-136,o),
(411,-144,o),
(386,-144,cs),
(373,-144,o),
(365,-149,o),
(365,-160,cs),
(365,-174,o),
(377,-177,o),
(397,-177,cs),
(414,-177,o),
(435,-175,o),
(451,-169,cs),
(473,-160,o),
(488,-144,o),
(488,-115,c)
);
}
);
width = 782;
}
);
unicode = 199;
},
{
glyphname = Cdotaccent;
lastChange = "2023-11-15 14:08:28 +0000";
layers = (
{
anchors = (
{
name = top;
pos = (440,1071);
}
);
layerId = "49F060A0-2273-4F54-8B81-08E0B15B03EC";
shapes = (
{
closed = 1;
nodes = (
(357,960,o),
(387,931,o),
(433,931,cs),
(479,931,o),
(509,960,o),
(509,1005,cs),
(509,1049,o),
(479,1077,o),
(433,1077,cs),
(387,1077,o),
(357,1049,o),
(357,1005,cs)
);
},
{
ref = C;
}
);
width = 782;
}
);
unicode = 266;
},
{
color = 10;
glyphname = D;
lastChange = "2023-11-11 14:15:18 +0000";
layers = (
{
layerId = "49F060A0-2273-4F54-8B81-08E0B15B03EC";
shapes = (
{
closed = 1;
nodes = (
(613,-11,o),
(780,205,o),
(780,438,cs),
(780,689,o),
(587,815,o),
(321,815,cs),
(103,815,o),
(40,731,o),
(40,439,cs),
(40,112,o),
(119,-11,o),
(331,-11,cs)
);
},
{
closed = 1;
nodes = (
(215,94,o),
(197,179,o),
(197,286,cs),
(197,397,o),
(216,457,o),
(317,457,cs),
(418,457,o),
(471,400,o),
(471,294,cs),
(471,174,o),
(401,94,o),
(309,94,c)
);
}
);
width = 805;
}
);
unicode = 68;
},
{
glyphname = Dcaron;
lastChange = "2023-11-15 11:01:10 +0000";
layers = (
{
anchors = (
{
name = top;
pos = (335,1082);
}
);
layerId = "49F060A0-2273-4F54-8B81-08E0B15B03EC";
shapes = (
{
ref = D;
},
{
closed = 1;
nodes = (
(353,988,o),
(363,997,o),
(381,1010,cs),
(402,1025,o),
(426,1043,o),
(439,1053,cs),
(473,1077,o),
(498,1095,o),
(517,1077,cs),
(532,1061,o),
(518,1042,o),
(500,1004,cs),
(487,979,o),
(470,947,o),
(450,912,cs),
(423,864,o),
(387,834,o),
(343,834,cs),
(299,834,o),
(263,864,o),
(236,912,cs),
(216,947,o),
(199,979,o),
(186,1004,cs),
(168,1042,o),
(154,1061,o),
(169,1077,cs),
(188,1095,o),
(213,1077,o),
(247,1053,c),
(300,1014,ls),
(324,997,o),
(333,988,o),
(343,988,cs)
);
}
);
width = 805;
}
);
unicode = 270;
},
{
glyphname = Dcroat;
lastChange = "2023-11-15 11:24:49 +0000";
layers = (
{
layerId = "49F060A0-2273-4F54-8B81-08E0B15B03EC";
shapes = (
{
closed = 1;
nodes = (
(282,131,o),
(368,146,o),
(404,154,cs),
(481,170,o),
(511,190,o),
(511,216,cs),
(511,242,o),
(484,257,o),
(398,274,cs),
(376,278,o),
(291,292,o),
(184,292,cs),
(56,292,o),
(20,256,o),
(20,211,cs),
(20,164,o),
(58,131,o),
(188,131,cs)
);
},
{
pos = (103,0);
ref = D;
}
);
width = 908;
}
);
unicode = 272;
},
{
glyphname = Eth;
lastChange = "2023-11-15 11:25:19 +0000";
layers = (
{
layerId = "49F060A0-2273-4F54-8B81-08E0B15B03EC";
shapes = (
{
pos = (117,0);
ref = D;
},
{
closed = 1;
nodes = (
(272,269,o),
(358,284,o),
(394,292,cs),
(471,308,o),
(501,328,o),
(501,354,cs),
(501,380,o),
(474,395,o),
(388,412,cs),
(366,416,o),
(281,430,o),
(174,430,cs),
(46,430,o),
(10,394,o),
(10,349,cs),
(10,302,o),
(48,269,o),
(178,269,cs)
);
}
);
width = 922;
}
);
unicode = 208;
},
{
color = 10;
glyphname = E;
lastChange = "2023-11-11 12:22:55 +0000";
layers = (
{
layerId = "49F060A0-2273-4F54-8B81-08E0B15B03EC";
shapes = (
{
closed = 1;
nodes = (
(497,329,o),
(520,306,o),
(520,276,cs),
(520,246,o),
(497,223,o),
(454,223,cs),
(392,223,o),
(365,223,o),
(319,223,cs),
(306,223,o),
(297,214,o),
(297,202,cs),
(297,125,o),
(379,84,o),
(453,84,cs),
(499,84,o),
(525,100,o),
(566,129,cs),
(612,160,o),
(653,132,o),
(664,107,cs),
(678,75,o),
(664,37,o),
(601,7,cs),
(563,-10,o),
(501,-21,o),
(442,-21,cs),
(223,-21,o),
(24,150,o),
(24,392,cs),
(24,678,o),
(268,805,o),
(474,805,cs),
(625,805,o),
(755,737,o),
(755,590,cs),
(756,517,o),
(693,439,o),
(597,439,cs),
(541,439,o),
(499,469,o),
(439,469,cs),
(374,469,o),
(297,425,o),
(297,350,cs),
(297,338,o),
(306,329,o),
(319,329,cs),
(365,329,o),
(392,329,o),
(454,329,cs)
);
}
);
width = 782;
}
);
unicode = 69;
},
{
glyphname = Eacute;
lastChange = "2023-11-14 12:19:12 +0000";
layers = (
{
layerId = "49F060A0-2273-4F54-8B81-08E0B15B03EC";
shapes = (
{
ref = E;
},
{
closed = 1;
nodes = (
(457,890,o),
(404,865,o),
(360,859,cs),
(330,855,o),
(301,857,o),
(288,882,cs),
(272,914,o),
(292,938,o),
(332,958,cs),
(397,991,o),
(402,1044,o),
(448,1070,cs),
(478,1087,o),
(513,1082,o),
(538,1049,cs),
(569,1008,o),
(550,960,o),
(497,920,cs)
);
}
);
width = 782;
}
);
unicode = 201;
},
{
glyphname = Ecaron;
lastChange = "2023-11-15 10:49:46 +0000";
layers = (
{
anchors = (
{
name = top;
pos = (427,1080);
}
);
layerId = "49F060A0-2273-4F54-8B81-08E0B15B03EC";
shapes = (
{
ref = E;
},
{
closed = 1;
nodes = (
(432,986,o),
(442,995,o),
(460,1008,cs),
(481,1023,o),
(505,1041,o),
(518,1051,cs),
(552,1075,o),
(577,1093,o),
(596,1075,cs),
(611,1059,o),
(597,1040,o),
(579,1002,cs),
(566,977,o),
(549,945,o),
(529,910,cs),
(502,862,o),
(466,832,o),
(422,832,cs),
(378,832,o),
(342,862,o),
(315,910,cs),
(295,945,o),
(278,977,o),
(265,1002,cs),
(247,1040,o),
(233,1059,o),
(248,1075,cs),
(267,1093,o),
(292,1075,o),
(326,1051,c),
(379,1012,ls),
(403,995,o),
(412,986,o),
(422,986,cs)
);
}
);
width = 782;
}
);
unicode = 282;
},
{
glyphname = Ecircumflex;
lastChange = "2023-11-15 10:48:05 +0000";
layers = (
{
anchors = (
{
name = top;
pos = (437,1081);
}
);
layerId = "49F060A0-2273-4F54-8B81-08E0B15B03EC";
shapes = (
{
ref = E;
},
{
closed = 1;
nodes = (
(429,928,o),
(420,919,o),
(396,902,cs),
(343,863,l),
(309,839,o),
(284,821,o),
(265,839,cs),
(250,855,o),
(264,874,o),
(282,912,cs),
(295,937,o),
(312,969,o),
(332,1004,cs),
(359,1052,o),
(395,1082,o),
(439,1082,cs),
(483,1082,o),
(519,1052,o),
(546,1004,cs),
(566,969,o),
(583,937,o),
(596,912,cs),
(614,874,o),
(628,855,o),
(613,839,cs),
(594,821,o),
(569,839,o),
(535,863,cs),
(522,873,o),
(498,891,o),
(477,906,cs),
(459,919,o),
(449,928,o),
(439,928,cs)
);
}
);
width = 782;
}
);
unicode = 202;
},
{
glyphname = Edieresis;
lastChange = "2023-11-07 04:35:30 +0000";
layers = (
{
anchors = (
{
name = top;
pos = (443,1066);
}
);
layerId = "49F060A0-2273-4F54-8B81-08E0B15B03EC";
shapes = (
{
ref = E;
},
{
closed = 1;
nodes = (
(269,961,o),
(299,932,o),
(345,932,cs),
(391,932,o),
(421,961,o),
(421,1006,cs),
(421,1050,o),
(391,1078,o),
(345,1078,cs),
(299,1078,o),
(269,1050,o),
(269,1006,cs)
);
},
{
closed = 1;
nodes = (
(465,961,o),
(495,932,o),
(541,932,cs),
(587,932,o),
(617,961,o),
(617,1006,cs),
(617,1050,o),
(587,1078,o),
(541,1078,cs),
(495,1078,o),
(465,1050,o),
(465,1006,cs)
);
}
);
width = 782;
}
);
unicode = 203;
},
{
glyphname = Edotaccent;
lastChange = "2023-11-14 20:44:52 +0000";
layers = (
{
anchors = (
{
name = top;
pos = (427,1078);
}
);
layerId = "49F060A0-2273-4F54-8B81-08E0B15B03EC";
shapes = (
{
ref = E;
},
{
closed = 1;
nodes = (
(351,961,o),
(381,932,o),
(427,932,cs),
(473,932,o),
(503,961,o),
(503,1006,cs),
(503,1050,o),
(473,1078,o),
(427,1078,cs),
(381,1078,o),
(351,1050,o),
(351,1006,cs)
);
}
);
width = 782;
}
);
unicode = 278;
},
{
glyphname = Egrave;
lastChange = "2023-11-14 18:46:35 +0000";
layers = (
{
anchors = (
{
name = top;
pos = (473,1061);
}
);
layerId = "49F060A0-2273-4F54-8B81-08E0B15B03EC";
shapes = (
{
ref = E;
},
{
closed = 1;
nodes = (
(287,961,o),
(268,1009,o),
(299,1050,cs),
(324,1083,o),
(359,1088,o),
(389,1071,cs),
(435,1045,o),
(440,992,o),
(505,959,cs),
(545,939,o),
(565,915,o),
(549,883,cs),
(536,858,o),
(507,856,o),
(477,860,cs),
(433,866,o),
(380,891,o),
(340,921,cs)
);
}
);
width = 782;
}
);
unicode = 200;
},
{
glyphname = Emacron;
lastChange = "2023-11-15 11:21:08 +0000";
layers = (
{
anchors = (
{
name = top;
pos = (399,1077);
}
);
layerId = "49F060A0-2273-4F54-8B81-08E0B15B03EC";
shapes = (
{
ref = E;
},
{
closed = 1;
nodes = (
(228,918,o),
(190,951,o),
(190,998,cs),
(190,1043,o),
(226,1079,o),
(354,1079,cs),
(461,1079,o),
(546,1065,o),
(568,1061,cs),
(654,1044,o),
(681,1029,o),
(681,1003,cs),
(681,977,o),
(651,957,o),
(574,941,cs),
(538,933,o),
(452,918,o),
(358,918,cs)
);
}
);
width = 782;
}
);
unicode = 274;
},
{
glyphname = Eogonek;
lastChange = "2023-11-15 13:55:50 +0000";
layers = (
{
anchors = (
{
name = bottom;
pos = (426,-21);
}
);
layerId = "49F060A0-2273-4F54-8B81-08E0B15B03EC";
shapes = (
{
ref = E;
},
{
closed = 1;
nodes = (
(497,329,o),
(520,306,o),
(520,276,cs),
(520,246,o),
(497,223,o),
(454,223,cs),
(392,223,o),
(365,223,o),
(319,223,cs),
(306,223,o),
(297,214,o),
(297,202,cs),
(297,125,o),
(379,84,o),
(453,84,cs),
(499,84,o),
(525,100,o),
(566,129,cs),
(612,160,o),
(653,132,o),
(664,107,cs),
(678,75,o),
(664,37,o),
(601,7,cs),
(563,-10,o),
(501,-21,o),
(442,-21,cs),
(223,-21,o),
(24,150,o),
(24,392,cs),
(24,678,o),
(268,805,o),
(474,805,cs),
(625,805,o),
(755,737,o),
(755,590,cs),
(756,517,o),
(693,439,o),
(597,439,cs),
(541,439,o),
(499,469,o),
(439,469,cs),
(374,469,o),
(297,425,o),
(297,350,cs),
(297,338,o),
(306,329,o),
(319,329,cs),
(365,329,o),
(392,329,o),
(454,329,cs)
);
},
{
closed = 1;
nodes = (
(501,-179,o),
(512,-171,o),
(512,-159,cs),
(512,-147,o),
(501,-140,o),
(484,-140,cs),
(456,-140,o),
(440,-130,o),
(440,-110,cs),
(440,-97,o),
(453,-86,o),
(464,-77,cs),
(485,-59,o),
(495,-37,o),
(470,-13,cs),
(451,5,o),
(416,-2,o),
(390,-31,cs),
(353,-73,o),
(359,-126,o),
(396,-159,cs),
(419,-180,o),
(447,-187,o),
(485,-181,c)
);
}
);
width = 782;
}
);
unicode = 280;
},
{
color = 10;
glyphname = F;
lastChange = "2023-11-11 12:13:28 +0000";
layers = (
{
layerId = "49F060A0-2273-4F54-8B81-08E0B15B03EC";
shapes = (
{
closed = 1;
nodes = (
(304,101,o),
(309,74,o),
(317,48,cs),
(328,17,o),
(320,-15,o),
(293,-29,cs),
(265,-42,o),
(242,-28,o),
(216,-7,cs),
(153,50,o),
(30,192,o),
(30,391,cs),
(30,675,o),
(273,802,o),
(478,802,cs),
(627,802,o),
(756,734,o),
(756,588,cs),
(757,516,o),
(695,438,o),
(600,438,cs),
(544,438,o),
(502,468,o),
(443,468,cs),
(378,468,o),
(302,425,o),
(302,350,cs),
(302,338,o),
(310,329,o),
(323,329,cs),
(369,329,o),
(396,329,o),
(457,329,cs),
(500,329,o),
(523,306,o),
(523,277,cs),
(523,247,o),
(500,224,o),
(457,224,cs),
(396,224,o),
(369,224,o),
(323,224,cs),
(310,224,o),
(302,215,o),
(302,152,c)
);
}
);
width = 768;
}
);
unicode = 70;
},
{
color = 10;
glyphname = G;
lastChange = "2023-11-11 14:27:18 +0000";
layers = (
{
hints = (
{
horizontal = 1;
place = (340, 112);
place = (340, 112);
type = Stem;
},
{
horizontal = 1;
place = (340, 76);
place = (340, 76);
type = Stem;
},
{
place = (35, 611);
place = (35, 611);
type = Stem;
},
{
horizontal = 1;
place = (-15, 0);
place = (-15, 0);
type = Stem;
}
);
layerId = "49F060A0-2273-4F54-8B81-08E0B15B03EC";
shapes = (
{
closed = 1;
nodes = (
(332,434,o),
(287,342,o),
(287,237,cs),
(287,113,o),
(350,54,o),
(431,54,cs),
(492,54,o),
(529,89,o),
(529,123,cs),
(529,165,o),
(512,179,o),
(497,179,cs),
(470,179,o),
(451,179,o),
(432,179,cs),
(388,179,o),
(365,202,o),
(365,232,cs),
(365,262,o),
(388,286,o),
(431,286,cs),
(493,286,o),
(520,286,o),
(550,286,cs),
(579,286,o),
(606,286,o),
(668,286,cs),
(711,286,o),
(734,262,o),
(734,207,cs),
(734,73,o),
(595,-15,o),
(426,-15,cs),
(215,-15,o),
(28,154,o),
(28,379,cs),
(28,627,o),
(194,811,o),
(457,811,cs),
(625,809,o),
(769,733,o),
(769,569,cs),
(769,488,o),
(699,401,o),
(594,401,cs),
(538,401,o),
(495,434,o),
(441,434,cs)
);
}
);
width = 764;
}
);
unicode = 71;
},
{
glyphname = Gbreve;
lastChange = "2023-11-15 12:53:58 +0000";
layers = (
{
anchors = (
{
name = top;
pos = (445,903);
}
);
layerId = "49F060A0-2273-4F54-8B81-08E0B15B03EC";
shapes = (
{
ref = G;
},
{
closed = 1;
nodes = (
(314,837,o),
(234,873,o),
(206,940,cs),
(181,1002,o),
(200,1059,o),
(252,1076,cs),
(285,1088,o),
(317,1072,o),
(328,1041,cs),
(334,1024,o),
(336,998,o),
(342,976,cs),
(359,915,o),
(396,903,o),
(445,903,cs),
(493,903,o),
(529,915,o),
(546,976,cs),
(554,1006,o),
(556,1026,o),
(560,1041,cs),
(570,1072,o),
(601,1087,o),
(635,1076,cs),
(688,1059,o),
(707,1002,o),
(682,939,cs),
(654,871,o),
(570,837,o),
(445,837,cs)
);
}
);
width = 764;
}
);
unicode = 286;
},
{
glyphname = Gcommaaccent;
lastChange = "2023-11-14 22:27:02 +0000";
layers = (
{
anchors = (
{
name = bottom;
pos = (513,-31);
}
);
layerId = "49F060A0-2273-4F54-8B81-08E0B15B03EC";
shapes = (
{
ref = G;
},
{
closed = 1;
nodes = (
(429,-225,o),
(376,-250,o),
(332,-256,cs),
(302,-260,o),
(273,-258,o),
(260,-233,cs),
(244,-201,o),
(264,-177,o),
(304,-157,cs),
(369,-124,o),
(374,-71,o),
(420,-45,cs),
(450,-28,o),
(485,-33,o),
(510,-66,cs),
(541,-107,o),
(522,-155,o),
(469,-195,cs)
);
}
);
width = 764;
}
);
unicode = 290;
},
{
glyphname = Gdotaccent;
lastChange = "2023-11-14 20:45:30 +0000";
layers = (
{
anchors = (
{
name = op;
pos = (433,1071);
}
);
layerId = "49F060A0-2273-4F54-8B81-08E0B15B03EC";
shapes = (
{
ref = G;
},
{
closed = 1;
nodes = (
(351,961,o),
(381,932,o),
(427,932,cs),
(473,932,o),
(503,961,o),
(503,1006,cs),
(503,1050,o),
(473,1078,o),
(427,1078,cs),
(381,1078,o),
(351,1050,o),
(351,1006,cs)
);
}
);
width = 764;
}
);
unicode = 288;
},
{
color = 10;
glyphname = H;
lastChange = "2023-11-11 12:28:06 +0000";
layers = (
{
layerId = "49F060A0-2273-4F54-8B81-08E0B15B03EC";
shapes = (
{
closed = 1;
nodes = (
(470,293,o),
(489,293,o),
(496,293,cs),
(527,293,o),
(555,309,o),
(555,346,cs),
(555,373,o),
(548,401,o),
(539,432,cs),
(513,520,o),
(467,554,o),
(467,635,cs),
(467,754,o),
(543,806,o),
(640,806,cs),
(755,806,o),
(854,706,o),
(854,505,cs),
(854,266,o),
(717,86,o),
(640,18,cs),
(615,-5,o),
(590,-20,o),
(562,-4,cs),
(536,11,o),
(528,40,o),
(537,72,cs),
(541,84,o),
(554,120,o),
(554,139,cs),
(554,167,o),
(535,190,o),
(489,190,cs),
(489,190,o),
(471,190,o),
(444,190,c),
(417,189,o),
(399,189,o),
(399,189,cs),
(353,189,o),
(334,166,o),
(334,138,cs),
(334,119,o),
(347,83,o),
(351,72,cs),
(360,39,o),
(352,10,o),
(326,-5,cs),
(298,-21,o),
(273,-6,o),
(248,17,cs),
(171,85,o),
(34,265,o),
(34,504,cs),
(34,705,o),
(133,805,o),
(248,805,cs),
(345,805,o),
(421,753,o),
(421,634,cs),
(421,553,o),
(375,519,o),
(349,432,cs),
(340,400,o),
(333,373,o),
(333,345,cs),
(333,308,o),
(361,293,o),
(392,293,cs),
(399,293,o),
(418,293,o),
(444,293,cs)
);
}
);
width = 888;
}
);
unicode = 72;
},
{
glyphname = Hbar;
lastChange = "2023-11-07 04:26:18 +0000";
layers = (
{
layerId = "49F060A0-2273-4F54-8B81-08E0B15B03EC";
shapes = (
{
closed = 1;
nodes = (
(630,577,o),
(614,588,o),
(586,592,cs),
(374,623,o),
(198,639,o),
(130,639,cs),
(48,639,o),
(10,600,o),
(10,554,cs),
(10,507,o),
(48,482,o),
(130,482,cs),
(198,482,o),
(374,498,o),
(586,529,cs),
(614,533,o),
(630,544,o),
(630,561,cs)
);
},
{
closed = 1;
nodes = (
(556,356,o),
(543,367,o),
(523,371,cs),
(366,402,o),
(236,418,o),
(185,418,cs),
(124,418,o),
(95,379,o),
(95,333,cs),
(95,286,o),
(124,261,o),
(185,261,cs),
(236,261,o),
(366,277,o),
(523,308,cs),
(543,312,o),
(556,323,o),
(556,340,cs)
);
},
{
closed = 1;
nodes = (
(183,0,o),
(196,18,o),
(201,49,cs),
(233,292,o),
(251,482,o),
(251,572,cs),
(251,658,o),
(219,708,o),
(164,708,cs),
(109,708,o),
(77,658,o),
(77,572,cs),
(77,482,o),
(95,292,o),
(127,49,cs),
(132,18,o),
(145,0,o),
(164,0,cs)
);
},
{
closed = 1;
nodes = (
(512,0,o),
(525,18,o),
(529,49,cs),
(562,292,o),
(580,482,o),
(580,572,cs),
(580,658,o),
(548,708,o),
(493,708,cs),
(438,708,o),
(406,658,o),
(406,572,cs),
(406,482,o),
(424,292,o),
(457,49,cs),
(461,18,o),
(474,0,o),
(493,0,cs)
);
}
);
width = 640;
}
);
unicode = 294;
},
{
color = 10;
glyphname = I;
lastChange = "2023-11-14 18:54:03 +0000";
layers = (
{
layerId = "49F060A0-2273-4F54-8B81-08E0B15B03EC";
shapes = (
{
closed = 1;
nodes = (
(127,808,o),
(49,730,o),
(49,588,cs),
(49,397,o),
(90,201,o),
(124,82,cs),
(143,19,o),
(169,-18,o),
(218,-18,cs),
(267,-18,o),
(293,19,o),
(312,82,cs),
(346,201,o),
(387,397,o),
(387,588,cs),
(387,730,o),
(309,808,o),
(218,808,c)
);
}
);
width = 436;
}
);
unicode = 73;
},
{
glyphname = Iacute;
lastChange = "2023-11-15 14:00:15 +0000";
layers = (
{
anchors = (
{
name = "new anchor";
pos = (223,1068);
}
);
layerId = "49F060A0-2273-4F54-8B81-08E0B15B03EC";
shapes = (
{
ref = I;
},
{
closed = 1;
nodes = (
(253,893,o),
(200,868,o),
(156,862,cs),
(126,858,o),
(97,860,o),
(84,885,cs),
(68,917,o),
(88,941,o),
(128,961,cs),
(193,994,o),
(198,1047,o),
(244,1073,cs),
(274,1090,o),
(309,1085,o),
(334,1052,cs),
(365,1011,o),
(346,963,o),
(293,923,cs)
);
}
);
width = 390;
}
);
unicode = 205;
},
{
glyphname = Icircumflex;
lastChange = "2023-11-15 14:00:49 +0000";
layers = (
{
anchors = (
{
name = top;
pos = (217,1076);
}
);
layerId = "49F060A0-2273-4F54-8B81-08E0B15B03EC";
shapes = (
{
ref = I;
},
{
closed = 1;
nodes = (
(206,928,o),
(197,919,o),
(173,902,cs),
(120,863,l),
(86,839,o),
(61,821,o),
(42,839,cs),
(27,855,o),
(41,874,o),
(59,912,cs),
(72,937,o),
(89,969,o),
(109,1004,cs),
(136,1052,o),
(172,1082,o),
(216,1082,cs),
(260,1082,o),
(296,1052,o),
(323,1004,cs),
(343,969,o),
(360,937,o),
(373,912,cs),
(391,874,o),
(405,855,o),
(390,839,cs),
(371,821,o),
(346,839,o),
(312,863,cs),
(299,873,o),
(275,891,o),
(254,906,cs),
(236,919,o),
(226,928,o),
(216,928,cs)
);
}
);
width = 436;
}
);
unicode = 206;
},
{
glyphname = Idieresis;
lastChange = "2023-11-14 20:38:06 +0000";
layers = (
{
anchors = (
{
name = top;
pos = (226,1082);
}
);
layerId = "49F060A0-2273-4F54-8B81-08E0B15B03EC";
shapes = (
{
ref = I;
},
{
closed = 1;
nodes = (
(37,961,o),
(67,932,o),
(113,932,cs),
(159,932,o),
(189,961,o),
(189,1006,cs),
(189,1050,o),
(159,1078,o),
(113,1078,cs),
(67,1078,o),
(37,1050,o),
(37,1006,cs)
);
},
{
closed = 1;
nodes = (
(233,961,o),
(263,932,o),
(309,932,cs),
(355,932,o),
(385,961,o),
(385,1006,cs),
(385,1050,o),
(355,1078,o),
(309,1078,cs),
(263,1078,o),
(233,1050,o),
(233,1006,cs)
);
}
);
width = 449;
}
);
unicode = 207;
},
{
glyphname = Idotaccent;
lastChange = "2023-11-15 13:24:34 +0000";
layers = (
{
anchors = (
{
name = top;
pos = (224,1068);
}
);
layerId = "49F060A0-2273-4F54-8B81-08E0B15B03EC";
shapes = (
{
ref = I;
},
{
closed = 1;
nodes = (
(138,961,o),
(168,932,o),
(214,932,cs),
(260,932,o),
(290,961,o),
(290,1006,cs),
(290,1050,o),
(260,1078,o),
(214,1078,cs),
(168,1078,o),
(138,1050,o),
(138,1006,cs)
);
}
);
width = 436;
}
);
unicode = 304;
},
{
glyphname = Igrave;
lastChange = "2023-11-14 18:48:00 +0000";
layers = (
{
layerId = "49F060A0-2273-4F54-8B81-08E0B15B03EC";
shapes = (
{
ref = I;
},
{
closed = 1;
nodes = (
(104,961,o),
(85,1009,o),
(116,1050,cs),
(141,1083,o),
(176,1088,o),
(206,1071,cs),
(252,1045,o),
(257,992,o),
(322,959,cs),
(362,939,o),
(382,915,o),
(366,883,cs),
(353,858,o),
(324,856,o),
(294,860,cs),
(250,866,o),
(197,891,o),
(157,921,cs)
);
}
);
width = 443;
}
);
unicode = 204;
},
{
glyphname = Imacron;
lastChange = "2023-11-15 12:21:24 +0000";
layers = (
{
anchors = (
{
name = top;
pos = (235,1082);
}
);
layerId = "49F060A0-2273-4F54-8B81-08E0B15B03EC";
shapes = (
{
pos = (18,0);
ref = I;
},
{
closed = 1;
nodes = (
(48,918,o),
(10,951,o),
(10,998,cs),
(10,1043,o),
(46,1079,o),
(174,1079,cs),
(281,1079,o),
(366,1065,o),
(388,1061,cs),
(474,1044,o),
(501,1029,o),
(501,1003,cs),
(501,977,o),
(471,957,o),
(394,941,cs),
(358,933,o),
(272,918,o),
(178,918,cs)
);
}
);
width = 511;
}
);
unicode = 298;
},
{
glyphname = Iogonek;
lastChange = "2023-11-15 13:56:37 +0000";
layers = (
{
anchors = (
{
name = bottom;
pos = (218,0);
}
);
layerId = "49F060A0-2273-4F54-8B81-08E0B15B03EC";
shapes = (
{
ref = I;
},
{
closed = 1;
nodes = (
(278,-176,o),
(289,-168,o),
(289,-156,cs),
(289,-144,o),
(278,-137,o),
(261,-137,cs),
(233,-137,o),
(217,-127,o),
(217,-107,cs),
(217,-94,o),
(230,-83,o),
(241,-74,cs),
(262,-56,o),
(272,-34,o),
(247,-10,cs),
(228,8,o),
(193,1,o),
(167,-28,cs),
(130,-70,o),
(136,-123,o),
(173,-156,cs),
(196,-177,o),
(224,-184,o),
(262,-178,c)
);
}
);
width = 436;
}
);
unicode = 302;
},
{
color = 10;
glyphname = J;
lastChange = "2023-11-13 11:17:31 +0000";
layers = (
{
layerId = "49F060A0-2273-4F54-8B81-08E0B15B03EC";
shapes = (
{
closed = 1;
nodes = (
(135,-15,o),
(167,-14,cs),
(179,-14,o),
(232,-11,o),
(284,22,cs),
(384,86,o),
(484,269,o),
(484,488,cs),
(484,709,o),
(370,814,o),
(251,814,cs),
(169,814,o),
(91,757,o),
(91,661,cs),
(91,611,o),
(136,501,o),
(167,426,cs),
(210,327,o),
(224,258,o),
(224,208,cs),
(224,107,o),
(158,91,o),
(129,91,cs),
(102,91,o),
(78,91,o),
(65,91,cs),
(28,90,o),
(10,68,o),
(10,39,cs),
(10,11,o),
(31,-3,o),
(64,-9,cs),
(96,-15,o)
);
}
);
width = 494;
}
);
unicode = 74;
},
{
color = 10;
glyphname = K;
lastChange = "2023-11-11 10:56:28 +0000";
layers = (
{
layerId = "49F060A0-2273-4F54-8B81-08E0B15B03EC";
shapes = (
{
closed = 1;
nodes = (
(495,289,o),
(503,316,o),
(527,331,cs),
(554,348,o),
(701,442,o),
(680,429,cs),
(754,475,o),
(824,544,o),
(824,632,cs),
(824,723,o),
(749,799,o),
(655,799,cs),
(560,799,o),
(506,720,o),
(483,629,cs),
(473,589,o),
(425,398,o),
(401,365,cs),
(385,342,o),
(356,338,o),
(334,354,cs),
(314,368,o),
(311,395,o),
(320,419,cs),
(341,473,o),
(416,519,o),
(416,620,cs),
(416,726,o),
(339,800,o),
(237,800,cs),
(153,800,o),
(11,730,o),
(11,534,cs),
(11,276,o),
(142,83,o),
(218,16,cs),
(243,-6,o),
(267,-21,o),
(295,-7,cs),
(323,7,o),
(330,39,o),
(320,70,cs),
(310,101,o),
(304,132,o),
(304,149,cs),
(304,169,o),
(314,194,o),
(330,205,cs),
(356,224,o),
(395,222,o),
(422,169,cs),
(445,124,o),
(504,41,o),
(518,26,cs),
(540,2,o),
(596,-30,o),
(638,2,cs),
(663,21,o),
(690,67,o),
(636,118,cs),
(626,127,o),
(610,140,o),
(600,148,cs),
(542,193,o),
(519,239,o),
(506,266,cs)
);
}
);
width = 844;
}
);
unicode = 75;
},
{
glyphname = Kcommaaccent;
lastChange = "2023-11-14 22:24:13 +0000";
layers = (
{
anchors = (
{
name = bottom;
pos = (475,-35);
}
);
layerId = "49F060A0-2273-4F54-8B81-08E0B15B03EC";
shapes = (
{
ref = K;
},
{
closed = 1;
nodes = (
(396,-225,o),
(343,-250,o),
(299,-256,cs),
(269,-260,o),
(240,-258,o),
(227,-233,cs),
(211,-201,o),
(231,-177,o),
(271,-157,cs),
(336,-124,o),
(341,-71,o),
(387,-45,cs),
(417,-28,o),
(452,-33,o),
(477,-66,cs),
(508,-107,o),
(489,-155,o),
(436,-195,cs)
);
}
);
width = 844;
}
);
unicode = 310;
},
{
color = 10;
glyphname = L;
lastChange = "2023-11-12 12:11:29 +0000";
layers = (
{
layerId = "49F060A0-2273-4F54-8B81-08E0B15B03EC";
shapes = (
{
closed = 1;
nodes = (
(375,507,o),
(420,616,o),
(420,666,cs),
(420,761,o),
(341,813,o),
(260,813,cs),
(143,813,o),
(30,713,o),
(30,496,cs),
(30,277,o),
(130,97,o),
(245,22,cs),
(286,-4,o),
(335,-13,o),
(402,-13,cs),
(466,-13,o),
(502,-5,o),
(520,-1,cs),
(550,6,o),
(570,21,o),
(570,49,cs),
(570,76,o),
(549,99,o),
(514,99,cs),
(479,99,o),
(426,96,o),
(384,101,cs),
(336,106,o),
(217,132,o),
(344,434,cs)
);
}
);
width = 575;
}
);
unicode = 76;
},
{
glyphname = Lacute;
lastChange = "2023-11-14 12:19:54 +0000";
layers = (
{
anchors = (
{
name = top;
pos = (323,1075);
}
);
layerId = "49F060A0-2273-4F54-8B81-08E0B15B03EC";
shapes = (
{
ref = L;
},
{
closed = 1;
nodes = (
(299,890,o),
(246,865,o),
(202,859,cs),
(172,855,o),
(143,857,o),
(130,882,cs),
(114,914,o),
(134,938,o),
(174,958,cs),
(239,991,o),
(244,1044,o),
(290,1070,cs),
(320,1087,o),
(355,1082,o),
(380,1049,cs),
(411,1008,o),
(392,960,o),
(339,920,cs)
);
}
);
width = 575;
}
);
unicode = 313;
},
{
glyphname = Lcaron;
lastChange = "2023-11-07 05:29:05 +0000";
layers = (
{
layerId = "49F060A0-2273-4F54-8B81-08E0B15B03EC";
shapes = (
{
ref = L;
},
{
closed = 1;
nodes = (
(483,643,o),
(449,642,o),
(449,614,cs),
(449,582,o),
(487,573,o),
(510,573,cs),
(580,573,o),
(638,623,o),
(638,703,cs),
(638,782,o),
(600,799,o),
(567,799,cs),
(540,799,o),
(516,783,o),
(516,752,cs),
(516,740,o),
(522,710,o),
(522,697,cs),
(522,680,o),
(514,670,o),
(504,661,cs)
);
}
);
width = 648;
}
);
unicode = 317;
},
{
glyphname = Lcommaaccent;
lastChange = "2023-11-14 22:24:53 +0000";
layers = (
{
anchors = (
{
name = bottom;
pos = (317,-38);
}
);
layerId = "49F060A0-2273-4F54-8B81-08E0B15B03EC";
shapes = (
{
ref = L;
},
{
closed = 1;
nodes = (
(357,-225,o),
(304,-250,o),
(260,-256,cs),
(230,-260,o),
(201,-258,o),
(188,-233,cs),
(172,-201,o),
(192,-177,o),
(232,-157,cs),
(297,-124,o),
(302,-71,o),
(348,-45,cs),
(378,-28,o),
(413,-33,o),
(438,-66,cs),
(469,-107,o),
(450,-155,o),
(397,-195,cs)
);
}
);
width = 575;
}
);
unicode = 315;
},
{
color = 10;
glyphname = M;
lastChange = "2023-11-12 04:42:16 +0000";
layers = (
{
layerId = "49F060A0-2273-4F54-8B81-08E0B15B03EC";
shapes = (
{
closed = 1;
nodes = (
(356,179,o),
(371,315,o),
(364,354,cs),
(361,371,o),
(350,383,o),
(336,383,cs),
(318,383,o),
(310,373,o),
(303,350,cs),
(299,337,o),
(296,323,o),
(296,297,cs),
(296,228,o),
(317,165,o),
(325,122,c),
(325,122,o),
(321,136,o),
(341,65,cs),
(352,26,o),
(339,1,o),
(318,-12,cs),
(288,-30,o),
(262,-11,o),
(239,10,cs),
(161,80,o),
(25,258,o),
(25,497,cs),
(25,698,o),
(121,798,o),
(245,798,cs),
(336,798,o),
(401,745,o),
(412,623,cs),
(415,590,o),
(425,426,o),
(433,345,cs),
(434,334,o),
(441,304,o),
(471,304,cs),
(500,304,o),
(507,334,o),
(508,345,cs),
(516,426,o),
(526,590,o),
(529,623,cs),
(540,745,o),
(605,798,o),
(696,798,cs),
(820,798,o),
(916,698,o),
(916,497,cs),
(916,258,o),
(779,78,o),
(702,10,cs),
(675,-14,o),
(651,-29,o),
(623,-12,cs),
(598,3,o),
(590,31,o),
(600,65,cs),
(620,136,o),
(616,122,o),
(616,122,c),
(624,165,o),
(645,228,o),
(645,297,cs),
(645,323,o),
(642,337,o),
(638,350,cs),
(631,373,o),
(623,383,o),
(605,383,cs),
(596,383,o),
(581,377,o),
(577,354,cs),
(570,314,o),
(585,179,o),
(471,179,cs)
);
}
);
width = 941;
}
);
unicode = 77;
},
{
color = 10;
glyphname = N;
lastChange = "2023-11-12 04:46:57 +0000";
layers = (
{
layerId = "49F060A0-2273-4F54-8B81-08E0B15B03EC";
shapes = (
{
closed = 1;
nodes = (
(380,278,o),
(364,288,o),
(347,288,cs),
(326,288,o),
(308,270,o),
(308,248,cs),
(308,231,o),
(308,211,o),
(336,154,c),
(336,154,o),
(374,76,o),
(378,64,cs),
(387,32,o),
(379,3,o),
(353,-12,cs),
(325,-28,o),
(300,-13,o),
(275,10,cs),
(198,78,o),
(61,258,o),
(61,497,cs),
(61,698,o),
(160,798,o),
(275,798,cs),
(372,798,o),
(438,746,o),
(448,616,cs),
(453,558,o),
(464,457,o),
(472,393,cs),
(485,293,o),
(507,182,o),
(528,133,cs),
(536,115,o),
(544,97,o),
(564,97,cs),
(584,97,o),
(597,113,o),
(600,146,cs),
(607,234,o),
(570,387,o),
(561,517,cs),
(546,729,o),
(633,798,o),
(730,798,cs),
(845,798,o),
(920,698,o),
(920,497,cs),
(920,258,o),
(746,-13,o),
(584,-13,cs),
(480,-13,o),
(412,178,o),
(395,230,cs)
);
}
);
width = 936;
}
);
unicode = 78;
},
{
glyphname = Nacute;
lastChange = "2023-11-14 19:23:27 +0000";
layers = (
{
anchors = (
{
name = top;
pos = (628,1082);
}
);
layerId = "49F060A0-2273-4F54-8B81-08E0B15B03EC";
shapes = (
{
ref = N;
},
{
closed = 1;
nodes = (
(548,893,o),
(495,868,o),
(451,862,cs),
(421,858,o),
(392,860,o),
(379,885,cs),
(363,917,o),
(383,941,o),
(423,961,cs),
(488,994,o),
(493,1047,o),
(539,1073,cs),
(569,1090,o),
(604,1085,o),
(629,1052,cs),
(660,1011,o),
(641,963,o),
(588,923,cs)
);
}
);
width = 936;
}
);
unicode = 323;
},
{
glyphname = Ncaron;
lastChange = "2023-11-15 10:50:27 +0000";
layers = (
{
anchors = (
{
name = top;
pos = (478,986);
}
);
layerId = "49F060A0-2273-4F54-8B81-08E0B15B03EC";
shapes = (
{
ref = N;
},
{
closed = 1;
nodes = (
(500,982,o),
(510,991,o),
(528,1004,cs),
(549,1019,o),
(573,1037,o),
(586,1047,cs),
(620,1071,o),
(645,1089,o),
(664,1071,cs),
(679,1055,o),
(665,1036,o),
(647,998,cs),
(634,973,o),
(617,941,o),
(597,906,cs),
(570,858,o),
(534,828,o),
(490,828,cs),
(446,828,o),
(410,858,o),
(383,906,cs),
(363,941,o),
(346,973,o),
(333,998,cs),
(315,1036,o),
(301,1055,o),
(316,1071,cs),
(335,1089,o),
(360,1071,o),
(394,1047,c),
(447,1008,ls),
(471,991,o),
(480,982,o),
(490,982,cs)
);
}
);
width = 936;
}
);
unicode = 327;
},
{
glyphname = Ncommaaccent;
lastChange = "2023-11-14 22:12:21 +0000";
layers = (
{
anchors = (
{
name = bottom;
pos = (422,-32);
}
);
layerId = "49F060A0-2273-4F54-8B81-08E0B15B03EC";
shapes = (
{
ref = N;
},
{
closed = 1;
nodes = (
(474,-225,o),
(421,-250,o),
(377,-256,cs),
(347,-260,o),
(318,-258,o),
(305,-233,cs),
(289,-201,o),
(309,-177,o),
(349,-157,cs),
(414,-124,o),
(419,-71,o),
(465,-45,cs),
(495,-28,o),
(530,-33,o),
(555,-66,cs),
(586,-107,o),
(567,-155,o),
(514,-195,cs)
);
}
);
width = 936;
}
);
unicode = 325;
},
{
glyphname = Ntilde;
lastChange = "2023-11-14 21:59:17 +0000";
layers = (
{
anchors = (
{
name = top;
pos = (498,1081);
}
);
layerId = "49F060A0-2273-4F54-8B81-08E0B15B03EC";
shapes = (
{
ref = N;
},
{
closed = 1;
nodes = (
(535,901,o),
(587,889,o),
(639,921,cs),
(687,952,o),
(704,1002,o),
(679,1042,cs),
(664,1065,o),
(637,1071,o),
(615,1057,cs),
(604,1050,o),
(581,1028,o),
(570,1020,cs),
(552,1010,o),
(539,1009,o),
(527,1018,cs),
(445,1082,o),
(393,1094,o),
(340,1059,cs),
(292,1031,o),
(275,980,o),
(300,940,cs),
(314,918,o),
(341,911,o),
(364,925,cs),
(374,932,o),
(398,954,o),
(409,960,cs),
(426,973,o),
(438,973,o),
(452,964,cs)
);
}
);
width = 936;
}
);
unicode = 209;
},
{
glyphname = Eng;
lastChange = "2023-11-14 22:52:34 +0000";
layers = (
{
layerId = "49F060A0-2273-4F54-8B81-08E0B15B03EC";
shapes = (
{
closed = 1;
nodes = (
(599,-16,l),
(585,-85,o),
(532,-97,o),
(507,-97,cs),
(443,-97,ls),
(406,-97,o),
(388,-120,o),
(388,-149,cs),
(388,-177,o),
(409,-191,o),
(442,-197,cs),
(474,-203,o),
(513,-202,o),
(545,-202,cs),
(557,-202,o),
(613,-198,o),
(662,-166,cs),
(762,-100,o),
(872,108,o),
(906,323,cs),
(915,381,o),
(923,462,o),
(920,512,c),
(919,689,o),
(844,795,o),
(727,795,cs),
(633,795,o),
(547,726,o),
(561,514,cs),
(569,395,o),
(608,223,o),
(600,144,cs),
(597,114,o),
(587,94,o),
(564,94,cs),
(545,94,o),
(537,109,o),
(528,130,cs),
(506,181,o),
(484,298,o),
(472,390,cs),
(464,452,o),
(453,557,o),
(448,615,cs),
(437,743,o),
(372,795,o),
(282,795,cs),
(157,795,o),
(61,695,o),
(61,494,cs),
(61,255,o),
(198,75,o),
(275,7,cs),
(301,-16,o),
(325,-31,o),
(353,-15,cs),
(388,5,o),
(383,47,o),
(378,61,cs),
(373,75,o),
(336,151,o),
(336,151,c),
(308,208,o),
(308,228,o),
(308,245,cs),
(308,267,o),
(326,285,o),
(347,285,cs),
(375,285,o),
(386,253,o),
(395,227,cs),
(436,108,o),
(493,-16,o),
(590,-16,cs)
);
}
);
width = 945;
}
);
unicode = 330;
},
{
color = 10;
glyphname = O;
lastChange = "2023-11-14 15:49:42 +0000";
layers = (
{
layerId = "49F060A0-2273-4F54-8B81-08E0B15B03EC";
shapes = (
{
closed = 1;
nodes = (
(179,811,o),
(30,680,o),
(30,451,cs),
(30,171,o),
(217,-14,o),
(447,-14,cs),
(668,-14,o),
(850,170,o),
(850,448,cs),
(850,679,o),
(700,811,o),
(439,811,cs)
);
},
{
closed = 1;
nodes = (
(344,94,o),
(297,156,o),
(297,275,cs),
(297,390,o),
(344,455,o),
(443,455,cs),
(536,455,o),
(583,390,o),
(583,275,cs),
(583,156,o),
(536,94,o),
(443,94,cs)
);
}
);
width = 880;
}
);
unicode = 79;
},
{
glyphname = Oacute;
lastChange = "2023-11-14 18:49:55 +0000";
layers = (
{
layerId = "49F060A0-2273-4F54-8B81-08E0B15B03EC";
shapes = (
{
ref = O;
},
{
closed = 1;
nodes = (
(483,891,o),
(430,866,o),
(386,860,cs),
(356,856,o),
(327,858,o),
(314,883,cs),
(298,915,o),
(318,939,o),
(358,959,cs),
(423,992,o),
(428,1045,o),
(474,1071,cs),
(504,1088,o),
(539,1083,o),
(564,1050,cs),
(595,1009,o),
(576,961,o),
(523,921,cs)
);
}
);
width = 880;
}
);
unicode = 211;
},
{
glyphname = Ocircumflex;
lastChange = "2023-11-15 10:51:39 +0000";
layers = (
{
anchors = (
{
name = top;
pos = (431,1082);
}
);
layerId = "49F060A0-2273-4F54-8B81-08E0B15B03EC";
shapes = (
{
ref = O;
},
{
closed = 1;
nodes = (
(422,929,o),
(413,920,o),
(389,903,cs),
(336,864,l),
(302,840,o),
(277,822,o),
(258,840,cs),
(243,856,o),
(257,875,o),
(275,913,cs),
(288,938,o),
(305,970,o),
(325,1005,cs),
(352,1053,o),
(388,1083,o),
(432,1083,cs),
(476,1083,o),
(512,1053,o),
(539,1005,cs),
(559,970,o),
(576,938,o),
(589,913,cs),
(607,875,o),
(621,856,o),
(606,840,cs),
(587,822,o),
(562,840,o),
(528,864,cs),
(515,874,o),
(491,892,o),
(470,907,cs),
(452,920,o),
(442,929,o),
(432,929,cs)
);
}
);
width = 880;
}
);
unicode = 212;
},
{
glyphname = Odieresis;
lastChange = "2023-11-14 20:24:12 +0000";
layers = (
{
anchors = (
{
name = top;
pos = (444,1082);
}
);
layerId = "49F060A0-2273-4F54-8B81-08E0B15B03EC";
shapes = (
{
ref = O;
},
{
closed = 1;
nodes = (
(270,961,o),
(300,932,o),
(346,932,cs),
(392,932,o),
(422,961,o),
(422,1006,cs),
(422,1050,o),
(392,1078,o),
(346,1078,cs),
(300,1078,o),
(270,1050,o),
(270,1006,cs)
);
},
{
closed = 1;
nodes = (
(466,961,o),
(496,932,o),
(542,932,cs),
(588,932,o),
(618,961,o),
(618,1006,cs),
(618,1050,o),
(588,1078,o),
(542,1078,cs),
(496,1078,o),
(466,1050,o),
(466,1006,cs)
);
}
);
width = 880;
}
);
unicode = 214;
},
{
glyphname = Ograve;
lastChange = "2023-11-14 18:43:54 +0000";
layers = (
{
anchors = (
{
name = top;
pos = (449,1064);
}
);
layerId = "49F060A0-2273-4F54-8B81-08E0B15B03EC";
shapes = (
{
ref = O;
},
{
closed = 1;
nodes = (
(310,961,o),
(291,1009,o),
(322,1050,cs),
(347,1083,o),
(382,1088,o),
(412,1071,cs),
(458,1045,o),
(463,992,o),
(528,959,cs),
(568,939,o),
(588,915,o),
(572,883,cs),
(559,858,o),
(530,856,o),
(500,860,cs),
(456,866,o),
(403,891,o),
(363,921,cs)
);
}
);
width = 880;
}
);
unicode = 210;
},
{
glyphname = Ohungarumlaut;
lastChange = "2023-11-03 04:23:36 +0000";
layers = (
{
layerId = "49F060A0-2273-4F54-8B81-08E0B15B03EC";
shapes = (
{
ref = O;
},
{
closed = 1;
nodes = (
(139,851,o),
(152,852,o),
(169,864,cs),
(295,945,o),
(395,1018,o),
(430,1050,cs),
(473,1088,o),
(480,1121,o),
(456,1147,cs),
(433,1174,o),
(393,1178,o),
(350,1139,cs),
(315,1108,o),
(231,1016,o),
(138,899,cs),
(125,883,o),
(122,871,o),
(129,861,cs)
);
},
{
closed = 1;
nodes = (
(381,851,o),
(394,853,o),
(410,864,cs),
(537,945,o),
(637,1018,o),
(672,1050,cs),
(714,1088,o),
(722,1121,o),
(698,1148,cs),
(674,1174,o),
(634,1178,o),
(592,1140,cs),
(557,1108,o),
(473,1016,o),
(379,901,cs),
(366,884,o),
(364,871,o),
(372,862,cs)
);
}
);
width = 880;
}
);
unicode = 336;
},
{
glyphname = Omacron;
lastChange = "2023-11-15 11:22:55 +0000";
layers = (
{
anchors = (
{
name = top;
pos = (451,1082);
}
);
layerId = "49F060A0-2273-4F54-8B81-08E0B15B03EC";
shapes = (
{
closed = 1;
nodes = (
(661,-13,o),
(850,166,o),
(850,400,cs),
(850,632,o),
(665,813,o),
(447,813,cs),
(229,813,o),
(30,632,o),
(30,399,cs),
(30,166,o),
(228,-13,o),
(445,-13,cs)
);
},
{
closed = 1;
nodes = (
(350,52,o),
(288,132,o),
(288,242,cs),
(288,352,o),
(350,431,o),
(440,431,cs),
(530,431,o),
(592,352,o),
(592,242,cs),
(592,132,o),
(530,52,o),
(440,52,cs)
);
},
{
closed = 1;
nodes = (
(244,918,o),
(206,951,o),
(206,998,cs),
(206,1043,o),
(242,1079,o),
(370,1079,cs),
(477,1079,o),
(562,1065,o),
(584,1061,cs),
(670,1044,o),
(697,1029,o),
(697,1003,cs),
(697,977,o),
(667,957,o),
(590,941,cs),
(554,933,o),
(468,918,o),
(374,918,cs)
);
}
);
width = 880;
}
);
unicode = 332;
},
{
glyphname = Oslash;
lastChange = "2023-11-14 22:36:04 +0000";
layers = (
{
layerId = "49F060A0-2273-4F54-8B81-08E0B15B03EC";
shapes = (
{
closed = 1;
nodes = (
(673,-20,o),
(855,164,o),
(855,442,cs),
(855,673,o),
(705,805,o),
(444,805,cs),
(184,805,o),
(35,674,o),
(35,445,cs),
(35,165,o),
(222,-20,o),
(452,-20,cs)
);
},
{
closed = 1;
nodes = (
(122,-43,o),
(143,-39,o),
(184,-10,c),
(214,13,o),
(243,36,o),
(271,59,c),
(184,134,l),
(163,109,o),
(141,84,o),
(119,58,c),
(89,17,o),
(85,-3,o),
(104,-23,cs)
);
},
{
closed = 1;
nodes = (
(349,88,o),
(302,150,o),
(302,269,cs),
(302,384,o),
(349,449,o),
(448,449,cs),
(541,449,o),
(588,384,o),
(588,269,cs),
(588,150,o),
(541,88,o),
(448,88,cs)
);
},
{
closed = 1;
nodes = (
(822,540,o),
(833,550,o),
(843,559,cs),
(922,635,o),
(921,690,o),
(884,728,cs),
(846,768,o),
(793,770,o),
(713,693,cs),
(704,683,o),
(694,673,o),
(683,662,c),
(810,529,l)
);
}
);
width = 915;
}
);
metricRight = "1'";
unicode = 216;
},
{
glyphname = Otilde;
lastChange = "2023-11-14 22:06:43 +0000";
layers = (
{
anchors = (
{
name = top;
pos = (332,808);
}
);
hints = (
{
horizontal = 1;
place = (734, 91);
place = (734, 91);
type = Stem;
},
{
horizontal = 1;
place = (678, 135);
place = (678, 135);
type = Stem;
},
{
horizontal = 1;
place = (678, 91);
place = (678, 91);
type = Stem;
}
);
layerId = "49F060A0-2273-4F54-8B81-08E0B15B03EC";
shapes = (
{
ref = o;
},
{
closed = 1;
nodes = (
(364,632,o),
(416,620,o),
(468,652,cs),
(516,683,o),
(533,733,o),
(508,773,cs),
(493,796,o),
(466,802,o),
(444,788,cs),
(433,781,o),
(410,759,o),
(399,751,cs),
(381,741,o),
(368,740,o),
(356,749,cs),
(274,813,o),
(222,825,o),
(169,790,cs),
(121,762,o),
(104,711,o),
(129,671,cs),
(143,649,o),
(170,642,o),
(193,656,cs),
(203,663,o),
(227,685,o),
(238,691,cs),
(255,704,o),
(267,704,o),
(281,695,cs)
);
}
);
width = 642;
}
);
unicode = 213;
},
{
glyphname = OE;
lastChange = "2023-11-14 22:29:26 +0000";
layers = (
{
layerId = "49F060A0-2273-4F54-8B81-08E0B15B03EC";
shapes = (
{
closed = 1;
nodes = (
(344,94,o),
(297,156,o),
(297,275,cs),
(297,390,o),
(344,455,o),
(443,455,cs),
(536,455,o),
(583,390,o),
(583,275,cs),
(583,156,o),
(536,94,o),
(443,94,cs)
);
},
{
closed = 1;
nodes = (
(668,-14,o),
(850,170,o),
(850,448,cs),
(850,679,o),
(700,811,o),
(439,811,cs),
(179,811,o),
(30,680,o),
(30,451,cs),
(30,171,o),
(217,-14,o),
(447,-14,cs)
);
},
{
closed = 1;
nodes = (
(1101,-12,o),
(1163,-1,o),
(1201,16,cs),
(1264,46,o),
(1278,84,o),
(1264,116,cs),
(1253,141,o),
(1212,169,o),
(1166,138,cs),
(1125,109,o),
(1099,93,o),
(1053,93,cs),
(979,93,o),
(897,134,o),
(897,211,cs),
(897,223,o),
(906,232,o),
(919,232,cs),
(965,232,o),
(992,232,o),
(1054,232,cs),
(1097,232,o),
(1120,255,o),
(1120,285,cs),
(1120,315,o),
(1097,338,o),
(1054,338,cs),
(992,338,o),
(965,338,o),
(919,338,cs),
(906,338,o),
(897,347,o),
(897,359,cs),
(897,434,o),
(974,478,o),
(1039,478,cs),
(1099,478,o),
(1141,448,o),
(1197,448,cs),
(1293,448,o),
(1356,526,o),
(1355,599,cs),
(1355,746,o),
(1225,814,o),
(1074,814,cs),
(868,814,o),
(624,687,o),
(624,401,cs),
(624,159,o),
(823,-12,o),
(1042,-12,cs)
);
}
);
width = 1353;
}
);
unicode = 338;
},
{
color = 10;
glyphname = P;
lastChange = "2023-11-11 14:06:17 +0000";
layers = (
{
layerId = "49F060A0-2273-4F54-8B81-08E0B15B03EC";
shapes = (
{
closed = 1;
nodes = (
(440,281,ls),
(348,281,o),
(333,295,o),
(333,323,cs),
(333,350,o),
(335,458,o),
(451,458,cs),
(565,458,o),
(567,350,o),
(567,323,cs),
(567,295,o),
(551,281,o),
(508,281,cs)
);
},
{
closed = 1;
nodes = (
(33,300,o),
(118,73,o),
(254,-4,cs),
(277,-16,o),
(297,-18,o),
(307,-18,cs),
(325,-18,o),
(338,-4,o),
(338,18,cs),
(338,80,ls),
(338,174,o),
(391,177,o),
(434,177,cs),
(514,177,o),
(582,179,o),
(639,197,cs),
(781,243,o),
(849,349,o),
(849,467,cs),
(849,635,o),
(706,808,o),
(431,808,cs),
(189,808,o),
(33,675,o),
(33,469,cs)
);
}
);
width = 865;
}
);
unicode = 80;
},
{
color = 10;
glyphname = Q;
lastChange = "2023-11-12 10:56:06 +0000";
layers = (
{
layerId = "49F060A0-2273-4F54-8B81-08E0B15B03EC";
shapes = (
{
closed = 1;
nodes = (
(770,-11,ls),
(813,-11,o),
(836,12,o),
(836,42,cs),
(836,72,o),
(813,97,o),
(770,95,cs),
(760,95,o),
(752,93,o),
(744,93,cs),
(733,93,o),
(727,95,o),
(727,101,cs),
(727,106,o),
(729,108,o),
(735,114,cs),
(808,187,o),
(850,290,o),
(850,406,cs),
(850,633,o),
(665,815,o),
(447,815,cs),
(229,815,o),
(30,633,o),
(30,403,cs),
(30,168,o),
(229,-11,o),
(439,-11,cs)
);
},
{
closed = 1;
nodes = (
(354,98,o),
(296,173,o),
(296,278,cs),
(296,382,o),
(354,457,o),
(440,457,cs),
(526,457,o),
(584,382,o),
(584,278,cs),
(584,173,o),
(526,98,o),
(440,98,cs)
);
}
);
width = 875;
}
);
unicode = 81;
},
{
color = 10;
glyphname = R;
lastChange = "2023-11-15 12:31:01 +0000";
layers = (
{
layerId = "49F060A0-2273-4F54-8B81-08E0B15B03EC";
shapes = (
{
closed = 1;
nodes = (
(359,283,o),
(305,315,o),
(305,376,cs),
(305,446,o),
(374,472,o),
(432,472,cs),
(506,472,o),
(559,429,o),
(559,370,cs),
(559,306,o),
(496,283,o),
(433,283,cs)
);
},
{
closed = 1;
nodes = (
(29,300,o),
(136,78,o),
(270,2,cs),
(286,-7,o),
(300,-13,o),
(313,-13,cs),
(323,-13,o),
(332,-9,o),
(340,-1,cs),
(348,7,o),
(353,16,o),
(353,33,cs),
(353,40,o),
(352,46,o),
(349,57,cs),
(339,95,ls),
(336,106,o),
(335,115,o),
(335,124,cs),
(335,168,o),
(370,182,o),
(399,182,cs),
(456,182,o),
(491,129,o),
(497,120,cs),
(520,86,o),
(556,36,o),
(567,22,cs),
(584,0,o),
(604,-13,o),
(624,-13,cs),
(629,-13,o),
(638,-12,o),
(647,-6,cs),
(661,3,o),
(671,19,o),
(671,38,cs),
(671,50,o),
(667,63,o),
(656,77,cs),
(582,172,ls),
(572,185,o),
(571,190,o),
(571,194,cs),
(571,208,o),
(583,215,o),
(598,215,cs),
(732,215,o),
(841,326,o),
(841,464,cs),
(841,465,ls),
(841,632,o),
(698,805,o),
(425,805,cs),
(186,805,o),
(29,672,o),
(29,468,cs)
);
}
);
width = 860;
}
);
unicode = 82;
},
{
glyphname = Racute;
lastChange = "2023-11-14 18:48:37 +0000";
layers = (
{
layerId = "49F060A0-2273-4F54-8B81-08E0B15B03EC";
shapes = (
{
ref = R;
},
{
closed = 1;
nodes = (
(459,891,o),
(406,866,o),
(362,860,cs),
(332,856,o),
(303,858,o),
(290,883,cs),
(274,915,o),
(294,939,o),
(334,959,cs),
(399,992,o),
(404,1045,o),
(450,1071,cs),
(480,1088,o),
(515,1083,o),
(540,1050,cs),
(571,1009,o),
(552,961,o),
(499,921,cs)
);
}
);
width = 860;
}
);
unicode = 340;
},
{
glyphname = Rcaron;
lastChange = "2023-11-15 10:55:56 +0000";
layers = (
{
anchors = (
{
name = top;
pos = (417,1082);
}
);
layerId = "49F060A0-2273-4F54-8B81-08E0B15B03EC";
shapes = (
{
ref = R;
},
{
closed = 1;
nodes = (
(437,984,o),
(447,993,o),
(465,1006,cs),
(486,1021,o),
(510,1039,o),
(523,1049,cs),
(557,1073,o),
(582,1091,o),
(601,1073,cs),
(616,1057,o),
(602,1038,o),
(584,1000,cs),
(571,975,o),
(554,943,o),
(534,908,cs),
(507,860,o),
(471,830,o),
(427,830,cs),
(383,830,o),
(347,860,o),
(320,908,cs),
(300,943,o),
(283,975,o),
(270,1000,cs),
(252,1038,o),
(238,1057,o),
(253,1073,cs),
(272,1091,o),
(297,1073,o),
(331,1049,c),
(384,1010,ls),
(408,993,o),
(417,984,o),
(427,984,cs)
);
}
);
width = 860;
}
);
unicode = 344;
},
{
glyphname = Rcommaaccent;
lastChange = "2023-11-14 22:12:54 +0000";
layers = (
{
anchors = (
{
name = bottom;
pos = (402,-33);
}
);
layerId = "49F060A0-2273-4F54-8B81-08E0B15B03EC";
shapes = (
{
ref = R;
},
{
closed = 1;
nodes = (
(437,-225,o),
(384,-250,o),
(340,-256,cs),
(310,-260,o),
(281,-258,o),
(268,-233,cs),
(252,-201,o),
(272,-177,o),
(312,-157,cs),
(377,-124,o),
(382,-71,o),
(428,-45,cs),
(458,-28,o),
(493,-33,o),
(518,-66,cs),
(549,-107,o),
(530,-155,o),
(477,-195,cs)
);
}
);
width = 860;
}
);
unicode = 342;
},
{
color = 10;
glyphname = S;
lastChange = "2023-11-15 13:59:14 +0000";
layers = (
{
guides = (
{
pos = (328,706);
}
);
hints = (
{
horizontal = 1;
place = (719, -20);
target = down;
type = TopGhost;
}
);
layerId = "49F060A0-2273-4F54-8B81-08E0B15B03EC";
shapes = (
{
closed = 1;
nodes = (
(167,199,o),
(67,327,o),
(67,474,cs),
(67,708,o),
(300,812,o),
(448,812,cs),
(650,812,o),
(783,729,o),
(783,589,cs),
(783,503,o),
(730,433,o),
(638,433,cs),
(571,433,o),
(518,468,o),
(443,469,cs),
(384,469,o),
(356,442,o),
(356,406,cs),
(356,370,o),
(384,343,o),
(443,343,cs),
(614,344,o),
(700,285,o),
(700,169,cs),
(700,47,o),
(601,-14,o),
(403,-14,cs),
(287,-14,o),
(237,-3,o),
(201,14,cs),
(140,42,o),
(127,76,o),
(137,103,cs),
(147,128,o),
(175,156,o),
(222,132,cs),
(280,102,o),
(360,96,o),
(409,98,cs),
(491,102,o),
(514,123,o),
(514,153,cs),
(514,176,o),
(491,199,o),
(437,199,c)
);
}
);
width = 794;
}
);
unicode = 83;
},
{
glyphname = Sacute;
lastChange = "2023-11-14 18:49:15 +0000";
layers = (
{
layerId = "49F060A0-2273-4F54-8B81-08E0B15B03EC";
shapes = (
{
ref = S;
},
{
closed = 1;
nodes = (
(478,889,o),
(425,864,o),
(381,858,cs),
(351,854,o),
(322,856,o),
(309,881,cs),
(293,913,o),
(313,937,o),
(353,957,cs),
(418,990,o),
(423,1043,o),
(469,1069,cs),
(499,1086,o),
(534,1081,o),
(559,1048,cs),
(590,1007,o),
(571,959,o),
(518,919,cs)
);
}
);
width = 794;
}
);
unicode = 346;
},
{
glyphname = Scaron;
lastChange = "2023-11-15 11:04:17 +0000";
layers = (
{
anchors = (
{
name = top;
pos = (311,884);
}
);
layerId = "49F060A0-2273-4F54-8B81-08E0B15B03EC";
shapes = (
{
ref = s;
},
{
closed = 1;
nodes = (
(321,788,o),
(331,797,o),
(349,810,cs),
(370,825,o),
(394,843,o),
(407,853,cs),
(441,877,o),
(466,895,o),
(485,877,cs),
(500,861,o),
(486,842,o),
(468,804,cs),
(455,779,o),
(438,747,o),
(418,712,cs),
(391,664,o),
(355,634,o),
(311,634,cs),
(267,634,o),
(231,664,o),
(204,712,cs),
(184,747,o),
(167,779,o),
(154,804,cs),
(136,842,o),
(122,861,o),
(137,877,cs),
(156,895,o),
(181,877,o),
(215,853,c),
(268,814,ls),
(292,797,o),
(301,788,o),
(311,788,cs)
);
}
);
width = 603;
}
);
unicode = 352;
},
{
glyphname = Scedilla;
lastChange = "2023-11-15 13:58:31 +0000";
layers = (
{
layerId = "49F060A0-2273-4F54-8B81-08E0B15B03EC";
shapes = (
{
closed = 1;
nodes = (
(413,-174,o),
(434,-172,o),
(450,-166,cs),
(472,-157,o),
(487,-141,o),
(487,-112,c),
(487,-104,o),
(486,-91,o),
(482,-79,cs),
(466,-29,o),
(412,-5,o),
(384,-23,cs),
(374,-30,o),
(361,-43,o),
(361,-63,cs),
(361,-78,o),
(369,-86,o),
(379,-91,cs),
(390,-97,o),
(403,-99,o),
(412,-105,cs),
(417,-109,o),
(421,-115,o),
(421,-123,cs),
(421,-133,o),
(410,-141,o),
(385,-141,cs),
(372,-141,o),
(364,-146,o),
(364,-157,cs),
(364,-171,o),
(376,-174,o),
(396,-174,cs)
);
},
{
ref = S;
}
);
width = 794;
}
);
unicode = 350;
},
{
glyphname = Scommaaccent;
lastChange = "2023-11-14 22:14:02 +0000";
layers = (
{
anchors = (
{
name = bottom;
pos = (400,-32);
}
);
layerId = "49F060A0-2273-4F54-8B81-08E0B15B03EC";
shapes = (
{
ref = S;
},
{
closed = 1;
nodes = (
(409,-232,o),
(356,-257,o),
(312,-263,cs),
(282,-267,o),
(253,-265,o),
(240,-240,cs),
(224,-208,o),
(244,-184,o),
(284,-164,cs),
(349,-131,o),
(354,-78,o),
(400,-52,cs),
(430,-35,o),
(465,-40,o),
(490,-73,cs),
(521,-114,o),
(502,-162,o),
(449,-202,cs)
);
}
);
width = 794;
}
);
unicode = 536;
},
{
color = 10;
glyphname = T;
lastChange = "2023-11-13 15:25:15 +0000";
layers = (
{
layerId = "49F060A0-2273-4F54-8B81-08E0B15B03EC";
shapes = (
{
closed = 1;
nodes = (
(147,804,o),
(10,733,o),
(10,596,cs),
(10,503,o),
(73,433,o),
(178,433,cs),
(196,433,o),
(271,435,o),
(272,435,cs),
(309,434,o),
(325,419,o),
(329,368,cs),
(345,127,o),
(346,106,o),
(352,58,cs),
(359,1,o),
(378,-22,o),
(417,-22,cs),
(450,-22,o),
(469,1,o),
(476,58,cs),
(482,106,o),
(483,127,o),
(499,368,cs),
(503,419,o),
(519,434,o),
(556,435,cs),
(557,435,o),
(632,433,o),
(650,433,cs),
(755,433,o),
(818,503,o),
(818,596,cs),
(818,733,o),
(681,804,o),
(414,804,cs)
);
}
);
width = 828;
}
);
unicode = 84;
},
{
glyphname = Tcaron;
lastChange = "2023-11-15 10:51:15 +0000";
layers = (
{
anchors = (
{
name = top;
pos = (393,1079);
}
);
layerId = "49F060A0-2273-4F54-8B81-08E0B15B03EC";
shapes = (
{
ref = T;
},
{
closed = 1;
nodes = (
(408,986,o),
(418,995,o),
(436,1008,cs),
(457,1023,o),
(481,1041,o),
(494,1051,cs),
(528,1075,o),
(553,1093,o),
(572,1075,cs),
(587,1059,o),
(573,1040,o),
(555,1002,cs),
(542,977,o),
(525,945,o),
(505,910,cs),
(478,862,o),
(442,832,o),
(398,832,cs),
(354,832,o),
(318,862,o),
(291,910,cs),
(271,945,o),
(254,977,o),
(241,1002,cs),
(223,1040,o),
(209,1059,o),
(224,1075,cs),
(243,1093,o),
(268,1075,o),
(302,1051,c),
(355,1012,ls),
(379,995,o),
(388,986,o),
(398,986,cs)
);
}
);
width = 828;
}
);
unicode = 356;
},
{
glyphname = Tcommaaccent;
lastChange = "2023-11-15 11:16:44 +0000";
layers = (
{
anchors = (
{
name = bottom;
pos = (453,-39);
}
);
layerId = "49F060A0-2273-4F54-8B81-08E0B15B03EC";
shapes = (
{
ref = T;
},
{
closed = 1;
nodes = (
(423,-225,o),
(370,-250,o),
(326,-256,cs),
(296,-260,o),
(267,-258,o),
(254,-233,cs),
(238,-201,o),
(258,-177,o),
(298,-157,cs),
(363,-124,o),
(368,-71,o),
(414,-45,cs),
(444,-28,o),
(479,-33,o),
(504,-66,cs),
(535,-107,o),
(516,-155,o),
(463,-195,cs)
);
}
);
width = 828;
}
);
unicode = 538;
},
{
color = 10;
glyphname = U;
lastChange = "2023-11-12 03:38:31 +0000";
layers = (
{
layerId = "49F060A0-2273-4F54-8B81-08E0B15B03EC";
shapes = (
{
closed = 1;
nodes = (
(703,-12,o),
(873,202,o),
(873,457,cs),
(873,686,o),
(795,800,o),
(652,800,cs),
(597,800,o),
(506,764,o),
(506,659,cs),
(506,615,o),
(531,523,o),
(560,433,cs),
(577,380,o),
(602,298,o),
(602,231,cs),
(602,136,o),
(553,96,o),
(454,96,cs),
(355,96,o),
(306,136,o),
(306,231,cs),
(306,298,o),
(331,380,o),
(348,433,cs),
(377,523,o),
(402,615,o),
(402,659,cs),
(402,764,o),
(311,800,o),
(256,800,cs),
(113,800,o),
(35,686,o),
(35,457,cs),
(35,202,o),
(205,-12,o),
(454,-12,cs)
);
}
);
width = 897;
}
);
unicode = 85;
},
{
glyphname = Uacute;
lastChange = "2023-11-14 18:45:24 +0000";
layers = (
{
anchors = (
{
name = top;
pos = (521,957);
}
);
layerId = "49F060A0-2273-4F54-8B81-08E0B15B03EC";
shapes = (
{
ref = U;
},
{
closed = 1;
nodes = (
(516,891,o),
(463,866,o),
(419,860,cs),
(389,856,o),
(360,858,o),
(347,883,cs),
(331,915,o),
(351,939,o),
(391,959,cs),
(456,992,o),
(461,1045,o),
(507,1071,cs),
(537,1088,o),
(572,1083,o),
(597,1050,cs),
(628,1009,o),
(609,961,o),
(556,921,cs)
);
}
);
width = 897;
}
);
unicode = 218;
},
{
glyphname = Ubreve;
lastChange = "2023-11-02 16:40:40 +0000";
layers = (
{
anchors = (
{
name = _top;
pos = (448,1040);
}
);
layerId = "49F060A0-2273-4F54-8B81-08E0B15B03EC";
shapes = (
{
ref = U;
},
{
closed = 1;
nodes = (
(340,851,o),
(274,859,o),
(246,937,cs),
(228,987,o),
(237,1035,o),
(284,1050,cs),
(309,1058,o),
(336,1054,o),
(347,1021,cs),
(352,1007,o),
(354,985,o),
(359,967,cs),
(377,902,o),
(396,887,o),
(445,887,cs),
(486,887,o),
(511,900,o),
(529,967,cs),
(536,992,o),
(537,1008,o),
(541,1021,cs),
(551,1054,o),
(579,1057,o),
(603,1050,cs),
(651,1036,o),
(660,987,o),
(642,936,cs),
(615,859,o),
(550,851,o),
(445,851,c)
);
}
);
width = 892;
}
);
unicode = 364;
},
{
glyphname = Ucircumflex;
lastChange = "2023-11-15 10:52:01 +0000";
layers = (
{
anchors = (
{
name = top;
pos = (443,1076);
}
);
layerId = "49F060A0-2273-4F54-8B81-08E0B15B03EC";
shapes = (
{
ref = U;
},
{
closed = 1;
nodes = (
(433,927,o),
(424,918,o),
(400,901,cs),
(347,862,l),
(313,838,o),
(288,820,o),
(269,838,cs),
(254,854,o),
(268,873,o),
(286,911,cs),
(299,936,o),
(316,968,o),
(336,1003,cs),
(363,1051,o),
(399,1081,o),
(443,1081,cs),
(487,1081,o),
(523,1051,o),
(550,1003,cs),
(570,968,o),
(587,936,o),
(600,911,cs),
(618,873,o),
(632,854,o),
(617,838,cs),
(598,820,o),
(573,838,o),
(539,862,cs),
(526,872,o),
(502,890,o),
(481,905,cs),
(463,918,o),
(453,927,o),
(443,927,cs)
);
}
);
width = 897;
}
);
unicode = 219;
},
{
glyphname = Udieresis;
lastChange = "2023-11-14 20:39:18 +0000";
layers = (
{
anchors = (
{
name = top;
pos = (444,1078);
}
);
layerId = "49F060A0-2273-4F54-8B81-08E0B15B03EC";
shapes = (
{
ref = U;
},
{
closed = 1;
nodes = (
(270,961,o),
(300,932,o),
(346,932,cs),
(392,932,o),
(422,961,o),
(422,1006,cs),
(422,1050,o),
(392,1078,o),
(346,1078,cs),
(300,1078,o),
(270,1050,o),
(270,1006,cs)
);
},
{
closed = 1;
nodes = (
(466,961,o),
(496,932,o),
(542,932,cs),
(588,932,o),
(618,961,o),
(618,1006,cs),
(618,1050,o),
(588,1078,o),
(542,1078,cs),
(496,1078,o),
(466,1050,o),
(466,1006,cs)
);
}
);
width = 897;
}
);
unicode = 220;
},
{
glyphname = Ugrave;
lastChange = "2023-11-14 18:45:54 +0000";
layers = (
{
anchors = (
{
name = "new anchor";
pos = (399,1077);
}
);
layerId = "49F060A0-2273-4F54-8B81-08E0B15B03EC";
shapes = (
{
ref = U;
},
{
closed = 1;
nodes = (
(310,961,o),
(291,1009,o),
(322,1050,cs),
(347,1083,o),
(382,1088,o),
(412,1071,cs),
(458,1045,o),
(463,992,o),
(528,959,cs),
(568,939,o),
(588,915,o),
(572,883,cs),
(559,858,o),
(530,856,o),
(500,860,cs),
(456,866,o),
(403,891,o),
(363,921,cs)
);
}
);
width = 892;
}
);
unicode = 217;
},
{
glyphname = Uhungarumlaut;
lastChange = "2023-11-15 11:15:48 +0000";
layers = (
{
anchors = (
{
name = top;
pos = (451,1076);
}
);
layerId = "49F060A0-2273-4F54-8B81-08E0B15B03EC";
shapes = (
{
ref = U;
},
{
closed = 1;
nodes = (
(478,1040,o),
(481,1001,o),
(439,955,cs),
(403,915,o),
(365,889,o),
(344,875,cs),
(295,843,o),
(273,838,o),
(256,852,cs),
(240,867,o),
(243,890,o),
(270,942,cs),
(282,964,o),
(304,1005,o),
(340,1045,cs),
(381,1091,o),
(420,1092,o),
(449,1066,cs)
);
},
{
closed = 1;
nodes = (
(684,1040,o),
(686,1001,o),
(645,955,cs),
(609,915,o),
(570,889,o),
(550,875,cs),
(501,843,o),
(478,837,o),
(462,852,cs),
(445,867,o),
(449,889,o),
(476,942,cs),
(487,964,o),
(509,1004,o),
(545,1045,cs),
(587,1091,o),
(626,1092,o),
(655,1066,cs)
);
}
);
width = 897;
}
);
unicode = 368;
},
{
glyphname = Umacron;
lastChange = "2023-11-15 11:23:11 +0000";
layers = (
{
anchors = (
{
name = top;
pos = (406,1082);
}
);
layerId = "49F060A0-2273-4F54-8B81-08E0B15B03EC";
shapes = (
{
ref = U;
},
{
closed = 1;
nodes = (
(244,918,o),
(206,951,o),
(206,998,cs),
(206,1043,o),
(242,1079,o),
(370,1079,cs),
(477,1079,o),
(562,1065,o),
(584,1061,cs),
(670,1044,o),
(697,1029,o),
(697,1003,cs),
(697,977,o),
(667,957,o),
(590,941,cs),
(554,933,o),
(468,918,o),
(374,918,cs)
);
}
);
width = 897;
}
);
unicode = 362;
},
{
glyphname = Uogonek;
lastChange = "2023-11-15 13:55:18 +0000";
layers = (
{
anchors = (
{
name = bottom;
pos = (474,-15);
}
);
layerId = "49F060A0-2273-4F54-8B81-08E0B15B03EC";
shapes = (
{
ref = U;
},
{
closed = 1;
nodes = (
(513,-185,o),
(524,-177,o),
(524,-165,cs),
(524,-153,o),
(513,-146,o),
(496,-146,cs),
(468,-146,o),
(452,-136,o),
(452,-116,cs),
(452,-103,o),
(465,-92,o),
(476,-83,cs),
(497,-65,o),
(507,-43,o),
(482,-19,cs),
(463,-1,o),
(428,-8,o),
(402,-37,cs),
(365,-79,o),
(371,-132,o),
(408,-165,cs),
(431,-186,o),
(459,-193,o),
(497,-187,c)
);
}
);
width = 897;
}
);
unicode = 370;
},
{
glyphname = Uring;
lastChange = "2023-11-15 12:51:13 +0000";
layers = (
{
anchors = (
{
name = top;
pos = (454,1081);
}
);
layerId = "49F060A0-2273-4F54-8B81-08E0B15B03EC";
shapes = (
{
ref = U;
},
{
closed = 1;
nodes = (
(515,848,o),
(568,899,o),
(568,966,cs),
(568,1030,o),
(515,1081,o),
(454,1081,cs),
(393,1081,o),
(337,1030,o),
(337,965,cs),
(337,899,o),
(393,848,o),
(452,848,cs)
);
},
{
closed = 1;
nodes = (
(427,882,o),
(410,905,o),
(410,935,cs),
(410,966,o),
(427,989,o),
(452,989,cs),
(478,989,o),
(495,966,o),
(495,935,cs),
(495,905,o),
(478,882,o),
(452,882,cs)
);
}
);
width = 897;
}
);
unicode = 366;
},
{
color = 10;
glyphname = V;
lastChange = "2023-11-12 03:47:42 +0000";
layers = (
{
layerId = "49F060A0-2273-4F54-8B81-08E0B15B03EC";
shapes = (
{
closed = 1;
nodes = (
(271,-17,o),
(110,216,o),
(51,435,cs),
(-12,668,o),
(73,793,o),
(211,793,cs),
(283,793,o),
(372,762,o),
(372,656,cs),
(372,599,o),
(348,501,o),
(348,423,cs),
(348,335,o),
(358,203,o),
(376,151,cs),
(387,119,o),
(406,96,o),
(435,96,cs),
(466,96,o),
(485,119,o),
(496,151,cs),
(514,203,o),
(524,335,o),
(524,423,cs),
(524,501,o),
(500,599,o),
(500,656,cs),
(500,762,o),
(589,793,o),
(661,793,cs),
(799,793,o),
(884,668,o),
(821,435,cs),
(762,216,o),
(601,-17,o),
(436,-17,cs)
);
}
);
width = 872;
},
{
associatedMasterId = "49F060A0-2273-4F54-8B81-08E0B15B03EC";
layerId = "7F796A00-EECF-4D6F-B602-CD86FD9445B2";
name = "3 Nov 23 at 01:24";
shapes = (
{
closed = 1;
nodes = (
(271,-17,o),
(110,216,o),
(51,435,cs),
(-12,668,o),
(73,793,o),
(211,793,cs),
(283,793,o),
(372,762,o),
(372,656,cs),
(372,599,o),
(348,501,o),
(348,423,cs),
(348,335,o),
(358,203,o),
(376,151,cs),
(387,119,o),
(406,96,o),
(435,96,cs),
(466,96,o),
(485,119,o),
(496,151,cs),
(514,203,o),
(524,335,o),
(524,423,cs),
(524,501,o),
(500,599,o),
(500,656,cs),
(500,762,o),
(589,793,o),
(661,793,cs),
(799,793,o),
(884,668,o),
(821,435,cs),
(762,216,o),
(601,-17,o),
(436,-17,cs)
);
}
);
width = 872;
}
);
unicode = 86;
},
{
color = 10;
glyphname = W;
lastChange = "2023-11-12 04:42:23 +0000";
layers = (
{
layerId = "49F060A0-2273-4F54-8B81-08E0B15B03EC";
shapes = (
{
closed = 1;
nodes = (
(388,313,o),
(384,372,o),
(387,405,cs),
(392,541,o),
(425,600,o),
(491,600,cs),
(557,600,o),
(590,541,o),
(595,405,cs),
(598,372,o),
(595,313,o),
(599,283,cs),
(601,272,o),
(606,245,o),
(632,245,cs),
(659,245,o),
(666,272,o),
(669,281,cs),
(677,311,o),
(678,337,o),
(663,424,cs),
(649,501,o),
(600,592,o),
(600,673,cs),
(600,764,o),
(654,811,o),
(740,811,cs),
(873,811,o),
(957,729,o),
(957,487,cs),
(957,261,o),
(797,-11,o),
(630,-15,cs),
(574,-16,o),
(543,10,o),
(539,67,cs),
(537,95,o),
(533,266,o),
(533,273,cs),
(533,318,o),
(523,350,o),
(492,350,cs),
(461,350,o),
(451,315,o),
(451,273,cs),
(451,255,o),
(447,95,o),
(445,67,cs),
(441,10,o),
(410,-15,o),
(354,-15,cs),
(185,-16,o),
(25,261,o),
(25,487,cs),
(25,729,o),
(109,811,o),
(242,811,cs),
(328,811,o),
(382,764,o),
(382,673,cs),
(382,592,o),
(333,501,o),
(319,424,cs),
(304,337,o),
(305,311,o),
(313,281,cs),
(316,272,o),
(323,245,o),
(350,245,cs),
(376,245,o),
(382,272,o),
(383,283,c)
);
}
);
width = 982;
}
);
unicode = 87;
},
{
glyphname = Wacute;
lastChange = "2023-11-14 19:26:27 +0000";
layers = (
{
layerId = "49F060A0-2273-4F54-8B81-08E0B15B03EC";
shapes = (
{
ref = W;
},
{
closed = 1;
nodes = (
(556,890,o),
(503,865,o),
(459,859,cs),
(429,855,o),
(400,857,o),
(387,882,cs),
(371,914,o),
(391,938,o),
(431,958,cs),
(496,991,o),
(501,1044,o),
(547,1070,cs),
(577,1087,o),
(612,1082,o),
(637,1049,cs),
(668,1008,o),
(649,960,o),
(596,920,cs)
);
}
);
width = 982;
}
);
unicode = 7810;
},
{
glyphname = Wcircumflex;
lastChange = "2023-11-15 10:49:06 +0000";
layers = (
{
anchors = (
{
name = top;
pos = (483,1082);
}
);
layerId = "49F060A0-2273-4F54-8B81-08E0B15B03EC";
shapes = (
{
ref = W;
},
{
closed = 1;
nodes = (
(473,929,o),
(464,920,o),
(440,903,cs),
(387,864,l),
(353,840,o),
(328,822,o),
(309,840,cs),
(294,856,o),
(308,875,o),
(326,913,cs),
(339,938,o),
(356,970,o),
(376,1005,cs),
(403,1053,o),
(439,1083,o),
(483,1083,cs),
(527,1083,o),
(563,1053,o),
(590,1005,cs),
(610,970,o),
(627,938,o),
(640,913,cs),
(658,875,o),
(672,856,o),
(657,840,cs),
(638,822,o),
(613,840,o),
(579,864,cs),
(566,874,o),
(542,892,o),
(521,907,cs),
(503,920,o),
(493,929,o),
(483,929,cs)
);
}
);
width = 924;
}
);
unicode = 372;
},
{
glyphname = Wdieresis;
lastChange = "2023-11-15 12:11:00 +0000";
layers = (
{
anchors = (
{
name = top;
pos = (488,1077);
}
);
layerId = "49F060A0-2273-4F54-8B81-08E0B15B03EC";
shapes = (
{
ref = W;
},
{
closed = 1;
nodes = (
(314,961,o),
(344,932,o),
(390,932,cs),
(436,932,o),
(466,961,o),
(466,1006,cs),
(466,1050,o),
(436,1078,o),
(390,1078,cs),
(344,1078,o),
(314,1050,o),
(314,1006,cs)
);
},
{
closed = 1;
nodes = (
(510,961,o),
(540,932,o),
(586,932,cs),
(632,932,o),
(662,961,o),
(662,1006,cs),
(662,1050,o),
(632,1078,o),
(586,1078,cs),
(540,1078,o),
(510,1050,o),
(510,1006,cs)
);
}
);
width = 982;
}
);
unicode = 7812;
},
{
glyphname = Wgrave;
lastChange = "2023-11-14 19:27:13 +0000";
layers = (
{
layerId = "49F060A0-2273-4F54-8B81-08E0B15B03EC";
shapes = (
{
ref = W;
},
{
closed = 1;
nodes = (
(369,960,o),
(350,1008,o),
(381,1049,cs),
(406,1082,o),
(441,1087,o),
(471,1070,cs),
(517,1044,o),
(522,991,o),
(587,958,cs),
(627,938,o),
(647,914,o),
(631,882,cs),
(618,857,o),
(589,855,o),
(559,859,cs),
(515,865,o),
(462,890,o),
(422,920,cs)
);
}
);
width = 982;
}
);
unicode = 7808;
},
{
color = 10;
glyphname = X;
lastChange = "2023-11-13 14:38:45 +0000";
layers = (
{
layerId = "49F060A0-2273-4F54-8B81-08E0B15B03EC";
shapes = (
{
closed = 0;
nodes = (
(-510,805,l)
);
},
{
closed = 0;
nodes = (
(473,169,l)
);
},
{
closed = 1;
nodes = (
(464,178,o),
(469,175,o),
(473,169,cs),
(498,131,o),
(510,119,o),
(538,93,cs),
(610,29,o),
(701,-5,o),
(784,-15,cs),
(831,-21,o),
(857,-15,o),
(869,5,cs),
(881,23,o),
(881,50,o),
(851,75,cs),
(816,104,o),
(748,123,o),
(685,191,cs),
(658,220,o),
(632,259,o),
(632,303,cs),
(632,352,o),
(663,402,o),
(748,421,cs),
(842,443,o),
(908,506,o),
(908,606,cs),
(908,728,o),
(811,805,o),
(713,805,cs),
(632,805,o),
(563,753,o),
(528,704,cs),
(519,692,o),
(503,668,o),
(495,645,cs),
(488,625,o),
(487,616,o),
(486,605,cs),
(485,590,o),
(473,581,o),
(459,581,cs),
(445,581,o),
(433,590,o),
(432,605,cs),
(431,616,o),
(430,625,o),
(423,645,cs),
(415,668,o),
(399,692,o),
(390,704,cs),
(355,753,o),
(286,805,o),
(205,805,cs),
(107,805,o),
(10,728,o),
(10,606,cs),
(10,506,o),
(76,443,o),
(170,421,cs),
(255,402,o),
(286,352,o),
(286,303,cs),
(286,259,o),
(260,220,o),
(233,191,cs),
(170,123,o),
(102,104,o),
(67,75,cs),
(37,50,o),
(37,23,o),
(49,5,cs),
(61,-15,o),
(87,-21,o),
(134,-15,cs),
(217,-5,o),
(308,29,o),
(380,93,cs),
(408,119,o),
(420,131,o),
(445,169,cs),
(449,175,o),
(454,178,o),
(459,178,cs)
);
}
);
width = 918;
}
);
unicode = 88;
},
{
color = 10;
glyphname = Y;
lastChange = "2023-11-12 07:08:58 +0000";
layers = (
{
guides = (
{
pos = (306,-79);
}
);
layerId = "49F060A0-2273-4F54-8B81-08E0B15B03EC";
shapes = (
{
closed = 1;
nodes = (
(364,180,o),
(382,162,o),
(382,139,cs),
(382,116,o),
(364,90,o),
(325,90,cs),
(277,90,o),
(220,96,o),
(207,96,cs),
(161,96,o),
(141,77,o),
(141,48,cs),
(141,19,o),
(160,5,o),
(191,-2,cs),
(212,-7,o),
(269,-16,o),
(325,-16,cs),
(545,-16,o),
(649,237,o),
(679,377,cs),
(746,687,o),
(652,810,o),
(531,810,cs),
(478,810,o),
(412,786,o),
(412,703,cs),
(412,658,o),
(431,562,o),
(431,467,cs),
(431,426,o),
(423,364,o),
(409,322,cs),
(400,296,o),
(384,280,o),
(359,280,cs),
(333,280,o),
(317,299,o),
(309,322,cs),
(295,363,o),
(286,416,o),
(286,467,cs),
(286,549,o),
(305,659,o),
(305,703,cs),
(305,787,o),
(237,810,o),
(186,810,cs),
(80,810,o),
(20,712,o),
(20,559,cs),
(20,333,o),
(155,180,o),
(331,181,c)
);
}
);
width = 738;
}
);
unicode = 89;
},
{
glyphname = Yacute;
lastChange = "2023-11-14 18:52:17 +0000";
layers = (
{
anchors = (
{
name = top;
pos = (492,1058);
}
);
layerId = "49F060A0-2273-4F54-8B81-08E0B15B03EC";
shapes = (
{
ref = Y;
},
{
closed = 1;
nodes = (
(409,891,o),
(356,866,o),
(312,860,cs),
(282,856,o),
(253,858,o),
(240,883,cs),
(224,915,o),
(244,939,o),
(284,959,cs),
(349,992,o),
(354,1045,o),
(400,1071,cs),
(430,1088,o),
(465,1083,o),
(490,1050,cs),
(521,1009,o),
(502,961,o),
(449,921,cs)
);
}
);
width = 738;
}
);
unicode = 221;
},
{
glyphname = Ycircumflex;
lastChange = "2023-11-15 10:40:40 +0000";
layers = (
{
anchors = (
{
name = top;
pos = (354,1078);
}
);
layerId = "49F060A0-2273-4F54-8B81-08E0B15B03EC";
shapes = (
{
ref = Y;
},
{
closed = 1;
nodes = (
(340,928,o),
(330,920,o),
(307,902,cs),
(307,902,o),
(279,881,o),
(254,863,cs),
(220,839,o),
(195,821,o),
(176,839,cs),
(161,855,o),
(175,874,o),
(193,912,cs),
(206,937,o),
(223,969,o),
(243,1004,cs),
(270,1052,o),
(306,1082,o),
(350,1082,cs),
(394,1082,o),
(430,1052,o),
(457,1004,cs),
(477,969,o),
(494,937,o),
(507,912,cs),
(525,874,o),
(539,855,o),
(524,839,cs),
(505,821,o),
(480,839,o),
(446,863,cs),
(421,881,o),
(393,902,o),
(393,902,cs),
(370,920,o),
(359,928,o),
(350,928,cs)
);
}
);
width = 738;
}
);
unicode = 374;
},
{
glyphname = Ydieresis;
lastChange = "2023-11-14 20:22:05 +0000";
layers = (
{
anchors = (
{
name = top;
pos = (364,1080);
}
);
layerId = "49F060A0-2273-4F54-8B81-08E0B15B03EC";
shapes = (
{
ref = Y;
},
{
closed = 1;
nodes = (
(190,965,o),
(220,936,o),
(266,936,cs),
(312,936,o),
(342,965,o),
(342,1010,cs),
(342,1054,o),
(312,1082,o),
(266,1082,cs),
(220,1082,o),
(190,1054,o),
(190,1010,cs)
);
},
{
closed = 1;
nodes = (
(386,965,o),
(416,936,o),
(462,936,cs),
(508,936,o),
(538,965,o),
(538,1010,cs),
(538,1054,o),
(508,1082,o),
(462,1082,cs),
(416,1082,o),
(386,1054,o),
(386,1010,cs)
);
}
);
width = 738;
}
);
unicode = 376;
},
{
glyphname = Ygrave;
lastChange = "2023-11-14 18:52:42 +0000";
layers = (
{
layerId = "49F060A0-2273-4F54-8B81-08E0B15B03EC";
shapes = (
{
ref = Y;
},
{
closed = 1;
nodes = (
(232,961,o),
(213,1009,o),
(244,1050,cs),
(269,1083,o),
(304,1088,o),
(334,1071,cs),
(380,1045,o),
(385,992,o),
(450,959,cs),
(490,939,o),
(510,915,o),
(494,883,cs),
(481,858,o),
(452,856,o),
(422,860,cs),
(378,866,o),
(325,891,o),
(285,921,cs)
);
}
);
width = 738;
}
);
unicode = 7922;
},
{
color = 10;
glyphname = Z;
lastChange = "2023-11-13 14:46:39 +0000";
layers = (
{
layerId = "49F060A0-2273-4F54-8B81-08E0B15B03EC";
shapes = (
{
closed = 1;
nodes = (
(421,93,o),
(349,89,o),
(349,109,cs),
(349,119,o),
(357,124,o),
(373,132,cs),
(501,192,o),
(581,244,o),
(652,348,cs),
(694,410,o),
(706,487,o),
(706,537,cs),
(706,688,o),
(597,810,o),
(360,810,cs),
(160,810,o),
(20,725,o),
(20,584,cs),
(20,498,o),
(74,428,o),
(163,428,cs),
(227,428,o),
(298,465,o),
(362,465,cs),
(420,465,o),
(454,436,o),
(454,390,cs),
(454,364,o),
(443,348,o),
(426,330,cs),
(400,303,o),
(378,291,o),
(342,271,cs),
(168,174,o),
(145,139,o),
(145,94,cs),
(145,-2,o),
(252,-16,o),
(384,-16,cs),
(483,-16,o),
(526,-8,o),
(542,-4,cs),
(572,4,o),
(593,18,o),
(593,46,cs),
(593,76,o),
(569,97,o),
(526,97,cs),
(510,97,o),
(454,94,o),
(437,93,cs)
);
}
);
width = 721;
}
);
unicode = 90;
},
{
glyphname = Zacute;
lastChange = "2023-11-14 18:51:02 +0000";
layers = (
{
layerId = "49F060A0-2273-4F54-8B81-08E0B15B03EC";
shapes = (
{
ref = Z;
},
{
closed = 1;
nodes = (
(405,891,o),
(352,866,o),
(308,860,cs),
(278,856,o),
(249,858,o),
(236,883,cs),
(220,915,o),
(240,939,o),
(280,959,cs),
(345,992,o),
(350,1045,o),
(396,1071,cs),
(426,1088,o),
(461,1083,o),
(486,1050,cs),
(517,1009,o),
(498,961,o),
(445,921,cs)
);
}
);
width = 721;
}
);
unicode = 377;
},
{
glyphname = Zcaron;
lastChange = "2023-11-15 10:56:45 +0000";
layers = (
{
anchors = (
{
name = top;
pos = (356,1082);
}
);
layerId = "49F060A0-2273-4F54-8B81-08E0B15B03EC";
shapes = (
{
ref = Z;
},
{
closed = 1;
nodes = (
(373,985,o),
(383,994,o),
(401,1007,cs),
(422,1022,o),
(446,1040,o),
(459,1050,cs),
(493,1074,o),
(518,1092,o),
(537,1074,cs),
(552,1058,o),
(538,1039,o),
(520,1001,cs),
(507,976,o),
(490,944,o),
(470,909,cs),
(443,861,o),
(407,831,o),
(363,831,cs),
(319,831,o),
(283,861,o),
(256,909,cs),
(236,944,o),
(219,976,o),
(206,1001,cs),
(188,1039,o),
(174,1058,o),
(189,1074,cs),
(208,1092,o),
(233,1074,o),
(267,1050,c),
(320,1011,ls),
(344,994,o),
(353,985,o),
(363,985,cs)
);
}
);
width = 721;
}
);
unicode = 381;
},
{
glyphname = Zdotaccent;
lastChange = "2023-11-15 14:04:17 +0000";
layers = (
{
anchors = (
{
name = top;
pos = (333,1076);
}
);
layerId = "49F060A0-2273-4F54-8B81-08E0B15B03EC";
shapes = (
{
ref = Z;
},
{
closed = 1;
nodes = (
(263,965,o),
(293,936,o),
(339,936,cs),
(385,936,o),
(415,965,o),
(415,1010,cs),
(415,1054,o),
(385,1082,o),
(339,1082,cs),
(293,1082,o),
(263,1054,o),
(263,1010,cs)
);
}
);
width = 721;
}
);
unicode = 379;
},
{
color = 10;
glyphname = a;
lastChange = "2023-11-13 15:58:58 +0000";
layers = (
{
layerId = "49F060A0-2273-4F54-8B81-08E0B15B03EC";
shapes = (
{
closed = 1;
nodes = (
(356,136,o),
(327,184,o),
(325,216,cs),
(322,260,o),
(350,272,o),
(387,272,cs),
(426,274,o),
(442,254,o),
(445,233,cs),
(451,192,ls),
(452,185,o),
(453,178,o),
(450,170,cs),
(438,142,o),
(416,136,o),
(395,136,cs)
);
},
{
closed = 1;
nodes = (
(438,541,o),
(434,533,o),
(423,533,cs),
(413,533,o),
(407,541,o),
(401,548,cs),
(367,590,o),
(314,614,o),
(244,614,cs),
(118,614,o),
(36,518,o),
(36,361,cs),
(36,271,o),
(74,165,o),
(135,89,cs),
(182,31,o),
(242,-9,o),
(310,-12,cs),
(363,-14,o),
(410,9,o),
(441,50,cs),
(447,58,o),
(454,65,o),
(464,65,cs),
(475,65,o),
(483,59,o),
(486,50,cs),
(499,10,o),
(519,-14,o),
(554,-14,cs),
(591,-14,o),
(611,14,o),
(625,62,cs),
(652,153,o),
(683,301,o),
(683,447,cs),
(683,554,o),
(623,614,o),
(554,614,c),
(513,614,o),
(473,594,o),
(445,552,cs)
);
}
);
width = 735;
},
{
associatedMasterId = "49F060A0-2273-4F54-8B81-08E0B15B03EC";
backgroundImage = {
imagePath = "Source-Glyphs/Scan 14.png";
locked = 1;
pos = (-329,-812);
scale = (2.3783,2.3783);
};
layerId = "8128A1CE-A9D8-44E1-BBD5-1E38E1A92DE7";
name = "1 Nov 23 at 23:38";
shapes = (
{
closed = 1;
nodes = (
(542,-16,o),
(578,117,o),
(578,263,cs),
(578,491,o),
(491,612,o),
(317,612,cs),
(189,612,o),
(30,546,o),
(30,413,cs),
(30,334,o),
(86,286,o),
(157,286,cs),
(201,286,o),
(246,304,o),
(314,304,cs),
(359,304,o),
(378,296,o),
(378,278,cs),
(378,251,o),
(336,251,o),
(301,251,cs),
(170,251,o),
(91,218,o),
(91,128,cs),
(91,44,o),
(159,-13,o),
(267,-13,cs),
(351,-13,o),
(388,21,o),
(415,81,c),
(435,12,o),
(457,-16,o),
(484,-16,cs)
);
},
{
closed = 1;
nodes = (
(310,85,o),
(302,125,o),
(302,150,cs),
(302,188,o),
(321,193,o),
(393,193,c),
(396,174,o),
(400,143,o),
(404,122,c),
(395,91,o),
(361,85,o),
(347,85,cs)
);
}
);
width = 618;
}
);
unicode = 97;
},
{
glyphname = aacute;
lastChange = "2023-11-15 11:08:11 +0000";
layers = (
{
anchors = (
{
name = top;
pos = (444,889);
}
);
layerId = "49F060A0-2273-4F54-8B81-08E0B15B03EC";
shapes = (
{
ref = a;
},
{
closed = 1;
nodes = (
(423,692,o),
(370,667,o),
(326,661,cs),
(296,657,o),
(267,659,o),
(254,684,cs),
(238,716,o),
(258,740,o),
(298,760,cs),
(363,793,o),
(368,846,o),
(414,872,cs),
(444,889,o),
(479,884,o),
(504,851,cs),
(535,810,o),
(516,762,o),
(463,722,cs)
);
}
);
width = 735;
}
);
unicode = 225;
},
{
glyphname = abreve;
lastChange = "2023-11-15 12:54:38 +0000";
layers = (
{
anchors = (
{
name = top;
pos = (359,884);
}
);
layerId = "49F060A0-2273-4F54-8B81-08E0B15B03EC";
shapes = (
{
ref = a;
},
{
closed = 1;
nodes = (
(251,642,o),
(171,678,o),
(143,745,cs),
(118,807,o),
(137,864,o),
(189,881,cs),
(222,893,o),
(254,877,o),
(265,846,cs),
(271,829,o),
(273,803,o),
(279,781,cs),
(296,720,o),
(333,708,o),
(382,708,cs),
(430,708,o),
(466,720,o),
(483,781,cs),
(491,811,o),
(493,831,o),
(497,846,cs),
(507,877,o),
(538,892,o),
(572,881,cs),
(625,864,o),
(644,807,o),
(619,744,cs),
(591,676,o),
(507,642,o),
(382,642,cs)
);
}
);
width = 735;
}
);
unicode = 259;
},
{
glyphname = acircumflex;
lastChange = "2023-11-15 11:02:49 +0000";
layers = (
{
anchors = (
{
name = top;
pos = (394,881);
}
);
layerId = "49F060A0-2273-4F54-8B81-08E0B15B03EC";
shapes = (
{
ref = a;
},
{
closed = 1;
nodes = (
(381,730,o),
(372,721,o),
(348,704,cs),
(295,665,l),
(261,641,o),
(236,623,o),
(217,641,cs),
(202,657,o),
(216,676,o),
(234,714,cs),
(247,739,o),
(264,771,o),
(284,806,cs),
(311,854,o),
(347,884,o),
(391,884,cs),
(435,884,o),
(471,854,o),
(498,806,cs),
(518,771,o),
(535,739,o),
(548,714,cs),
(566,676,o),
(580,657,o),
(565,641,cs),
(546,623,o),
(521,641,o),
(487,665,cs),
(474,675,o),
(450,693,o),
(429,708,cs),
(411,721,o),
(401,730,o),
(391,730,cs)
);
}
);
width = 735;
}
);
unicode = 226;
},
{
glyphname = adieresis;
lastChange = "2023-11-15 11:06:41 +0000";
layers = (
{
anchors = (
{
name = top;
pos = (379,872);
}
);
layerId = "49F060A0-2273-4F54-8B81-08E0B15B03EC";
shapes = (
{
ref = a;
},
{
closed = 1;
nodes = (
(208,763,o),
(238,734,o),
(284,734,cs),
(330,734,o),
(360,763,o),
(360,808,cs),
(360,852,o),
(330,880,o),
(284,880,cs),
(238,880,o),
(208,852,o),
(208,808,cs)
);
},
{
closed = 1;
nodes = (
(404,763,o),
(434,734,o),
(480,734,cs),
(526,734,o),
(556,763,o),
(556,808,cs),
(556,852,o),
(526,880,o),
(480,880,cs),
(434,880,o),
(404,852,o),
(404,808,cs)
);
}
);
width = 735;
}
);
unicode = 228;
},
{
glyphname = agrave;
lastChange = "2023-11-14 19:28:18 +0000";
layers = (
{
layerId = "49F060A0-2273-4F54-8B81-08E0B15B03EC";
shapes = (
{
ref = a;
},
{
closed = 1;
nodes = (
(236,768,o),
(217,816,o),
(248,857,cs),
(273,890,o),
(308,895,o),
(338,878,cs),
(384,852,o),
(389,799,o),
(454,766,cs),
(494,746,o),
(514,722,o),
(498,690,cs),
(485,665,o),
(456,663,o),
(426,667,cs),
(382,673,o),
(329,698,o),
(289,728,cs)
);
}
);
width = 735;
}
);
unicode = 224;
},
{
glyphname = amacron;
lastChange = "2023-11-15 11:23:37 +0000";
layers = (
{
anchors = (
{
name = top;
pos = (372,873);
}
);
layerId = "49F060A0-2273-4F54-8B81-08E0B15B03EC";
shapes = (
{
ref = a;
},
{
closed = 1;
nodes = (
(181,724,o),
(143,757,o),
(143,804,cs),
(143,849,o),
(179,885,o),
(307,885,cs),
(414,885,o),
(499,871,o),
(521,867,cs),
(607,850,o),
(634,835,o),
(634,809,cs),
(634,783,o),
(604,763,o),
(527,747,cs),
(491,739,o),
(405,724,o),
(311,724,cs)
);
}
);
width = 735;
}
);
unicode = 257;
},
{
glyphname = aogonek;
lastChange = "2023-11-15 13:53:02 +0000";
layers = (
{
anchors = (
{
name = bottom;
pos = (412,-15);
}
);
layerId = "49F060A0-2273-4F54-8B81-08E0B15B03EC";
shapes = (
{
ref = a;
},
{
closed = 1;
nodes = (
(590,-176,o),
(601,-168,o),
(601,-156,cs),
(601,-144,o),
(590,-137,o),
(573,-137,cs),
(545,-137,o),
(529,-127,o),
(529,-107,cs),
(529,-94,o),
(542,-83,o),
(553,-74,cs),
(574,-56,o),
(584,-34,o),
(559,-10,cs),
(540,8,o),
(505,1,o),
(479,-28,cs),
(442,-70,o),
(448,-123,o),
(485,-156,cs),
(508,-177,o),
(536,-184,o),
(574,-178,c)
);
}
);
width = 601;
}
);
unicode = 261;
},
{
glyphname = aring;
lastChange = "2023-11-15 12:50:43 +0000";
layers = (
{
anchors = (
{
name = top;
pos = (401,884);
}
);
layerId = "49F060A0-2273-4F54-8B81-08E0B15B03EC";
shapes = (
{
ref = a;
},
{
closed = 1;
nodes = (
(462,651,o),
(515,702,o),
(515,769,cs),
(515,833,o),
(462,884,o),
(401,884,cs),
(340,884,o),
(284,833,o),
(284,768,cs),
(284,702,o),
(340,651,o),
(399,651,cs)
);
},
{
closed = 1;
nodes = (
(374,685,o),
(357,708,o),
(357,738,cs),
(357,769,o),
(374,792,o),
(399,792,cs),
(425,792,o),
(442,769,o),
(442,738,cs),
(442,708,o),
(425,685,o),
(399,685,cs)
);
}
);
width = 735;
}
);
unicode = 229;
},
{
glyphname = atilde;
lastChange = "2023-11-15 12:52:48 +0000";
layers = (
{
anchors = (
{
name = top;
pos = (292,877);
}
);
layerId = "49F060A0-2273-4F54-8B81-08E0B15B03EC";
shapes = (
{
ref = a;
},
{
closed = 1;
nodes = (
(434,658,o),
(499,643,o),
(564,684,cs),
(624,722,o),
(644,784,o),
(614,834,cs),
(595,862,o),
(561,871,o),
(534,853,cs),
(520,844,o),
(492,817,o),
(478,807,cs),
(455,794,o),
(439,793,o),
(424,805,cs),
(322,884,o),
(257,899,o),
(191,855,cs),
(131,821,o),
(110,757,o),
(141,707,cs),
(159,680,o),
(192,670,o),
(221,689,cs),
(233,697,o),
(263,724,o),
(277,732,cs),
(298,749,o),
(313,749,o),
(330,736,cs)
);
}
);
width = 735;
}
);
unicode = 227;
},
{
glyphname = ae;
lastChange = "2023-11-13 16:02:47 +0000";
layers = (
{
layerId = "49F060A0-2273-4F54-8B81-08E0B15B03EC";
shapes = (
{
closed = 1;
nodes = (
(297,87,o),
(289,129,o),
(289,156,cs),
(289,190,o),
(312,195,o),
(380,195,c),
(383,176,o),
(387,145,o),
(391,124,c),
(381,92,o),
(349,87,o),
(330,87,cs)
);
},
{
closed = 0;
nodes = (
(380,195,l)
);
},
{
closed = 1;
nodes = (
(338,-11,o),
(402,51,o),
(429,111,cs),
(430,114,o),
(445,127,o),
(446,124,c),
(446,179,l),
(516,504,l),
(472,576,o),
(398,614,o),
(284,614,cs),
(120,614,o),
(34,535,o),
(34,416,cs),
(34,336,o),
(73,288,o),
(144,288,cs),
(188,288,o),
(233,306,o),
(301,306,cs),
(346,306,o),
(365,298,o),
(365,280,cs),
(365,253,o),
(323,253,o),
(288,253,cs),
(157,253,o),
(78,220,o),
(78,130,cs),
(78,46,o),
(146,-11,o),
(254,-11,cs)
);
},
{
closed = 1;
nodes = (
(540,252,o),
(542,301,o),
(542,325,c),
(558,328,o),
(570,329,o),
(583,329,cs),
(632,329,o),
(642,319,o),
(642,272,cs),
(642,223,o),
(622,205,o),
(587,205,cs),
(571,205,o),
(550,210,o),
(536,227,c)
);
},
{
closed = 1;
nodes = (
(612,39,o),
(554,98,o),
(536,181,c),
(567,116,o),
(625,91,o),
(686,91,cs),
(826,91,o),
(921,214,o),
(921,349,cs),
(921,488,o),
(843,613,o),
(667,613,cs),
(453,613,o),
(382,424,o),
(382,300,cs),
(382,107,o),
(498,-18,o),
(681,-18,cs),
(732,-18,o),
(786,-9,o),
(818,6,cs),
(873,32,o),
(894,66,o),
(873,92,cs),
(858,110,o),
(828,106,o),
(789,78,cs),
(753,54,o),
(730,39,o),
(690,39,cs)
);
}
);
width = 946;
}
);
unicode = 230;
},
{
color = 10;
glyphname = b;
lastChange = "2023-11-12 22:18:01 +0000";
layers = (
{
hints = (
{
horizontal = 1;
place = (693, 41);
place = (693, 41);
type = Stem;
}
);
layerId = "49F060A0-2273-4F54-8B81-08E0B15B03EC";
shapes = (
{
closed = 1;
nodes = (
(333,134,o),
(311,140,o),
(299,168,cs),
(296,176,o),
(297,183,o),
(298,190,cs),
(304,231,ls),
(307,252,o),
(323,272,o),
(362,270,cs),
(399,270,o),
(427,258,o),
(424,214,cs),
(422,182,o),
(393,134,o),
(354,134,cs)
);
},
{
closed = 1;
nodes = (
(349,737,o),
(283,808,o),
(205,808,cs),
(126,808,o),
(48,737,o),
(48,595,cs),
(48,403,o),
(83,205,o),
(111,84,cs),
(126,21,o),
(149,-16,o),
(192,-16,cs),
(226,-16,o),
(247,7,o),
(262,47,cs),
(266,57,o),
(274,63,o),
(285,63,cs),
(295,63,o),
(302,56,o),
(308,48,cs),
(339,7,o),
(386,-16,o),
(439,-14,cs),
(507,-11,o),
(567,29,o),
(614,87,cs),
(675,163,o),
(713,269,o),
(713,359,cs),
(713,516,o),
(631,612,o),
(505,612,cs),
(459,612,o),
(418,602,o),
(389,581,c),
(383,576,o),
(378,571,o),
(370,571,cs),
(359,571,o),
(349,577,o),
(349,593,cs)
);
}
);
width = 748;
}
);
unicode = 98;
},
{
color = 10;
glyphname = c;
lastChange = "2023-11-15 14:06:44 +0000";
layers = (
{
layerId = "49F060A0-2273-4F54-8B81-08E0B15B03EC";
shapes = (
{
closed = 1;
nodes = (
(589,567,o),
(490,618,o),
(375,618,cs),
(217,618,o),
(30,522,o),
(30,303,cs),
(30,118,o),
(182,-13,o),
(350,-13,cs),
(395,-13,o),
(442,-5,o),
(472,9,cs),
(519,32,o),
(530,61,o),
(519,86,cs),
(511,105,o),
(480,125,o),
(445,103,cs),
(413,80,o),
(393,68,o),
(359,68,cs),
(285,68,o),
(232,125,o),
(232,206,cs),
(232,296,o),
(280,363,o),
(348,363,cs),
(393,363,o),
(425,339,o),
(469,339,cs),
(542,339,o),
(590,399,o),
(589,455,cs)
);
}
);
width = 609;
}
);
unicode = 99;
},
{
glyphname = cacute;
lastChange = "2023-11-14 19:03:17 +0000";
layers = (
{
layerId = "49F060A0-2273-4F54-8B81-08E0B15B03EC";
shapes = (
{
ref = c;
},
{
closed = 1;
nodes = (
(361,697,o),
(308,672,o),
(264,666,cs),
(234,662,o),
(205,664,o),
(192,689,cs),
(176,721,o),
(196,745,o),
(236,765,cs),
(301,798,o),
(306,851,o),
(352,877,cs),
(382,894,o),
(417,889,o),
(442,856,cs),
(473,815,o),
(454,767,o),
(401,727,cs)
);
}
);
width = 609;
}
);
unicode = 263;
},
{
glyphname = ccaron;
lastChange = "2023-11-15 10:55:04 +0000";
layers = (
{
anchors = (
{
name = top;
pos = (307,877);
}
);
layerId = "49F060A0-2273-4F54-8B81-08E0B15B03EC";
shapes = (
{
ref = c;
},
{
closed = 1;
nodes = (
(330,791,o),
(340,800,o),
(358,813,cs),
(379,828,o),
(403,846,o),
(416,856,cs),
(450,880,o),
(475,898,o),
(494,880,cs),
(509,864,o),
(495,845,o),
(477,807,cs),
(464,782,o),
(447,750,o),
(427,715,cs),
(400,667,o),
(364,637,o),
(320,637,cs),
(276,637,o),
(240,667,o),
(213,715,cs),
(193,750,o),
(176,782,o),
(163,807,cs),
(145,845,o),
(131,864,o),
(146,880,cs),
(165,898,o),
(190,880,o),
(224,856,c),
(277,817,ls),
(301,800,o),
(310,791,o),
(320,791,cs)
);
}
);
width = 609;
}
);
unicode = 269;
},
{
glyphname = ccedilla;
lastChange = "2023-11-15 13:48:24 +0000";
layers = (
{
layerId = "49F060A0-2273-4F54-8B81-08E0B15B03EC";
shapes = (
{
ref = c;
},
{
closed = 1;
nodes = (
(403,-106,o),
(402,-93,o),
(398,-81,cs),
(382,-31,o),
(328,-7,o),
(300,-25,cs),
(290,-32,o),
(277,-45,o),
(277,-65,cs),
(277,-80,o),
(285,-88,o),
(295,-93,cs),
(306,-99,o),
(319,-101,o),
(328,-107,cs),
(333,-111,o),
(337,-117,o),
(337,-125,cs),
(337,-135,o),
(326,-143,o),
(301,-143,cs),
(288,-143,o),
(280,-148,o),
(280,-159,cs),
(280,-173,o),
(292,-176,o),
(312,-176,cs),
(329,-176,o),
(350,-174,o),
(366,-168,cs),
(388,-159,o),
(403,-143,o),
(403,-114,c)
);
}
);
width = 609;
}
);
unicode = 231;
},
{
glyphname = cdotaccent;
lastChange = "2023-11-15 14:03:12 +0000";
layers = (
{
anchors = (
{
name = top;
pos = (342,877);
}
);
layerId = "49F060A0-2273-4F54-8B81-08E0B15B03EC";
shapes = (
{
ref = c;
},
{
closed = 1;
nodes = (
(255,766,o),
(285,737,o),
(331,737,cs),
(377,737,o),
(407,766,o),
(407,811,cs),
(407,855,o),
(377,883,o),
(331,883,cs),
(285,883,o),
(255,855,o),
(255,811,cs)
);
}
);
width = 609;
}
);
unicode = 267;
},
{
color = 10;
glyphname = d;
lastChange = "2023-11-12 23:50:50 +0000";
layers = (
{
layerId = "49F060A0-2273-4F54-8B81-08E0B15B03EC";
shapes = (
{
closed = 1;
nodes = (
(361,137,o),
(332,185,o),
(330,217,cs),
(327,261,o),
(355,273,o),
(392,273,cs),
(431,275,o),
(447,255,o),
(450,234,cs),
(456,193,ls),
(457,186,o),
(458,179,o),
(455,171,cs),
(443,143,o),
(421,137,o),
(400,137,cs)
);
},
{
closed = 1;
nodes = (
(405,580,o),
(395,574,o),
(384,574,cs),
(376,574,o),
(371,579,o),
(365,584,c),
(336,605,o),
(295,615,o),
(249,615,cs),
(123,615,o),
(41,519,o),
(41,362,cs),
(41,272,o),
(79,166,o),
(140,90,cs),
(187,32,o),
(247,-8,o),
(315,-11,cs),
(368,-13,o),
(415,10,o),
(446,51,cs),
(452,59,o),
(459,66,o),
(469,66,cs),
(480,66,o),
(488,60,o),
(492,50,cs),
(507,10,o),
(528,-13,o),
(562,-13,cs),
(605,-13,o),
(628,24,o),
(643,87,cs),
(671,208,o),
(706,406,o),
(706,598,cs),
(706,740,o),
(628,811,o),
(549,811,cs),
(471,811,o),
(405,740,o),
(405,596,cs)
);
}
);
width = 769;
}
);
unicode = 100;
},
{
glyphname = dcaron;
lastChange = "2023-11-14 23:09:01 +0000";
layers = (
{
anchors = (
{
name = top;
pos = (811,828);
}
);
layerId = "49F060A0-2273-4F54-8B81-08E0B15B03EC";
shapes = (
{
ref = d;
},
{
closed = 1;
nodes = (
(847,812,o),
(875,785,o),
(875,723,cs),
(875,669,o),
(864,624,o),
(858,600,cs),
(843,543,o),
(830,524,o),
(808,524,cs),
(786,524,o),
(773,543,o),
(758,600,cs),
(752,624,o),
(741,669,o),
(741,723,cs),
(741,785,o),
(769,812,o),
(808,812,cs)
);
}
);
width = 895;
}
);
unicode = 271;
},
{
glyphname = dcroat;
lastChange = "2023-11-15 11:26:24 +0000";
layers = (
{
layerId = "49F060A0-2273-4F54-8B81-08E0B15B03EC";
shapes = (
{
ref = d;
},
{
closed = 1;
nodes = (
(634,583,o),
(720,598,o),
(756,606,cs),
(833,622,o),
(863,642,o),
(863,668,cs),
(863,694,o),
(836,709,o),
(750,726,cs),
(728,730,o),
(643,744,o),
(536,744,cs),
(408,744,o),
(372,708,o),
(372,663,cs),
(372,616,o),
(410,583,o),
(540,583,cs)
);
}
);
width = 769;
}
);
unicode = 273;
},
{
color = 10;
glyphname = e;
lastChange = "2023-11-13 13:16:24 +0000";
layers = (
{
layerId = "49F060A0-2273-4F54-8B81-08E0B15B03EC";
shapes = (
{
closed = 0;
nodes = (
(274,113,l)
);
},
{
closed = 1;
nodes = (
(249,207,o),
(227,213,o),
(215,241,cs),
(212,249,o),
(213,256,o),
(214,263,cs),
(220,304,ls),
(223,325,o),
(239,343,o),
(278,343,cs),
(315,343,o),
(340,333,o),
(340,287,cs),
(340,255,o),
(309,207,o),
(270,207,cs)
);
},
{
closed = 1;
nodes = (
(411,-15,o),
(466,-8,o),
(497,9,cs),
(534,29,o),
(547,56,o),
(537,78,cs),
(529,97,o),
(498,117,o),
(463,95,cs),
(431,72,o),
(411,60,o),
(377,60,cs),
(333,60,o),
(296,80,o),
(274,113,cs),
(270,118,o),
(268,125,o),
(272,129,cs),
(277,134,o),
(283,133,o),
(288,131,cs),
(311,121,o),
(334,116,o),
(359,116,cs),
(499,116,o),
(600,217,o),
(600,352,cs),
(600,491,o),
(522,616,o),
(297,616,cs),
(122,616,o),
(40,515,o),
(40,358,cs),
(40,268,o),
(55,178,o),
(116,102,cs),
(163,44,o),
(246,-15,o),
(369,-15,cs)
);
}
);
width = 634;
}
);
unicode = 101;
},
{
glyphname = eacute;
lastChange = "2023-11-14 19:01:16 +0000";
layers = (
{
anchors = (
{
name = top;
pos = (348,814);
}
);
layerId = "49F060A0-2273-4F54-8B81-08E0B15B03EC";
shapes = (
{
ref = e;
},
{
closed = 1;
nodes = (
(352,700,o),
(299,675,o),
(255,669,cs),
(225,665,o),
(196,667,o),
(183,692,cs),
(167,724,o),
(187,748,o),
(227,768,cs),
(292,801,o),
(297,854,o),
(343,880,cs),
(373,897,o),
(408,892,o),
(433,859,cs),
(464,818,o),
(445,770,o),
(392,730,cs)
);
}
);
width = 634;
}
);
unicode = 233;
},
{
glyphname = ecaron;
lastChange = "2023-11-15 10:54:11 +0000";
layers = (
{
anchors = (
{
name = top;
pos = (300,796);
}
);
layerId = "49F060A0-2273-4F54-8B81-08E0B15B03EC";
shapes = (
{
ref = e;
},
{
closed = 1;
nodes = (
(320,789,o),
(330,798,o),
(348,811,cs),
(369,826,o),
(393,844,o),
(406,854,cs),
(440,878,o),
(465,896,o),
(484,878,cs),
(499,862,o),
(485,843,o),
(467,805,cs),
(454,780,o),
(437,748,o),
(417,713,cs),
(390,665,o),
(354,635,o),
(310,635,cs),
(266,635,o),
(230,665,o),
(203,713,cs),
(183,748,o),
(166,780,o),
(153,805,cs),
(135,843,o),
(121,862,o),
(136,878,cs),
(155,896,o),
(180,878,o),
(214,854,c),
(267,815,ls),
(291,798,o),
(300,789,o),
(310,789,cs)
);
}
);
width = 634;
}
);
unicode = 283;
},
{
glyphname = ecircumflex;
lastChange = "2023-11-15 10:48:45 +0000";
layers = (
{
anchors = (
{
name = top;
pos = (319,884);
}
);
layerId = "49F060A0-2273-4F54-8B81-08E0B15B03EC";
shapes = (
{
ref = e;
},
{
closed = 1;
nodes = (
(309,730,o),
(300,721,o),
(276,704,cs),
(223,665,l),
(189,641,o),
(164,623,o),
(145,641,cs),
(130,657,o),
(144,676,o),
(162,714,cs),
(175,739,o),
(192,771,o),
(212,806,cs),
(239,854,o),
(275,884,o),
(319,884,cs),
(363,884,o),
(399,854,o),
(426,806,cs),
(446,771,o),
(463,739,o),
(476,714,cs),
(494,676,o),
(508,657,o),
(493,641,cs),
(474,623,o),
(449,641,o),
(415,665,cs),
(402,675,o),
(378,693,o),
(357,708,cs),
(339,721,o),
(329,730,o),
(319,730,cs)
);
}
);
width = 634;
}
);
unicode = 234;
},
{
glyphname = edieresis;
lastChange = "2023-11-15 11:05:40 +0000";
layers = (
{
anchors = (
{
name = top;
pos = (322,814);
}
);
layerId = "49F060A0-2273-4F54-8B81-08E0B15B03EC";
shapes = (
{
ref = e;
},
{
closed = 1;
nodes = (
(127,763,o),
(157,734,o),
(203,734,cs),
(249,734,o),
(279,763,o),
(279,808,cs),
(279,852,o),
(249,880,o),
(203,880,cs),
(157,880,o),
(127,852,o),
(127,808,cs)
);
},
{
closed = 1;
nodes = (
(323,763,o),
(353,734,o),
(399,734,cs),
(445,734,o),
(475,763,o),
(475,808,cs),
(475,852,o),
(445,880,o),
(399,880,cs),
(353,880,o),
(323,852,o),
(323,808,cs)
);
}
);
width = 634;
}
);
unicode = 235;
},
{
glyphname = edotaccent;
lastChange = "2023-11-15 11:05:55 +0000";
layers = (
{
anchors = (
{
name = top;
pos = (284,886);
}
);
layerId = "49F060A0-2273-4F54-8B81-08E0B15B03EC";
shapes = (
{
ref = e;
},
{
closed = 1;
nodes = (
(208,769,o),
(238,740,o),
(284,740,cs),
(330,740,o),
(360,769,o),
(360,814,cs),
(360,858,o),
(330,886,o),
(284,886,cs),
(238,886,o),
(208,858,o),
(208,814,cs)
);
}
);
width = 634;
}
);
unicode = 279;
},
{
glyphname = egrave;
lastChange = "2023-11-14 12:22:32 +0000";
layers = (
{
anchors = (
{
name = top;
pos = (269,933);
}
);
layerId = "49F060A0-2273-4F54-8B81-08E0B15B03EC";
shapes = (
{
ref = e;
},
{
closed = 1;
nodes = (
(199,781,o),
(180,829,o),
(211,870,cs),
(236,903,o),
(271,908,o),
(301,891,cs),
(347,865,o),
(352,812,o),
(417,779,cs),
(457,759,o),
(477,735,o),
(461,703,cs),
(448,678,o),
(419,676,o),
(389,680,cs),
(345,686,o),
(292,711,o),
(252,741,cs)
);
}
);
width = 613;
}
);
unicode = 232;
},
{
glyphname = emacron;
lastChange = "2023-11-15 12:11:56 +0000";
layers = (
{
anchors = (
{
name = top;
pos = (301,885);
}
);
layerId = "49F060A0-2273-4F54-8B81-08E0B15B03EC";
shapes = (
{
ref = e;
},
{
closed = 1;
nodes = (
(127,723,o),
(89,756,o),
(89,803,cs),
(89,848,o),
(125,884,o),
(253,884,cs),
(360,884,o),
(445,870,o),
(467,866,cs),
(553,849,o),
(580,834,o),
(580,808,cs),
(580,782,o),
(550,762,o),
(473,746,cs),
(437,738,o),
(351,723,o),
(257,723,cs)
);
}
);
width = 634;
}
);
unicode = 275;
},
{
glyphname = eogonek;
lastChange = "2023-11-15 13:53:37 +0000";
layers = (
{
anchors = (
{
name = bottom;
pos = (454,23);
}
);
layerId = "49F060A0-2273-4F54-8B81-08E0B15B03EC";
shapes = (
{
ref = e;
},
{
closed = 1;
nodes = (
(436,-176,o),
(447,-168,o),
(447,-156,cs),
(447,-144,o),
(436,-137,o),
(419,-137,cs),
(391,-137,o),
(375,-127,o),
(375,-107,cs),
(375,-94,o),
(388,-83,o),
(399,-74,cs),
(420,-56,o),
(430,-34,o),
(405,-10,cs),
(386,8,o),
(351,1,o),
(325,-28,cs),
(288,-70,o),
(294,-123,o),
(331,-156,cs),
(354,-177,o),
(382,-184,o),
(420,-178,c)
);
}
);
width = 634;
}
);
unicode = 281;
},
{
color = 10;
glyphname = f;
lastChange = "2023-11-13 13:16:00 +0000";
layers = (
{
layerId = "49F060A0-2273-4F54-8B81-08E0B15B03EC";
shapes = (
{
closed = 1;
nodes = (
(82,815,o),
(4,736,o),
(4,594,cs),
(4,403,o),
(45,208,o),
(80,89,cs),
(98,26,o),
(124,-11,o),
(175,-11,cs),
(213,-11,o),
(235,21,o),
(235,54,cs),
(235,79,o),
(227,131,o),
(224,149,cs),
(214,220,o),
(220,278,o),
(239,308,cs),
(258,338,o),
(284,354,o),
(325,354,cs),
(347,354,o),
(319,354,o),
(382,354,cs),
(426,354,o),
(450,377,o),
(450,408,cs),
(450,439,o),
(426,462,o),
(382,462,cs),
(319,462,o),
(347,462,o),
(319,462,cs),
(286,462,o),
(277,472,o),
(277,500,cs),
(277,532,o),
(305,556,o),
(342,556,cs),
(365,556,o),
(403,548,o),
(432,548,cs),
(463,548,o),
(520,569,o),
(520,674,cs),
(520,763,o),
(447,815,o),
(309,815,c)
);
}
);
width = 492;
}
);
unicode = 102;
},
{
color = 10;
glyphname = g;
lastChange = "2023-11-13 13:45:34 +0000";
layers = (
{
layerId = "49F060A0-2273-4F54-8B81-08E0B15B03EC";
shapes = (
{
closed = 1;
nodes = (
(374,136,o),
(343,184,o),
(343,216,cs),
(343,260,o),
(368,273,o),
(405,273,cs),
(444,273,o),
(460,254,o),
(463,233,cs),
(469,192,ls),
(470,185,o),
(471,178,o),
(468,170,cs),
(456,142,o),
(434,136,o),
(413,136,cs)
);
},
{
closed = 1;
nodes = (
(392,-183,o),
(420,-199,o),
(457,-199,cs),
(673,-200,o),
(716,117,o),
(716,333,cs),
(716,505,o),
(686,614,o),
(572,614,cs),
(531,614,o),
(491,594,o),
(463,552,cs),
(456,541,o),
(452,533,o),
(441,533,cs),
(431,533,o),
(425,541,o),
(419,548,cs),
(385,590,o),
(332,614,o),
(262,614,cs),
(136,614,o),
(54,518,o),
(54,361,cs),
(54,271,o),
(92,165,o),
(153,89,cs),
(200,31,o),
(260,-11,o),
(328,-11,cs),
(381,-11,o),
(428,9,o),
(456,50,cs),
(462,58,o),
(468,65,o),
(477,65,cs),
(487,65,o),
(497,59,o),
(498,45,cs),
(504,-3,o),
(498,-34,o),
(480,-53,cs),
(459,-75,o),
(429,-79,o),
(412,-73,cs),
(378,-60,o),
(351,-76,o),
(342,-101,cs),
(333,-128,o),
(345,-149,o),
(373,-169,cs)
);
}
);
width = 757;
},
{
associatedMasterId = "49F060A0-2273-4F54-8B81-08E0B15B03EC";
layerId = "E8DB0691-68D0-431B-B1F1-83C4658121A8";
name = "2 Nov 23 at 01:11";
shapes = (
{
closed = 1;
nodes = (
(275,171,o),
(285,180,o),
(323,183,cs),
(342,185,o),
(355,184,o),
(377,182,c),
(381,147,o),
(384,112,o),
(389,81,c),
(371,55,o),
(336,52,o),
(322,53,cs),
(279,56,o),
(271,106,o),
(273,140,cs)
);
},
{
closed = 0;
nodes = (
(399,38,l)
);
},
{
closed = 1;
nodes = (
(423,-41,o),
(350,-78,o),
(322,-78,cs),
(308,-78,o),
(282,-67,o),
(269,-67,cs),
(254,-67,o),
(241,-80,o),
(241,-104,cs),
(241,-148,o),
(284,-200,o),
(364,-200,cs),
(559,-200,o),
(617,112,o),
(617,328,cs),
(617,500,o),
(591,616,o),
(497,616,cs),
(465,616,o),
(441,602,o),
(423,578,c),
(386,602,o),
(339,616,o),
(279,616,cs),
(108,616,o),
(48,505,o),
(31,404,cs),
(19,333,o),
(21,225,o),
(69,133,cs),
(120,35,o),
(203,-2,o),
(281,-2,cs),
(325,-2,o),
(363,9,o),
(399,38,c)
);
},
{
closed = 1;
nodes = (
(275,171,o),
(285,180,o),
(323,183,cs),
(342,185,o),
(355,184,o),
(377,182,c),
(381,147,o),
(384,112,o),
(389,81,c),
(371,55,o),
(336,52,o),
(322,53,cs),
(279,56,o),
(271,106,o),
(273,140,cs)
);
},
{
closed = 0;
nodes = (
(399,38,l)
);
},
{
closed = 1;
nodes = (
(423,-41,o),
(350,-78,o),
(322,-78,cs),
(308,-78,o),
(282,-67,o),
(269,-67,cs),
(254,-67,o),
(241,-80,o),
(241,-104,cs),
(241,-148,o),
(284,-200,o),
(364,-200,cs),
(559,-200,o),
(617,112,o),
(617,328,cs),
(617,500,o),
(591,616,o),
(497,616,cs),
(465,616,o),
(441,602,o),
(423,578,c),
(386,602,o),
(339,616,o),
(279,616,cs),
(108,616,o),
(48,505,o),
(31,404,cs),
(19,333,o),
(21,225,o),
(69,133,cs),
(120,35,o),
(203,-2,o),
(281,-2,cs),
(325,-2,o),
(363,9,o),
(399,38,c)
);
}
);
width = 652;
}
);
unicode = 103;
},
{
glyphname = gbreve;
lastChange = "2023-11-15 12:14:48 +0000";
layers = (
{
anchors = (
{
name = top;
pos = (388,882);
}
);
layerId = "49F060A0-2273-4F54-8B81-08E0B15B03EC";
shapes = (
{
ref = g;
},
{
closed = 1;
nodes = (
(272,642,o),
(192,678,o),
(164,745,cs),
(139,807,o),
(158,864,o),
(210,881,cs),
(243,893,o),
(275,877,o),
(286,846,cs),
(292,829,o),
(294,803,o),
(300,781,cs),
(317,720,o),
(354,708,o),
(403,708,cs),
(451,708,o),
(487,720,o),
(504,781,cs),
(512,811,o),
(514,831,o),
(518,846,cs),
(528,877,o),
(559,892,o),
(593,881,cs),
(646,864,o),
(665,807,o),
(640,744,cs),
(612,676,o),
(528,642,o),
(403,642,cs)
);
}
);
width = 757;
}
);
unicode = 287;
},
{
glyphname = gcommaaccent;
lastChange = "2023-11-14 22:08:01 +0000";
layers = (
{
anchors = (
{
name = top;
pos = (350,882);
}
);
layerId = "49F060A0-2273-4F54-8B81-08E0B15B03EC";
shapes = (
{
ref = g;
},
{
closed = 1;
nodes = (
(436,698,o),
(383,673,o),
(339,667,cs),
(309,663,o),
(280,665,o),
(267,690,cs),
(251,722,o),
(271,746,o),
(311,766,cs),
(376,799,o),
(381,852,o),
(427,878,cs),
(457,895,o),
(492,890,o),
(517,857,cs),
(548,816,o),
(529,768,o),
(476,728,cs)
);
}
);
width = 757;
}
);
unicode = 291;
},
{
color = 10;
glyphname = h;
lastChange = "2023-11-13 02:07:44 +0000";
layers = (
{
layerId = "49F060A0-2273-4F54-8B81-08E0B15B03EC";
shapes = (
{
closed = 1;
nodes = (
(318,247,o),
(333,250,o),
(346,250,cs),
(420,250,o),
(430,159,o),
(430,85,cs),
(430,12,o),
(456,-12,o),
(481,-12,cs),
(557,-12,o),
(714,145,o),
(714,362,cs),
(714,525,o),
(593,612,o),
(506,612,cs),
(453,612,o),
(424,588,o),
(381,549,cs),
(373,542,o),
(368,533,o),
(358,533,cs),
(347,533,o),
(336,539,o),
(336,550,cs),
(336,573,o),
(336,584,o),
(336,595,cs),
(336,737,o),
(267,815,o),
(187,815,cs),
(106,815,o),
(37,737,o),
(37,595,cs),
(37,404,o),
(73,208,o),
(104,89,cs),
(120,26,o),
(144,-11,o),
(187,-11,cs),
(230,-11,o),
(253,26,o),
(269,89,cs),
(277,121,o),
(286,160,o),
(296,205,cs),
(298,214,o),
(300,224,o),
(306,232,cs)
);
}
);
width = 756;
}
);
unicode = 104;
},
{
glyphname = hbar;
lastChange = "2023-11-15 12:56:45 +0000";
layers = (
{
layerId = "49F060A0-2273-4F54-8B81-08E0B15B03EC";
shapes = (
{
closed = 1;
nodes = (
(245,582,o),
(331,597,o),
(367,605,cs),
(444,621,o),
(474,641,o),
(474,667,cs),
(474,693,o),
(447,708,o),
(361,725,cs),
(339,729,o),
(254,743,o),
(147,743,cs),
(19,743,o),
(-17,707,o),
(-17,662,cs),
(-17,615,o),
(21,582,o),
(151,582,cs)
);
},
{
pos = (99,0);
ref = h;
}
);
width = 805;
}
);
unicode = 295;
},
{
color = 10;
glyphname = i;
lastChange = "2023-11-14 09:22:46 +0000";
layers = (
{
layerId = "49F060A0-2273-4F54-8B81-08E0B15B03EC";
shapes = (
{
closed = 1;
nodes = (
(56,628,o),
(106,590,o),
(185,590,cs),
(267,590,o),
(317,628,o),
(317,697,cs),
(317,766,o),
(267,802,o),
(185,802,cs),
(106,802,o),
(56,766,o),
(56,697,cs)
);
},
{
closed = 1;
nodes = (
(116,535,o),
(57,483,o),
(57,388,cs),
(57,260,o),
(88,129,o),
(114,49,cs),
(129,7,o),
(148,-18,o),
(186,-18,cs),
(224,-18,o),
(243,7,o),
(258,49,cs),
(284,129,o),
(315,260,o),
(315,388,cs),
(315,483,o),
(256,535,o),
(186,535,c)
);
}
);
width = 373;
}
);
unicode = 105;
},
{
glyphname = iacute;
lastChange = "2023-11-15 13:06:46 +0000";
layers = (
{
anchors = (
{
name = top;
pos = (217,1071);
}
);
layerId = "49F060A0-2273-4F54-8B81-08E0B15B03EC";
shapes = (
{
ref = i;
},
{
closed = 1;
nodes = (
(221,891,o),
(168,866,o),
(124,860,cs),
(94,856,o),
(65,858,o),
(52,883,cs),
(36,915,o),
(56,939,o),
(96,959,cs),
(161,992,o),
(166,1045,o),
(212,1071,cs),
(242,1088,o),
(277,1083,o),
(302,1050,cs),
(333,1009,o),
(314,961,o),
(261,921,cs)
);
}
);
width = 373;
}
);
unicode = 237;
},
{
glyphname = icircumflex;
lastChange = "2023-11-15 13:08:49 +0000";
layers = (
{
anchors = (
{
name = top;
pos = (187,1076);
}
);
layerId = "49F060A0-2273-4F54-8B81-08E0B15B03EC";
shapes = (
{
ref = i;
},
{
closed = 1;
nodes = (
(181,925,o),
(172,916,o),
(148,899,cs),
(95,860,l),
(61,836,o),
(36,818,o),
(17,836,cs),
(2,852,o),
(16,871,o),
(34,909,cs),
(47,934,o),
(64,966,o),
(84,1001,cs),
(111,1049,o),
(147,1079,o),
(191,1079,cs),
(235,1079,o),
(271,1049,o),
(298,1001,cs),
(318,966,o),
(335,934,o),
(348,909,cs),
(366,871,o),
(380,852,o),
(365,836,cs),
(346,818,o),
(321,836,o),
(287,860,cs),
(274,870,o),
(250,888,o),
(229,903,cs),
(211,916,o),
(201,925,o),
(191,925,cs)
);
}
);
width = 382;
}
);
unicode = 238;
},
{
glyphname = idieresis;
lastChange = "2023-11-15 13:08:31 +0000";
layers = (
{
anchors = (
{
name = top;
pos = (185,1075);
}
);
layerId = "49F060A0-2273-4F54-8B81-08E0B15B03EC";
shapes = (
{
closed = 1;
nodes = (
(116,535,o),
(57,483,o),
(57,388,cs),
(57,260,o),
(88,129,o),
(114,49,cs),
(129,7,o),
(148,-18,o),
(186,-18,cs),
(224,-18,o),
(243,7,o),
(258,49,cs),
(284,129,o),
(315,260,o),
(315,388,cs),
(315,483,o),
(256,535,o),
(186,535,c)
);
},
{
closed = 1;
nodes = (
(11,961,o),
(41,932,o),
(87,932,cs),
(133,932,o),
(163,961,o),
(163,1006,cs),
(163,1050,o),
(133,1078,o),
(87,1078,cs),
(41,1078,o),
(11,1050,o),
(11,1006,cs)
);
},
{
closed = 1;
nodes = (
(207,961,o),
(237,932,o),
(283,932,cs),
(329,932,o),
(359,961,o),
(359,1006,cs),
(359,1050,o),
(329,1078,o),
(283,1078,cs),
(237,1078,o),
(207,1050,o),
(207,1006,cs)
);
},
{
closed = 1;
nodes = (
(56,628,o),
(106,590,o),
(185,590,cs),
(267,590,o),
(317,628,o),
(317,697,cs),
(317,766,o),
(267,802,o),
(185,802,cs),
(106,802,o),
(56,766,o),
(56,697,cs)
);
}
);
width = 370;
}
);
unicode = 239;
},
{
glyphname = idotaccent;
lastChange = "2023-11-15 13:08:12 +0000";
layers = (
{
anchors = (
{
name = top;
pos = (156,1070);
}
);
layerId = "49F060A0-2273-4F54-8B81-08E0B15B03EC";
shapes = (
{
ref = i;
},
{
closed = 1;
nodes = (
(109,961,o),
(139,932,o),
(185,932,cs),
(231,932,o),
(261,961,o),
(261,1006,cs),
(261,1050,o),
(231,1078,o),
(185,1078,cs),
(139,1078,o),
(109,1050,o),
(109,1006,cs)
);
}
);
width = 373;
}
);
},
{
glyphname = igrave;
lastChange = "2023-11-15 13:03:46 +0000";
layers = (
{
anchors = (
{
name = top;
pos = (142,1077);
}
);
layerId = "49F060A0-2273-4F54-8B81-08E0B15B03EC";
shapes = (
{
ref = i;
},
{
closed = 1;
nodes = (
(64,961,o),
(45,1009,o),
(76,1050,cs),
(101,1083,o),
(136,1088,o),
(166,1071,cs),
(212,1045,o),
(217,992,o),
(282,959,cs),
(322,939,o),
(342,915,o),
(326,883,cs),
(313,858,o),
(284,856,o),
(254,860,cs),
(210,866,o),
(157,891,o),
(117,921,cs)
);
}
);
width = 373;
}
);
unicode = 236;
},
{
glyphname = imacron;
lastChange = "2023-11-15 12:22:52 +0000";
layers = (
{
anchors = (
{
name = top;
pos = (187,1080);
}
);
layerId = "49F060A0-2273-4F54-8B81-08E0B15B03EC";
shapes = (
{
ref = i;
},
{
closed = 1;
nodes = (
(-1,918,o),
(-39,951,o),
(-39,998,cs),
(-39,1043,o),
(-3,1079,o),
(125,1079,cs),
(232,1079,o),
(317,1065,o),
(339,1061,cs),
(425,1044,o),
(452,1029,o),
(452,1003,cs),
(452,977,o),
(422,957,o),
(345,941,cs),
(309,933,o),
(223,918,o),
(129,918,cs)
);
}
);
width = 373;
}
);
unicode = 299;
},
{
glyphname = iogonek;
lastChange = "2023-11-15 13:56:52 +0000";
layers = (
{
anchors = (
{
name = bottom;
pos = (165,-19);
}
);
layerId = "49F060A0-2273-4F54-8B81-08E0B15B03EC";
shapes = (
{
ref = i;
},
{
closed = 1;
nodes = (
(248,-176,o),
(259,-168,o),
(259,-156,cs),
(259,-144,o),
(248,-137,o),
(231,-137,cs),
(203,-137,o),
(187,-127,o),
(187,-107,cs),
(187,-94,o),
(200,-83,o),
(211,-74,cs),
(232,-56,o),
(242,-34,o),
(217,-10,cs),
(198,8,o),
(163,1,o),
(137,-28,cs),
(100,-70,o),
(106,-123,o),
(143,-156,cs),
(166,-177,o),
(194,-184,o),
(232,-178,c)
);
}
);
width = 373;
}
);
unicode = 303;
},
{
color = 10;
glyphname = j;
lastChange = "2023-11-13 12:14:42 +0000";
layers = (
{
guides = (
{
pos = (-127,715);
}
);
layerId = "49F060A0-2273-4F54-8B81-08E0B15B03EC";
shapes = (
{
closed = 1;
nodes = (
(122,105,o),
(129,-54,o),
(106,-89,cs),
(93,-110,o),
(49,-116,o),
(18,-116,cs),
(-13,-116,o),
(-27,-139,o),
(-27,-156,cs),
(-27,-186,o),
(-6,-196,o),
(21,-200,cs),
(37,-202,o),
(110,-209,o),
(164,-185,cs),
(271,-137,o),
(353,26,o),
(353,253,cs),
(353,433,o),
(280,532,o),
(181,532,cs),
(113,532,o),
(38,498,o),
(38,420,cs),
(38,371,o),
(67,289,o),
(87,222,cs)
);
},
{
closed = 1;
nodes = (
(51,629,o),
(101,591,o),
(180,591,cs),
(262,591,o),
(312,629,o),
(312,698,cs),
(312,767,o),
(262,803,o),
(180,803,cs),
(101,803,o),
(51,767,o),
(51,698,cs)
);
}
);
width = 388;
}
);
unicode = 106;
},
{
color = 10;
glyphname = k;
lastChange = "2023-11-14 22:20:48 +0000";
layers = (
{
layerId = "49F060A0-2273-4F54-8B81-08E0B15B03EC";
shapes = (
{
closed = 1;
nodes = (
(551,339,o),
(561,348,o),
(556,345,cs),
(599,372,o),
(640,413,o),
(640,464,cs),
(640,517,o),
(596,561,o),
(541,561,cs),
(486,561,o),
(455,515,o),
(441,462,cs),
(438,448,o),
(427,400,o),
(410,363,cs),
(398,337,o),
(365,336,o),
(343,352,cs),
(323,366,o),
(320,393,o),
(329,417,cs),
(350,471,o),
(425,517,o),
(425,618,cs),
(425,724,o),
(348,798,o),
(246,798,cs),
(162,798,o),
(20,728,o),
(20,532,cs),
(20,274,o),
(151,81,o),
(227,14,cs),
(252,-8,o),
(276,-23,o),
(304,-9,cs),
(332,5,o),
(339,37,o),
(329,68,cs),
(319,99,o),
(313,130,o),
(313,147,cs),
(313,167,o),
(323,192,o),
(339,203,cs),
(365,222,o),
(404,220,o),
(431,167,cs),
(454,122,o),
(513,39,o),
(527,24,cs),
(549,0,o),
(605,-32,o),
(647,0,cs),
(672,19,o),
(699,65,o),
(645,116,cs),
(635,125,o),
(619,138,o),
(609,146,cs),
(551,191,o),
(528,237,o),
(515,264,cs),
(504,287,o),
(512,314,o),
(536,329,c)
);
}
);
width = 691;
},
{
associatedMasterId = "49F060A0-2273-4F54-8B81-08E0B15B03EC";
layerId = "A7002D93-2047-4F5D-AC6E-23367EBD1C11";
name = "2 Nov 23 at 06:37";
shapes = (
{
closed = 1;
nodes = (
(221,-14,o),
(258,61,o),
(280,176,c),
(299,194,o),
(324,208,o),
(349,208,cs),
(410,208,o),
(419,125,o),
(419,64,cs),
(419,0,o),
(450,-14,o),
(467,-14,cs),
(522,-14,o),
(595,133,o),
(595,259,cs),
(595,351,o),
(556,393,o),
(510,405,c),
(543,444,o),
(551,488,o),
(545,526,cs),
(541,551,o),
(531,572,o),
(517,591,c),
(502,605,o),
(486,611,o),
(469,611,cs),
(457,611,o),
(446,603,o),
(439,596,cs),
(407,565,o),
(415,491,o),
(375,442,cs),
(353,415,o),
(326,407,o),
(305,407,c),
(306,435,o),
(307,464,o),
(307,501,cs),
(307,707,o),
(275,812,o),
(179,812,cs),
(83,812,o),
(45,706,o),
(45,480,cs),
(45,218,o),
(96,-14,o),
(176,-14,cs)
);
}
);
width = 693;
}
);
unicode = 107;
},
{
glyphname = kcommaaccent;
lastChange = "2023-11-14 22:22:20 +0000";
layers = (
{
anchors = (
{
name = bottom;
pos = (383,-33);
}
);
layerId = "49F060A0-2273-4F54-8B81-08E0B15B03EC";
shapes = (
{
ref = k;
},
{
closed = 1;
nodes = (
(379,-224,o),
(326,-249,o),
(282,-255,cs),
(252,-259,o),
(223,-257,o),
(210,-232,cs),
(194,-200,o),
(214,-176,o),
(254,-156,cs),
(319,-123,o),
(324,-70,o),
(370,-44,cs),
(400,-27,o),
(435,-32,o),
(460,-65,cs),
(491,-106,o),
(472,-154,o),
(419,-194,cs)
);
}
);
width = 691;
}
);
unicode = 311;
},
{
color = 10;
glyphname = l;
lastChange = "2023-10-30 15:06:17 +0000";
layers = (
{
layerId = "49F060A0-2273-4F54-8B81-08E0B15B03EC";
shapes = (
{
closed = 1;
nodes = (
(269,111,l),
(304,226,o),
(325,400,o),
(325,546,cs),
(325,694,o),
(289,814,o),
(183,814,cs),
(76,814,o),
(40,694,o),
(40,546,cs),
(40,305,o),
(88,-13,o),
(210,-12,cs),
(305,-13,o),
(365,33,o),
(365,83,cs),
(365,108,o),
(350,121,o),
(332,121,cs),
(316,121,o),
(290,110,o),
(269,110,c)
);
}
);
width = 365;
}
);
unicode = 108;
},
{
glyphname = lcaron;
lastChange = "2023-11-14 23:09:56 +0000";
layers = (
{
layerId = "49F060A0-2273-4F54-8B81-08E0B15B03EC";
shapes = (
{
ref = l;
},
{
closed = 1;
nodes = (
(462,812,o),
(490,785,o),
(490,723,cs),
(490,669,o),
(479,624,o),
(473,600,cs),
(458,543,o),
(445,524,o),
(423,524,cs),
(401,524,o),
(388,543,o),
(373,600,cs),
(367,624,o),
(356,669,o),
(356,723,cs),
(356,785,o),
(384,812,o),
(423,812,cs)
);
}
);
width = 500;
}
);
unicode = 318;
},
{
glyphname = lcommaaccent;
lastChange = "2023-11-14 23:10:29 +0000";
layers = (
{
layerId = "49F060A0-2273-4F54-8B81-08E0B15B03EC";
shapes = (
{
ref = l;
},
{
closed = 1;
nodes = (
(259,-223,o),
(206,-248,o),
(162,-254,cs),
(132,-258,o),
(103,-256,o),
(90,-231,cs),
(74,-199,o),
(94,-175,o),
(134,-155,cs),
(199,-122,o),
(204,-69,o),
(250,-43,cs),
(280,-26,o),
(315,-31,o),
(340,-64,cs),
(371,-105,o),
(352,-153,o),
(299,-193,cs)
);
}
);
width = 365;
}
);
unicode = 316;
},
{
color = 10;
glyphname = m;
lastChange = "2023-11-13 02:40:05 +0000";
layers = (
{
layerId = "49F060A0-2273-4F54-8B81-08E0B15B03EC";
shapes = (
{
closed = 1;
nodes = (
(545,591,o),
(490,610,o),
(447,610,cs),
(394,610,o),
(365,586,o),
(330,554,cs),
(315,541,o),
(310,532,o),
(300,532,cs),
(289,532,o),
(285,540,o),
(278,551,cs),
(250,593,o),
(210,613,o),
(169,613,cs),
(100,613,o),
(40,553,o),
(40,446,cs),
(40,300,o),
(71,152,o),
(98,61,cs),
(112,13,o),
(132,-15,o),
(169,-15,cs),
(212,-15,o),
(235,22,o),
(251,85,cs),
(259,117,o),
(268,156,o),
(277,197,cs),
(280,210,o),
(282,220,o),
(288,228,cs),
(300,243,o),
(315,246,o),
(328,246,cs),
(402,246,o),
(412,155,o),
(412,81,cs),
(412,8,o),
(438,-16,o),
(463,-16,cs),
(517,-16,o),
(560,64,o),
(594,199,cs),
(596,208,o),
(598,218,o),
(604,226,cs),
(616,241,o),
(631,244,o),
(644,244,cs),
(718,244,o),
(728,153,o),
(728,79,cs),
(728,6,o),
(754,-18,o),
(779,-18,cs),
(855,-18,o),
(977,141,o),
(977,358,cs),
(977,521,o),
(850,608,o),
(763,608,cs),
(710,608,o),
(681,584,o),
(646,552,cs),
(631,539,o),
(626,530,o),
(616,530,cs),
(605,530,o),
(594,539,o),
(585,548,cs)
);
}
);
width = 1009;
}
);
unicode = 109;
},
{
color = 10;
glyphname = n;
lastChange = "2023-11-13 02:31:22 +0000";
layers = (
{
layerId = "49F060A0-2273-4F54-8B81-08E0B15B03EC";
shapes = (
{
closed = 1;
nodes = (
(539,-16,o),
(661,143,o),
(661,360,cs),
(661,523,o),
(534,610,o),
(447,610,cs),
(394,610,o),
(365,586,o),
(330,554,cs),
(315,541,o),
(310,532,o),
(300,532,cs),
(289,532,o),
(285,540,o),
(278,551,cs),
(250,593,o),
(210,613,o),
(169,613,cs),
(100,613,o),
(40,553,o),
(40,446,cs),
(40,300,o),
(71,152,o),
(98,61,cs),
(112,13,o),
(132,-15,o),
(169,-15,cs),
(212,-15,o),
(235,22,o),
(251,85,cs),
(259,117,o),
(268,156,o),
(278,201,cs),
(280,210,o),
(282,220,o),
(288,228,cs),
(300,243,o),
(315,246,o),
(328,246,cs),
(402,246,o),
(412,155,o),
(412,81,cs),
(412,8,o),
(438,-16,o),
(463,-16,c)
);
}
);
width = 693;
}
);
unicode = 110;
},
{
glyphname = nacute;
lastChange = "2023-11-14 19:05:28 +0000";
layers = (
{
layerId = "49F060A0-2273-4F54-8B81-08E0B15B03EC";
shapes = (
{
ref = n;
},
{
closed = 1;
nodes = (
(371,700,o),
(318,675,o),
(274,669,cs),
(244,665,o),
(215,667,o),
(202,692,cs),
(186,724,o),
(206,748,o),
(246,768,cs),
(311,801,o),
(316,854,o),
(362,880,cs),
(392,897,o),
(427,892,o),
(452,859,cs),
(483,818,o),
(464,770,o),
(411,730,cs)
);
}
);
width = 693;
}
);
unicode = 324;
},
{
glyphname = ncaron;
lastChange = "2023-11-15 10:53:35 +0000";
layers = (
{
anchors = (
{
name = top;
pos = (298,786);
}
);
layerId = "49F060A0-2273-4F54-8B81-08E0B15B03EC";
shapes = (
{
ref = n;
},
{
closed = 1;
nodes = (
(315,785,o),
(325,794,o),
(343,807,cs),
(364,822,o),
(388,840,o),
(401,850,cs),
(435,874,o),
(460,892,o),
(479,874,cs),
(494,858,o),
(480,839,o),
(462,801,cs),
(449,776,o),
(432,744,o),
(412,709,cs),
(385,661,o),
(349,631,o),
(305,631,cs),
(261,631,o),
(225,661,o),
(198,709,cs),
(178,744,o),
(161,776,o),
(148,801,cs),
(130,839,o),
(116,858,o),
(131,874,cs),
(150,892,o),
(175,874,o),
(209,850,c),
(262,811,ls),
(286,794,o),
(295,785,o),
(305,785,cs)
);
}
);
width = 697;
}
);
unicode = 328;
},
{
glyphname = ncommaaccent;
lastChange = "2023-11-14 22:09:49 +0000";
layers = (
{
anchors = (
{
name = bottom;
pos = (408,-30);
}
);
layerId = "49F060A0-2273-4F54-8B81-08E0B15B03EC";
shapes = (
{
ref = n;
},
{
closed = 1;
nodes = (
(308,-221,o),
(255,-246,o),
(211,-252,cs),
(181,-256,o),
(152,-254,o),
(139,-229,cs),
(123,-197,o),
(143,-173,o),
(183,-153,cs),
(248,-120,o),
(253,-67,o),
(299,-41,cs),
(329,-24,o),
(364,-29,o),
(389,-62,cs),
(420,-103,o),
(401,-151,o),
(348,-191,cs)
);
}
);
width = 693;
}
);
unicode = 326;
},
{
glyphname = ntilde;
lastChange = "2023-11-15 12:55:40 +0000";
layers = (
{
anchors = (
{
name = top;
pos = (342,887);
}
);
layerId = "49F060A0-2273-4F54-8B81-08E0B15B03EC";
shapes = (
{
ref = n;
},
{
closed = 1;
nodes = (
(385,667,o),
(464,649,o),
(526,687,cs),
(595,730,o),
(612,780,o),
(577,838,cs),
(534,905,o),
(504,858,o),
(440,811,cs),
(416,799,o),
(398,797,o),
(385,807,cs),
(290,882,o),
(211,900,o),
(149,861,cs),
(80,820,o),
(64,769,o),
(100,711,cs),
(120,678,o),
(146,672,o),
(180,691,cs),
(194,700,o),
(222,727,o),
(236,736,cs),
(257,749,o),
(275,751,o),
(290,741,cs)
);
}
);
width = 693;
}
);
unicode = 241;
},
{
glyphname = eng;
lastChange = "2023-11-14 13:06:43 +0000";
layers = (
{
layerId = "49F060A0-2273-4F54-8B81-08E0B15B03EC";
shapes = (
{
closed = 1;
nodes = (
(661,523,o),
(534,610,o),
(447,610,cs),
(394,610,o),
(365,586,o),
(330,554,cs),
(315,541,o),
(310,532,o),
(300,532,cs),
(289,532,o),
(285,540,o),
(278,551,cs),
(250,593,o),
(210,613,o),
(169,613,cs),
(100,613,o),
(40,553,o),
(40,446,cs),
(40,300,o),
(71,152,o),
(98,61,cs),
(112,13,o),
(132,-15,o),
(169,-15,cs),
(212,-15,o),
(235,22,o),
(251,85,cs),
(259,117,o),
(268,156,o),
(278,201,cs),
(280,210,o),
(282,220,o),
(288,228,cs),
(300,243,o),
(315,246,o),
(328,246,cs),
(402,246,o),
(409,155,o),
(413,82,cs),
(418,5,o),
(418,-64,o),
(404,-86,cs),
(391,-107,o),
(347,-113,o),
(316,-113,cs),
(285,-113,o),
(271,-136,o),
(271,-153,cs),
(271,-183,o),
(292,-193,o),
(319,-197,cs),
(335,-199,o),
(408,-206,o),
(462,-182,cs),
(569,-134,o),
(661,29,o),
(661,308,cs)
);
}
);
width = 696;
}
);
unicode = 331;
},
{
color = 10;
glyphname = o;
lastChange = "2023-11-13 14:41:34 +0000";
layers = (
{
layerId = "49F060A0-2273-4F54-8B81-08E0B15B03EC";
shapes = (
{
closed = 1;
nodes = (
(121,616,o),
(32,519,o),
(32,341,cs),
(32,127,o),
(164,-14,o),
(326,-14,cs),
(482,-14,o),
(610,126,o),
(610,339,cs),
(610,518,o),
(521,616,o),
(320,616,cs)
);
},
{
closed = 1;
nodes = (
(281,129,o),
(261,155,o),
(261,201,cs),
(261,247,o),
(281,273,o),
(322,273,cs),
(361,273,o),
(381,247,o),
(381,201,cs),
(381,155,o),
(361,129,o),
(322,129,cs)
);
}
);
width = 642;
}
);
unicode = 111;
},
{
glyphname = oacute;
lastChange = "2023-11-14 18:58:58 +0000";
layers = (
{
layerId = "49F060A0-2273-4F54-8B81-08E0B15B03EC";
shapes = (
{
ref = o;
},
{
closed = 1;
nodes = (
(350,700,o),
(297,675,o),
(253,669,cs),
(223,665,o),
(194,667,o),
(181,692,cs),
(165,724,o),
(185,748,o),
(225,768,cs),
(290,801,o),
(295,854,o),
(341,880,cs),
(371,897,o),
(406,892,o),
(431,859,cs),
(462,818,o),
(443,770,o),
(390,730,cs)
);
}
);
width = 642;
}
);
unicode = 243;
},
{
glyphname = ocircumflex;
lastChange = "2023-11-15 11:09:30 +0000";
layers = (
{
layerId = "49F060A0-2273-4F54-8B81-08E0B15B03EC";
shapes = (
{
ref = o;
},
{
closed = 1;
nodes = (
(310,730,o),
(301,721,o),
(277,704,cs),
(224,665,l),
(190,641,o),
(165,623,o),
(146,641,cs),
(131,657,o),
(145,676,o),
(163,714,cs),
(176,739,o),
(193,771,o),
(213,806,cs),
(240,854,o),
(276,884,o),
(320,884,cs),
(364,884,o),
(400,854,o),
(427,806,cs),
(447,771,o),
(464,739,o),
(477,714,cs),
(495,676,o),
(509,657,o),
(494,641,cs),
(475,623,o),
(450,641,o),
(416,665,cs),
(403,675,o),
(379,693,o),
(358,708,cs),
(340,721,o),
(330,730,o),
(320,730,cs)
);
}
);
width = 642;
}
);
unicode = 244;
},
{
glyphname = odieresis;
lastChange = "2023-11-15 11:10:01 +0000";
layers = (
{
anchors = (
{
name = top;
pos = (329,816);
}
);
layerId = "49F060A0-2273-4F54-8B81-08E0B15B03EC";
shapes = (
{
closed = 1;
nodes = (
(454,738,o),
(484,767,o),
(484,812,cs),
(484,856,o),
(454,884,o),
(408,884,cs),
(362,884,o),
(332,856,o),
(332,812,cs),
(332,767,o),
(362,738,o),
(408,738,cs)
);
},
{
ref = o;
},
{
closed = 1;
nodes = (
(258,738,o),
(288,767,o),
(288,812,cs),
(288,856,o),
(258,884,o),
(212,884,cs),
(166,884,o),
(136,856,o),
(136,812,cs),
(136,767,o),
(166,738,o),
(212,738,cs)
);
}
);
width = 642;
}
);
unicode = 246;
},
{
glyphname = ograve;
lastChange = "2023-11-14 19:00:19 +0000";
layers = (
{
layerId = "49F060A0-2273-4F54-8B81-08E0B15B03EC";
shapes = (
{
ref = o;
},
{
closed = 1;
nodes = (
(190,767,o),
(171,815,o),
(202,856,cs),
(227,889,o),
(262,894,o),
(292,877,cs),
(338,851,o),
(343,798,o),
(408,765,cs),
(448,745,o),
(468,721,o),
(452,689,cs),
(439,664,o),
(410,662,o),
(380,666,cs),
(336,672,o),
(283,697,o),
(243,727,cs)
);
}
);
width = 642;
}
);
unicode = 242;
},
{
glyphname = omacron;
lastChange = "2023-11-15 12:57:19 +0000";
layers = (
{
anchors = (
{
name = "top ";
pos = (304,877);
}
);
layerId = "49F060A0-2273-4F54-8B81-08E0B15B03EC";
shapes = (
{
ref = o;
},
{
closed = 1;
nodes = (
(123,702,o),
(85,735,o),
(85,782,cs),
(85,827,o),
(121,863,o),
(249,863,cs),
(356,863,o),
(441,849,o),
(463,845,cs),
(549,828,o),
(576,813,o),
(576,787,cs),
(576,761,o),
(546,741,o),
(469,725,cs),
(433,717,o),
(347,702,o),
(253,702,cs)
);
}
);
width = 642;
}
);
unicode = 333;
},
{
glyphname = otilde;
lastChange = "2023-11-15 12:52:19 +0000";
layers = (
{
anchors = (
{
name = top;
pos = (307,879);
}
);
layerId = "49F060A0-2273-4F54-8B81-08E0B15B03EC";
shapes = (
{
ref = o;
},
{
closed = 1;
nodes = (
(373,663,o),
(438,648,o),
(503,689,cs),
(563,727,o),
(583,789,o),
(553,839,cs),
(534,867,o),
(500,876,o),
(473,858,cs),
(459,849,o),
(431,822,o),
(417,812,cs),
(394,799,o),
(378,798,o),
(363,810,cs),
(261,889,o),
(196,904,o),
(130,860,cs),
(70,826,o),
(49,762,o),
(80,712,cs),
(98,685,o),
(131,675,o),
(160,694,cs),
(172,702,o),
(202,729,o),
(216,737,cs),
(237,754,o),
(252,754,o),
(269,741,cs)
);
}
);
width = 642;
}
);
unicode = 245;
},
{
glyphname = oe;
lastChange = "2023-11-14 23:07:04 +0000";
layers = (
{
layerId = "49F060A0-2273-4F54-8B81-08E0B15B03EC";
shapes = (
{
closed = 1;
nodes = (
(121,616,o),
(32,519,o),
(32,342,cs),
(32,127,o),
(164,-14,o),
(325,-14,cs),
(405,-14,o),
(474,21,o),
(526,82,c),
(575,31,o),
(652,-15,o),
(763,-15,cs),
(809,-15,o),
(858,-7,o),
(889,9,cs),
(916,23,o),
(932,45,o),
(932,63,cs),
(932,68,o),
(931,73,o),
(929,78,cs),
(924,90,o),
(907,105,o),
(886,105,cs),
(872,105,o),
(865,101,o),
(854,94,cs),
(822,73,o),
(806,60,o),
(771,60,cs),
(726,60,o),
(686,81,o),
(666,113,cs),
(664,116,o),
(662,120,o),
(662,123,cs),
(662,126,o),
(662,127,o),
(664,129,cs),
(667,132,o),
(670,133,o),
(673,133,cs),
(676,133,o),
(677,132,o),
(680,131,cs),
(708,119,o),
(730,116,o),
(754,116,cs),
(893,116,o),
(992,217,o),
(992,359,cs),
(992,485,o),
(914,616,o),
(692,616,cs),
(615,616,o),
(562,600,o),
(516,565,c),
(469,599,o),
(405,616,o),
(321,616,cs)
);
},
{
closed = 1;
nodes = (
(261,247,o),
(281,273,o),
(322,273,cs),
(361,273,o),
(381,247,o),
(381,201,cs),
(381,155,o),
(361,129,o),
(322,129,cs),
(281,129,o),
(261,155,o),
(261,201,cs)
);
},
{
closed = 1;
nodes = (
(612,304,ls),
(615,325,o),
(630,343,o),
(672,343,cs),
(707,343,o),
(732,330,o),
(732,292,cs),
(732,250,o),
(701,207,o),
(659,207,cs),
(634,207,o),
(612,223,o),
(607,241,cs),
(606,244,o),
(605,250,o),
(605,252,cs),
(605,256,o),
(606,260,o),
(606,263,cs)
);
},
{
closed = 0;
nodes = (
(666,113,l)
);
}
);
width = 1026;
}
);
unicode = 339;
},
{
color = 10;
glyphname = p;
lastChange = "2023-11-13 03:12:48 +0000";
layers = (
{
layerId = "49F060A0-2273-4F54-8B81-08E0B15B03EC";
shapes = (
{
closed = 1;
nodes = (
(493,616,o),
(458,604,o),
(431,588,cs),
(410,576,o),
(393,557,o),
(386,546,cs),
(378,533,o),
(372,527,o),
(364,527,cs),
(353,527,o),
(350,533,o),
(343,545,cs),
(315,595,o),
(265,618,o),
(214,618,cs),
(124,618,o),
(70,541,o),
(70,401,cs),
(70,213,o),
(102,18,o),
(135,-99,cs),
(154,-162,o),
(170,-198,o),
(217,-198,cs),
(265,-198,o),
(286,-160,o),
(304,-97,cs),
(313,-68,o),
(321,-34,o),
(330,3,cs),
(333,15,o),
(342,22,o),
(354,22,cs),
(363,22,o),
(373,14,o),
(388,2,cs),
(409,-15,o),
(434,-24,o),
(460,-24,cs),
(536,-24,o),
(594,31,o),
(641,89,cs),
(702,165,o),
(740,271,o),
(740,361,cs),
(740,518,o),
(658,614,o),
(528,616,cs)
);
},
{
closed = 1;
nodes = (
(383,122,o),
(361,128,o),
(349,156,cs),
(348,160,o),
(347,164,o),
(347,167,cs),
(347,171,o),
(348,175,o),
(348,178,cs),
(354,219,ls),
(357,239,o),
(372,258,o),
(407,258,cs),
(444,258,o),
(474,249,o),
(474,208,cs),
(474,177,o),
(446,122,o),
(404,122,cs)
);
}
);
width = 779;
}
);
unicode = 112;
},
{
color = 10;
glyphname = q;
lastChange = "2023-11-13 00:04:02 +0000";
layers = (
{
layerId = "49F060A0-2273-4F54-8B81-08E0B15B03EC";
shapes = (
{
closed = 1;
nodes = (
(127,614,o),
(45,518,o),
(45,361,cs),
(45,271,o),
(83,165,o),
(144,89,cs),
(191,31,o),
(249,-24,o),
(325,-24,cs),
(351,-24,o),
(376,-15,o),
(397,2,cs),
(413,15,o),
(423,23,o),
(433,22,cs),
(444,21,o),
(452,14,o),
(455,3,cs),
(464,-34,o),
(472,-68,o),
(481,-97,cs),
(499,-160,o),
(520,-198,o),
(568,-198,cs),
(615,-198,o),
(631,-162,o),
(650,-99,cs),
(683,18,o),
(715,213,o),
(715,401,cs),
(715,541,o),
(661,618,o),
(571,618,cs),
(520,618,o),
(470,595,o),
(442,545,cs),
(435,533,o),
(432,527,o),
(421,527,cs),
(413,527,o),
(407,533,o),
(399,546,cs),
(392,557,o),
(375,576,o),
(354,588,cs),
(327,604,o),
(292,616,o),
(257,616,cs)
);
},
{
closed = 1;
nodes = (
(323,142,o),
(298,192,o),
(299,225,cs),
(299,269,o),
(328,278,o),
(365,275,cs),
(404,274,o),
(418,252,o),
(420,231,cs),
(422,190,ls),
(422,183,o),
(423,176,o),
(419,168,cs),
(405,141,o),
(382,137,o),
(361,139,cs)
);
}
);
width = 750;
}
);
unicode = 113;
},
{
color = 10;
glyphname = r;
lastChange = "2023-11-13 14:13:12 +0000";
layers = (
{
layerId = "49F060A0-2273-4F54-8B81-08E0B15B03EC";
shapes = (
{
closed = 1;
nodes = (
(421,615,o),
(373,530,o),
(328,430,cs),
(325,423,o),
(320,409,o),
(311,409,cs),
(303,409,o),
(302,416,o),
(302,430,cs),
(302,567,o),
(257,614,o),
(174,614,cs),
(105,614,o),
(45,554,o),
(45,447,cs),
(45,301,o),
(76,153,o),
(103,62,cs),
(117,14,o),
(140,-14,o),
(172,-14,cs),
(247,-14,o),
(287,152,o),
(298,200,cs),
(309,250,o),
(347,259,o),
(384,259,cs),
(402,259,o),
(420,259,o),
(433,259,cs),
(509,259,o),
(558,277,o),
(592,321,cs),
(623,361,o),
(638,412,o),
(638,461,cs),
(638,542,o),
(596,615,o),
(516,615,c)
);
}
);
width = 638;
}
);
unicode = 114;
},
{
glyphname = racute;
lastChange = "2023-11-14 19:08:28 +0000";
layers = (
{
layerId = "49F060A0-2273-4F54-8B81-08E0B15B03EC";
shapes = (
{
ref = r;
},
{
closed = 1;
nodes = (
(350,700,o),
(297,675,o),
(253,669,cs),
(223,665,o),
(194,667,o),
(181,692,cs),
(165,724,o),
(185,748,o),
(225,768,cs),
(290,801,o),
(295,854,o),
(341,880,cs),
(371,897,o),
(406,892,o),
(431,859,cs),
(462,818,o),
(443,770,o),
(390,730,cs)
);
}
);
width = 638;
}
);
unicode = 341;
},
{
glyphname = rcaron;
lastChange = "2023-11-15 10:57:29 +0000";
layers = (
{
anchors = (
{
name = top;
pos = (318,884);
}
);
layerId = "49F060A0-2273-4F54-8B81-08E0B15B03EC";
shapes = (
{
ref = r;
},
{
closed = 1;
nodes = (
(328,787,o),
(338,796,o),
(356,809,cs),
(377,824,o),
(401,842,o),
(414,852,cs),
(448,876,o),
(473,894,o),
(492,876,cs),
(507,860,o),
(493,841,o),
(475,803,cs),
(462,778,o),
(445,746,o),
(425,711,cs),
(398,663,o),
(362,633,o),
(318,633,cs),
(274,633,o),
(238,663,o),
(211,711,cs),
(191,746,o),
(174,778,o),
(161,803,cs),
(143,841,o),
(129,860,o),
(144,876,cs),
(163,894,o),
(188,876,o),
(222,852,c),
(275,813,ls),
(299,796,o),
(308,787,o),
(318,787,cs)
);
}
);
width = 638;
}
);
unicode = 345;
},
{
glyphname = rcommaaccent;
lastChange = "2023-11-14 22:09:16 +0000";
layers = (
{
anchors = (
{
name = bottom;
pos = (257,-31);
}
);
layerId = "49F060A0-2273-4F54-8B81-08E0B15B03EC";
shapes = (
{
ref = r;
},
{
closed = 1;
nodes = (
(236,-228,o),
(183,-253,o),
(139,-259,cs),
(109,-263,o),
(80,-261,o),
(67,-236,cs),
(51,-204,o),
(71,-180,o),
(111,-160,cs),
(176,-127,o),
(181,-74,o),
(227,-48,cs),
(257,-31,o),
(292,-36,o),
(317,-69,cs),
(348,-110,o),
(329,-158,o),
(276,-198,cs)
);
}
);
width = 638;
}
);
unicode = 343;
},
{
color = 10;
glyphname = s;
lastChange = "2023-11-13 14:27:49 +0000";
layers = (
{
layerId = "49F060A0-2273-4F54-8B81-08E0B15B03EC";
shapes = (
{
closed = 1;
nodes = (
(106,144,o),
(31,239,o),
(31,350,cs),
(31,525,o),
(206,603,o),
(316,603,cs),
(468,603,o),
(567,541,o),
(567,436,cs),
(567,371,o),
(528,319,o),
(459,319,cs),
(408,319,o),
(369,345,o),
(313,346,cs),
(268,346,o),
(247,326,o),
(247,299,cs),
(247,272,o),
(268,251,o),
(313,251,cs),
(441,252,o),
(505,208,o),
(505,121,cs),
(505,30,o),
(431,-16,o),
(283,-16,cs),
(196,-16,o),
(158,-8,o),
(131,5,cs),
(85,26,o),
(75,52,o),
(83,71,cs),
(90,90,o),
(112,111,o),
(147,93,cs),
(191,71,o),
(250,66,o),
(287,68,cs),
(349,71,o),
(366,86,o),
(366,109,cs),
(366,126,o),
(349,144,o),
(308,144,c)
);
}
);
width = 603;
}
);
unicode = 115;
},
{
glyphname = sacute;
lastChange = "2023-11-14 22:11:27 +0000";
layers = (
{
anchors = (
{
name = top;
pos = (342,886);
}
);
layerId = "49F060A0-2273-4F54-8B81-08E0B15B03EC";
shapes = (
{
ref = s;
},
{
closed = 1;
nodes = (
(352,665,o),
(299,640,o),
(255,634,cs),
(225,630,o),
(196,632,o),
(183,657,cs),
(167,689,o),
(187,713,o),
(227,733,cs),
(292,766,o),
(297,819,o),
(343,845,cs),
(373,862,o),
(408,857,o),
(433,824,cs),
(464,783,o),
(445,735,o),
(392,695,cs)
);
}
);
width = 603;
}
);
unicode = 347;
},
{
glyphname = scaron;
lastChange = "2023-11-15 12:09:53 +0000";
layers = (
{
anchors = (
{
name = top;
pos = (312,884);
}
);
layerId = "49F060A0-2273-4F54-8B81-08E0B15B03EC";
shapes = (
{
ref = s;
},
{
closed = 1;
nodes = (
(322,787,o),
(332,796,o),
(350,809,cs),
(371,824,o),
(395,842,o),
(408,852,cs),
(442,876,o),
(467,894,o),
(486,876,cs),
(501,860,o),
(487,841,o),
(469,803,cs),
(456,778,o),
(439,746,o),
(419,711,cs),
(392,663,o),
(356,633,o),
(312,633,cs),
(268,633,o),
(232,663,o),
(205,711,cs),
(185,746,o),
(168,778,o),
(155,803,cs),
(137,841,o),
(123,860,o),
(138,876,cs),
(157,894,o),
(182,876,o),
(216,852,c),
(269,813,ls),
(293,796,o),
(302,787,o),
(312,787,cs)
);
}
);
width = 603;
}
);
unicode = 353;
},
{
glyphname = scedilla;
lastChange = "2023-11-15 13:49:10 +0000";
layers = (
{
layerId = "49F060A0-2273-4F54-8B81-08E0B15B03EC";
shapes = (
{
ref = s;
},
{
closed = 1;
nodes = (
(346,-107,o),
(345,-94,o),
(341,-82,cs),
(325,-32,o),
(271,-8,o),
(243,-26,cs),
(233,-33,o),
(220,-46,o),
(220,-66,cs),
(220,-81,o),
(228,-89,o),
(238,-94,cs),
(249,-100,o),
(262,-102,o),
(271,-108,cs),
(276,-112,o),
(280,-118,o),
(280,-126,cs),
(280,-136,o),
(269,-144,o),
(244,-144,cs),
(231,-144,o),
(223,-149,o),
(223,-160,cs),
(223,-174,o),
(235,-177,o),
(255,-177,cs),
(272,-177,o),
(293,-175,o),
(309,-169,cs),
(331,-160,o),
(346,-144,o),
(346,-115,c)
);
}
);
width = 603;
}
);
unicode = 351;
},
{
glyphname = scommaaccent;
lastChange = "2023-11-14 22:10:54 +0000";
layers = (
{
anchors = (
{
name = bottom;
pos = (457,-103);
}
);
layerId = "49F060A0-2273-4F54-8B81-08E0B15B03EC";
shapes = (
{
ref = s;
},
{
closed = 1;
nodes = (
(275,-223,o),
(222,-248,o),
(178,-254,cs),
(148,-258,o),
(119,-256,o),
(106,-231,cs),
(90,-199,o),
(110,-175,o),
(150,-155,cs),
(215,-122,o),
(220,-69,o),
(266,-43,cs),
(296,-26,o),
(331,-31,o),
(356,-64,cs),
(387,-105,o),
(368,-153,o),
(315,-193,cs)
);
}
);
width = 603;
}
);
unicode = 537;
},
{
color = 10;
glyphname = t;
lastChange = "2023-11-13 12:42:56 +0000";
layers = (
{
layerId = "49F060A0-2273-4F54-8B81-08E0B15B03EC";
shapes = (
{
closed = 1;
nodes = (
(410,603,o),
(423,594,o),
(436,594,cs),
(451,594,o),
(410,594,o),
(472,594,cs),
(515,594,o),
(538,571,o),
(538,541,cs),
(538,511,o),
(515,488,o),
(472,488,cs),
(367,488,o),
(408,488,o),
(393,488,cs),
(380,488,o),
(370,481,o),
(365,469,cs),
(359,456,o),
(354,444,o),
(349,432,cs),
(222,130,o),
(341,99,o),
(389,99,cs),
(417,99,o),
(445,100,o),
(466,100,cs),
(501,100,o),
(522,77,o),
(522,50,cs),
(522,-3,o),
(429,-15,o),
(383,-14,cs),
(328,-13,o),
(286,-3,o),
(250,20,cs),
(135,95,o),
(35,275,o),
(35,494,cs),
(35,711,o),
(148,811,o),
(265,811,cs),
(346,811,o),
(425,759,o),
(425,671,cs),
(425,644,o),
(418,626,o),
(414,615,cs)
);
}
);
width = 543;
}
);
unicode = 116;
},
{
glyphname = tcaron;
lastChange = "2023-11-07 05:32:29 +0000";
layers = (
{
anchors = (
{
name = top;
pos = (588,811);
}
);
layerId = "49F060A0-2273-4F54-8B81-08E0B15B03EC";
shapes = (
{
ref = t;
},
{
closed = 1;
nodes = (
(569,655,o),
(535,654,o),
(535,626,cs),
(535,594,o),
(573,585,o),
(596,585,cs),
(666,585,o),
(724,635,o),
(724,715,cs),
(724,794,o),
(686,811,o),
(653,811,cs),
(626,811,o),
(602,795,o),
(602,764,cs),
(602,752,o),
(608,722,o),
(608,709,cs),
(608,692,o),
(600,682,o),
(590,673,cs)
);
}
);
width = 744;
}
);
unicode = 357;
},
{
glyphname = tcommaaccent;
lastChange = "2023-11-14 22:10:21 +0000";
layers = (
{
anchors = (
{
name = bottom;
pos = (276,-38);
}
);
layerId = "49F060A0-2273-4F54-8B81-08E0B15B03EC";
shapes = (
{
ref = t;
},
{
closed = 1;
nodes = (
(335,-226,o),
(282,-251,o),
(238,-257,cs),
(208,-261,o),
(179,-259,o),
(166,-234,cs),
(150,-202,o),
(170,-178,o),
(210,-158,cs),
(275,-125,o),
(280,-72,o),
(326,-46,cs),
(356,-29,o),
(391,-34,o),
(416,-67,cs),
(447,-108,o),
(428,-156,o),
(375,-196,cs)
);
}
);
width = 543;
}
);
unicode = 539;
},
{
color = 10;
glyphname = u;
lastChange = "2023-11-15 12:58:27 +0000";
layers = (
{
guides = (
{
pos = (-765,175);
}
);
layerId = "49F060A0-2273-4F54-8B81-08E0B15B03EC";
shapes = (
{
closed = 1;
nodes = (
(115,615,o),
(32,519,o),
(32,372,cs),
(32,274,o),
(69,168,o),
(131,92,cs),
(178,34,o),
(238,-11,o),
(306,-11,cs),
(359,-11,o),
(406,12,o),
(437,53,cs),
(443,61,o),
(450,68,o),
(460,68,cs),
(471,68,o),
(479,62,o),
(482,53,cs),
(495,13,o),
(515,-11,o),
(550,-11,cs),
(587,-11,o),
(606,16,o),
(621,65,cs),
(640,126,o),
(679,304,o),
(679,423,cs),
(679,556,o),
(631,613,o),
(552,613,cs),
(471,613,o),
(425,554,o),
(425,421,cs),
(425,342,o),
(441,258,o),
(454,191,cs),
(455,188,o),
(455,185,o),
(455,180,cs),
(455,176,o),
(455,172,o),
(453,167,cs),
(444,142,o),
(419,133,o),
(400,133,cs),
(359,133,o),
(317,173,o),
(317,274,cs),
(317,370,o),
(355,462,o),
(355,516,cs),
(355,579,o),
(302,615,o),
(240,615,cs)
);
}
);
width = 719;
}
);
unicode = 117;
},
{
glyphname = uacute;
lastChange = "2023-11-14 19:02:39 +0000";
layers = (
{
layerId = "49F060A0-2273-4F54-8B81-08E0B15B03EC";
shapes = (
{
ref = u;
},
{
closed = 1;
nodes = (
(419,700,o),
(366,675,o),
(322,669,cs),
(292,665,o),
(263,667,o),
(250,692,cs),
(234,724,o),
(254,748,o),
(294,768,cs),
(359,801,o),
(364,854,o),
(410,880,cs),
(440,897,o),
(475,892,o),
(500,859,cs),
(531,818,o),
(512,770,o),
(459,730,cs)
);
}
);
width = 719;
}
);
unicode = 250;
},
{
glyphname = ubreve;
lastChange = "2023-11-15 12:15:43 +0000";
layers = (
{
anchors = (
{
name = top;
pos = (354,884);
}
);
layerId = "49F060A0-2273-4F54-8B81-08E0B15B03EC";
shapes = (
{
ref = u;
},
{
closed = 1;
nodes = (
(247,641,o),
(167,677,o),
(139,744,cs),
(114,806,o),
(133,863,o),
(185,880,cs),
(218,892,o),
(250,876,o),
(261,845,cs),
(267,828,o),
(269,802,o),
(275,780,cs),
(292,719,o),
(329,707,o),
(378,707,cs),
(426,707,o),
(462,719,o),
(479,780,cs),
(487,810,o),
(489,830,o),
(493,845,cs),
(503,876,o),
(534,891,o),
(568,880,cs),
(621,863,o),
(640,806,o),
(615,743,cs),
(587,675,o),
(503,641,o),
(378,641,cs)
);
}
);
width = 719;
}
);
unicode = 365;
},
{
glyphname = ucircumflex;
lastChange = "2023-11-15 11:11:09 +0000";
layers = (
{
anchors = (
{
name = top;
pos = (362,884);
}
);
layerId = "49F060A0-2273-4F54-8B81-08E0B15B03EC";
shapes = (
{
ref = u;
},
{
closed = 1;
nodes = (
(349,730,o),
(340,721,o),
(316,704,cs),
(263,665,l),
(229,641,o),
(204,623,o),
(185,641,cs),
(170,657,o),
(184,676,o),
(202,714,cs),
(215,739,o),
(232,771,o),
(252,806,cs),
(279,854,o),
(315,884,o),
(359,884,cs),
(403,884,o),
(439,854,o),
(466,806,cs),
(486,771,o),
(503,739,o),
(516,714,cs),
(534,676,o),
(548,657,o),
(533,641,cs),
(514,623,o),
(489,641,o),
(455,665,cs),
(442,675,o),
(418,693,o),
(397,708,cs),
(379,721,o),
(369,730,o),
(359,730,cs)
);
}
);
width = 719;
}
);
unicode = 251;
},
{
glyphname = udieresis;
lastChange = "2023-11-14 20:15:22 +0000";
layers = (
{
layerId = "49F060A0-2273-4F54-8B81-08E0B15B03EC";
shapes = (
{
ref = u;
},
{
closed = 1;
nodes = (
(206,693,o),
(236,664,o),
(282,664,cs),
(328,664,o),
(358,693,o),
(358,738,cs),
(358,782,o),
(328,810,o),
(282,810,cs),
(236,810,o),
(206,782,o),
(206,738,cs)
);
},
{
closed = 1;
nodes = (
(402,693,o),
(432,664,o),
(478,664,cs),
(524,664,o),
(554,693,o),
(554,738,cs),
(554,782,o),
(524,810,o),
(478,810,cs),
(432,810,o),
(402,782,o),
(402,738,cs)
);
}
);
width = 719;
}
);
unicode = 252;
},
{
glyphname = ugrave;
lastChange = "2023-11-14 19:11:28 +0000";
layers = (
{
anchors = (
{
name = top;
pos = (564,853);
}
);
layerId = "49F060A0-2273-4F54-8B81-08E0B15B03EC";
shapes = (
{
ref = u;
},
{
closed = 1;
nodes = (
(247,770,o),
(228,818,o),
(259,859,cs),
(284,892,o),
(319,897,o),
(349,880,cs),
(395,854,o),
(400,801,o),
(465,768,cs),
(505,748,o),
(525,724,o),
(509,692,cs),
(496,667,o),
(467,665,o),
(437,669,cs),
(393,675,o),
(340,700,o),
(300,730,cs)
);
}
);
width = 719;
}
);
unicode = 249;
},
{
glyphname = uhungarumlaut;
lastChange = "2023-11-15 11:12:39 +0000";
layers = (
{
anchors = (
{
name = top;
pos = (374,884);
}
);
layerId = "49F060A0-2273-4F54-8B81-08E0B15B03EC";
shapes = (
{
ref = u;
},
{
closed = 1;
nodes = (
(401,840,o),
(404,801,o),
(362,755,cs),
(326,715,o),
(288,689,o),
(267,675,cs),
(218,643,o),
(196,638,o),
(179,652,cs),
(163,667,o),
(166,690,o),
(193,742,cs),
(205,764,o),
(227,805,o),
(263,845,cs),
(304,891,o),
(343,892,o),
(372,866,cs)
);
},
{
closed = 1;
nodes = (
(607,840,o),
(609,801,o),
(568,755,cs),
(532,715,o),
(493,689,o),
(473,675,cs),
(424,643,o),
(401,637,o),
(385,652,cs),
(368,667,o),
(372,689,o),
(399,742,cs),
(410,764,o),
(432,804,o),
(468,845,cs),
(510,891,o),
(549,892,o),
(578,866,cs)
);
}
);
width = 719;
}
);
unicode = 369;
},
{
glyphname = umacron;
lastChange = "2023-11-15 12:58:01 +0000";
layers = (
{
anchors = (
{
name = top;
pos = (330,830);
}
);
layerId = "49F060A0-2273-4F54-8B81-08E0B15B03EC";
shapes = (
{
ref = u;
},
{
closed = 1;
nodes = (
(177,666,o),
(139,699,o),
(139,746,cs),
(139,791,o),
(175,827,o),
(303,827,cs),
(410,827,o),
(495,813,o),
(517,809,cs),
(603,792,o),
(630,777,o),
(630,751,cs),
(630,725,o),
(600,705,o),
(523,689,cs),
(487,681,o),
(401,666,o),
(307,666,cs)
);
}
);
width = 719;
}
);
unicode = 363;
},
{
glyphname = uogonek;
lastChange = "2023-11-04 19:44:18 +0000";
layers = (
{
layerId = "49F060A0-2273-4F54-8B81-08E0B15B03EC";
shapes = (
{
ref = u;
},
{
closed = 1;
nodes = (
(669,-129,o),
(681,-114,o),
(676,-97,cs),
(671,-81,o),
(653,-75,o),
(630,-81,cs),
(592,-92,o),
(567,-86,o),
(559,-58,cs),
(552,-35,o),
(565,-20,o),
(577,-3,cs),
(599,29,o),
(605,64,o),
(560,88,cs),
(527,105,o),
(482,81,o),
(458,31,cs),
(424,-42,o),
(453,-112,o),
(516,-142,cs),
(556,-163,o),
(597,-161,o),
(648,-139,c)
);
}
);
width = 697;
}
);
unicode = 371;
},
{
glyphname = uring;
lastChange = "2023-11-15 13:00:34 +0000";
layers = (
{
anchors = (
{
name = top;
pos = (389,863);
}
);
layerId = "49F060A0-2273-4F54-8B81-08E0B15B03EC";
shapes = (
{
ref = u;
},
{
closed = 1;
nodes = (
(448,648,o),
(501,699,o),
(501,766,cs),
(501,830,o),
(448,881,o),
(387,881,cs),
(326,881,o),
(270,830,o),
(270,765,cs),
(270,699,o),
(326,648,o),
(385,648,cs)
);
},
{
closed = 1;
nodes = (
(360,682,o),
(343,705,o),
(343,735,cs),
(343,766,o),
(360,789,o),
(385,789,cs),
(411,789,o),
(428,766,o),
(428,735,cs),
(428,705,o),
(411,682,o),
(385,682,cs)
);
}
);
width = 719;
}
);
unicode = 367;
},
{
color = 10;
glyphname = v;
lastChange = "2023-11-13 13:34:21 +0000";
layers = (
{
layerId = "49F060A0-2273-4F54-8B81-08E0B15B03EC";
shapes = (
{
closed = 1;
nodes = (
(449,-14,o),
(544,27,o),
(601,88,cs),
(668,159,o),
(736,260,o),
(736,368,cs),
(736,515,o),
(653,612,o),
(528,612,cs),
(466,612,o),
(413,575,o),
(413,512,cs),
(413,458,o),
(451,366,o),
(451,270,cs),
(451,159,o),
(409,138,o),
(384,138,cs),
(359,138,o),
(317,159,o),
(317,270,cs),
(317,366,o),
(355,458,o),
(355,512,cs),
(355,575,o),
(301,612,o),
(239,612,cs),
(114,612,o),
(31,515,o),
(31,368,cs),
(31,260,o),
(99,159,o),
(166,88,cs),
(223,27,o),
(319,-14,o),
(384,-14,cs)
);
}
);
width = 768;
}
);
unicode = 118;
},
{
color = 10;
glyphname = w;
lastChange = "2023-11-13 13:22:41 +0000";
layers = (
{
layerId = "49F060A0-2273-4F54-8B81-08E0B15B03EC";
shapes = (
{
closed = 1;
nodes = (
(515,-11,o),
(495,13,o),
(482,53,cs),
(479,62,o),
(471,68,o),
(460,68,cs),
(450,68,o),
(443,61,o),
(437,53,cs),
(406,12,o),
(359,-11,o),
(306,-11,cs),
(238,-11,o),
(178,34,o),
(131,92,cs),
(69,168,o),
(32,274,o),
(32,372,cs),
(32,519,o),
(115,615,o),
(240,615,cs),
(302,615,o),
(355,579,o),
(355,516,cs),
(355,462,o),
(317,370,o),
(317,274,cs),
(317,173,o),
(359,133,o),
(400,133,cs),
(419,133,o),
(444,142,o),
(453,167,cs),
(457,178,o),
(455,186,o),
(454,191,cs),
(441,258,o),
(425,342,o),
(425,421,cs),
(425,554,o),
(471,613,o),
(552,613,cs),
(633,613,o),
(679,554,o),
(679,421,cs),
(679,342,o),
(663,258,o),
(650,191,cs),
(649,186,o),
(647,178,o),
(651,167,cs),
(660,142,o),
(685,133,o),
(704,133,cs),
(745,133,o),
(787,173,o),
(787,274,cs),
(787,370,o),
(749,462,o),
(749,516,cs),
(749,579,o),
(802,615,o),
(864,615,cs),
(989,615,o),
(1072,519,o),
(1072,372,cs),
(1072,274,o),
(1035,168,o),
(973,92,cs),
(926,34,o),
(866,-11,o),
(798,-11,cs),
(745,-11,o),
(698,12,o),
(667,53,cs),
(661,61,o),
(654,68,o),
(644,68,cs),
(633,68,o),
(625,62,o),
(622,53,cs),
(609,13,o),
(589,-11,o),
(552,-11,cs)
);
}
);
width = 1104;
}
);
unicode = 119;
},
{
glyphname = wacute;
lastChange = "2023-11-14 19:07:08 +0000";
layers = (
{
layerId = "49F060A0-2273-4F54-8B81-08E0B15B03EC";
shapes = (
{
ref = w;
},
{
closed = 1;
nodes = (
(587,700,o),
(534,675,o),
(490,669,cs),
(460,665,o),
(431,667,o),
(418,692,cs),
(402,724,o),
(422,748,o),
(462,768,cs),
(527,801,o),
(532,854,o),
(578,880,cs),
(608,897,o),
(643,892,o),
(668,859,cs),
(699,818,o),
(680,770,o),
(627,730,cs)
);
}
);
width = 1104;
}
);
unicode = 7811;
},
{
glyphname = wcircumflex;
lastChange = "2023-11-15 10:59:42 +0000";
layers = (
{
anchors = (
{
name = top;
pos = (552,881);
}
);
layerId = "49F060A0-2273-4F54-8B81-08E0B15B03EC";
shapes = (
{
ref = w;
},
{
closed = 1;
nodes = (
(538,731,o),
(529,722,o),
(505,705,cs),
(452,666,l),
(418,642,o),
(393,624,o),
(374,642,cs),
(359,658,o),
(373,677,o),
(391,715,cs),
(404,740,o),
(421,772,o),
(441,807,cs),
(468,855,o),
(504,885,o),
(548,885,cs),
(592,885,o),
(628,855,o),
(655,807,cs),
(675,772,o),
(692,740,o),
(705,715,cs),
(723,677,o),
(737,658,o),
(722,642,cs),
(703,624,o),
(678,642,o),
(644,666,cs),
(631,676,o),
(607,694,o),
(586,709,cs),
(568,722,o),
(558,731,o),
(548,731,cs)
);
}
);
width = 1104;
}
);
unicode = 373;
},
{
glyphname = wdieresis;
lastChange = "2023-11-14 20:20:20 +0000";
layers = (
{
anchors = (
{
name = top;
pos = (545,809);
}
);
layerId = "49F060A0-2273-4F54-8B81-08E0B15B03EC";
shapes = (
{
ref = w;
},
{
closed = 1;
nodes = (
(371,694,o),
(401,665,o),
(447,665,cs),
(493,665,o),
(523,694,o),
(523,739,cs),
(523,783,o),
(493,811,o),
(447,811,cs),
(401,811,o),
(371,783,o),
(371,739,cs)
);
},
{
closed = 1;
nodes = (
(567,694,o),
(597,665,o),
(643,665,cs),
(689,665,o),
(719,694,o),
(719,739,cs),
(719,783,o),
(689,811,o),
(643,811,cs),
(597,811,o),
(567,783,o),
(567,739,cs)
);
}
);
width = 1104;
}
);
unicode = 7813;
},
{
glyphname = wgrave;
lastChange = "2023-11-14 19:07:42 +0000";
layers = (
{
layerId = "49F060A0-2273-4F54-8B81-08E0B15B03EC";
shapes = (
{
ref = w;
},
{
closed = 1;
nodes = (
(437,770,o),
(418,818,o),
(449,859,cs),
(474,892,o),
(509,897,o),
(539,880,cs),
(585,854,o),
(590,801,o),
(655,768,cs),
(695,748,o),
(715,724,o),
(699,692,cs),
(686,667,o),
(657,665,o),
(627,669,cs),
(583,675,o),
(530,700,o),
(490,730,cs)
);
}
);
width = 1104;
}
);
unicode = 7809;
},
{
color = 10;
glyphname = x;
lastChange = "2023-11-13 14:40:57 +0000";
layers = (
{
layerId = "49F060A0-2273-4F54-8B81-08E0B15B03EC";
shapes = (
{
closed = 0;
nodes = (
(-1227,592,l)
);
},
{
closed = 0;
nodes = (
(411,127,l)
);
},
{
closed = 1;
nodes = (
(404,134,o),
(408,132,o),
(411,127,cs),
(430,98,o),
(439,89,o),
(461,69,cs),
(516,19,o),
(586,-7,o),
(650,-14,cs),
(686,-19,o),
(706,-14,o),
(715,1,cs),
(724,15,o),
(724,36,o),
(701,55,cs),
(674,77,o),
(622,92,o),
(574,144,cs),
(553,166,o),
(533,196,o),
(533,230,cs),
(533,267,o),
(557,306,o),
(622,320,cs),
(694,337,o),
(745,386,o),
(745,463,cs),
(745,556,o),
(671,615,o),
(595,615,cs),
(533,615,o),
(480,575,o),
(453,538,cs),
(446,529,o),
(434,510,o),
(428,492,cs),
(422,477,o),
(422,470,o),
(421,462,cs),
(420,450,o),
(411,443,o),
(400,443,cs),
(389,443,o),
(380,450,o),
(379,462,cs),
(379,470,o),
(378,477,o),
(373,492,cs),
(366,510,o),
(354,529,o),
(347,538,cs),
(320,575,o),
(267,615,o),
(205,615,cs),
(130,615,o),
(55,556,o),
(55,463,cs),
(55,386,o),
(106,337,o),
(178,320,cs),
(244,306,o),
(267,267,o),
(267,230,cs),
(267,196,o),
(247,166,o),
(227,144,cs),
(178,92,o),
(126,77,o),
(99,55,cs),
(76,36,o),
(76,15,o),
(85,1,cs),
(95,-14,o),
(114,-19,o),
(151,-14,cs),
(214,-7,o),
(284,19,o),
(340,69,cs),
(361,89,o),
(370,98,o),
(389,127,cs),
(392,132,o),
(396,134,o),
(400,134,cs)
);
}
);
width = 797;
}
);
unicode = 120;
},
{
color = 10;
glyphname = y;
lastChange = "2023-11-13 14:34:11 +0000";
layers = (
{
layerId = "49F060A0-2273-4F54-8B81-08E0B15B03EC";
shapes = (
{
closed = 1;
nodes = (
(551,614,ls),
(470,614,o),
(424,549,o),
(424,428,cs),
(424,331,o),
(454,188,o),
(454,179,cs),
(454,175,o),
(454,171,o),
(452,166,cs),
(443,141,o),
(418,132,o),
(399,132,cs),
(358,132,o),
(316,172,o),
(316,273,cs),
(316,369,o),
(354,461,o),
(354,515,cs),
(354,574,o),
(309,614,o),
(234,614,cs),
(115,614,o),
(32,513,o),
(32,367,cs),
(32,271,o),
(68,168,o),
(131,89,cs),
(179,29,o),
(238,-11,o),
(311,-11,cs),
(378,-11,o),
(413,23,o),
(434,50,cs),
(441,58,o),
(444,65,o),
(455,65,cs),
(465,65,o),
(474,59,o),
(476,45,cs),
(477,36,o),
(478,21,o),
(478,10,cs),
(478,-17,o),
(472,-38,o),
(458,-53,cs),
(443,-69,o),
(423,-76,o),
(406,-76,cs),
(397,-76,o),
(393,-74,o),
(390,-73,cs),
(384,-71,o),
(374,-68,o),
(364,-68,cs),
(337,-68,o),
(317,-91,o),
(317,-118,cs),
(317,-137,o),
(327,-151,o),
(351,-169,cs),
(371,-184,o),
(397,-199,o),
(442,-199,cs),
(648,-199,o),
(694,117,o),
(694,332,cs),
(694,505,o),
(664,614,o),
(551,614,cs),
(550,614,l)
);
}
);
width = 734;
}
);
unicode = 121;
},
{
glyphname = yacute;
lastChange = "2023-11-14 19:09:19 +0000";
layers = (
{
layerId = "49F060A0-2273-4F54-8B81-08E0B15B03EC";
shapes = (
{
ref = y;
},
{
closed = 1;
nodes = (
(436,699,o),
(383,674,o),
(339,668,cs),
(309,664,o),
(280,666,o),
(267,691,cs),
(251,723,o),
(271,747,o),
(311,767,cs),
(376,800,o),
(381,853,o),
(427,879,cs),
(457,896,o),
(492,891,o),
(517,858,cs),
(548,817,o),
(529,769,o),
(476,729,cs)
);
}
);
width = 734;
}
);
unicode = 253;
},
{
glyphname = ycircumflex;
lastChange = "2023-11-15 10:58:19 +0000";
layers = (
{
anchors = (
{
name = top;
pos = (384,885);
}
);
layerId = "49F060A0-2273-4F54-8B81-08E0B15B03EC";
shapes = (
{
ref = y;
},
{
closed = 1;
nodes = (
(375,730,o),
(366,721,o),
(342,704,cs),
(289,665,l),
(255,641,o),
(230,623,o),
(211,641,cs),
(196,657,o),
(210,676,o),
(228,714,cs),
(241,739,o),
(258,771,o),
(278,806,cs),
(305,854,o),
(341,884,o),
(385,884,cs),
(429,884,o),
(465,854,o),
(492,806,cs),
(512,771,o),
(529,739,o),
(542,714,cs),
(560,676,o),
(574,657,o),
(559,641,cs),
(540,623,o),
(515,641,o),
(481,665,cs),
(468,675,o),
(444,693,o),
(423,708,cs),
(405,721,o),
(395,730,o),
(385,730,cs)
);
}
);
width = 734;
}
);
unicode = 375;
},
{
glyphname = ydieresis;
lastChange = "2023-11-14 20:20:02 +0000";
layers = (
{
anchors = (
{
name = top;
pos = (385,811);
}
);
layerId = "49F060A0-2273-4F54-8B81-08E0B15B03EC";
shapes = (
{
ref = y;
},
{
closed = 1;
nodes = (
(211,692,o),
(241,663,o),
(287,663,cs),
(333,663,o),
(363,692,o),
(363,737,cs),
(363,781,o),
(333,809,o),
(287,809,cs),
(241,809,o),
(211,781,o),
(211,737,cs)
);
},
{
closed = 1;
nodes = (
(407,692,o),
(437,663,o),
(483,663,cs),
(529,663,o),
(559,692,o),
(559,737,cs),
(559,781,o),
(529,809,o),
(483,809,cs),
(437,809,o),
(407,781,o),
(407,737,cs)
);
}
);
width = 734;
}
);
unicode = 255;
},
{
glyphname = ygrave;
lastChange = "2023-11-14 19:09:47 +0000";
layers = (
{
layerId = "49F060A0-2273-4F54-8B81-08E0B15B03EC";
shapes = (
{
ref = y;
},
{
closed = 1;
nodes = (
(258,770,o),
(239,818,o),
(270,859,cs),
(295,892,o),
(330,897,o),
(360,880,cs),
(406,854,o),
(411,801,o),
(476,768,cs),
(516,748,o),
(536,724,o),
(520,692,cs),
(507,667,o),
(478,665,o),
(448,669,cs),
(404,675,o),
(351,700,o),
(311,730,cs)
);
}
);
width = 734;
}
);
unicode = 7923;
},
{
color = 10;
glyphname = z;
lastChange = "2023-11-13 14:45:20 +0000";
layers = (
{
layerId = "49F060A0-2273-4F54-8B81-08E0B15B03EC";
shapes = (
{
closed = 1;
nodes = (
(271,64,o),
(271,79,cs),
(271,87,o),
(277,91,o),
(289,97,cs),
(387,143,o),
(448,182,o),
(502,262,cs),
(534,309,o),
(543,368,o),
(543,406,cs),
(543,521,o),
(460,614,o),
(279,614,cs),
(127,614,o),
(20,549,o),
(20,442,cs),
(20,376,o),
(61,323,o),
(129,323,cs),
(178,323,o),
(232,351,o),
(281,351,cs),
(325,351,o),
(351,329,o),
(351,294,cs),
(351,274,o),
(343,262,o),
(330,248,cs),
(310,227,o),
(293,218,o),
(266,203,cs),
(133,129,o),
(115,102,o),
(115,68,cs),
(115,-5,o),
(197,-16,o),
(298,-16,cs),
(373,-16,o),
(406,-10,o),
(418,-7,cs),
(441,-1,o),
(457,10,o),
(457,31,cs),
(457,54,o),
(439,70,o),
(406,70,cs),
(394,70,o),
(351,68,o),
(338,67,cs),
(326,67,o)
);
}
);
width = 563;
}
);
unicode = 122;
},
{
glyphname = zacute;
lastChange = "2023-11-14 19:10:47 +0000";
layers = (
{
anchors = (
{
name = top;
pos = (439,859);
}
);
layerId = "49F060A0-2273-4F54-8B81-08E0B15B03EC";
shapes = (
{
ref = z;
},
{
closed = 1;
nodes = (
(324,700,o),
(271,675,o),
(227,669,cs),
(197,665,o),
(168,667,o),
(155,692,cs),
(139,724,o),
(159,748,o),
(199,768,cs),
(264,801,o),
(269,854,o),
(315,880,cs),
(345,897,o),
(380,892,o),
(405,859,cs),
(436,818,o),
(417,770,o),
(364,730,cs)
);
}
);
width = 563;
}
);
unicode = 378;
},
{
glyphname = zcaron;
lastChange = "2023-11-15 12:09:32 +0000";
layers = (
{
anchors = (
{
name = top;
pos = (283,878);
}
);
layerId = "49F060A0-2273-4F54-8B81-08E0B15B03EC";
shapes = (
{
ref = z;
},
{
closed = 1;
nodes = (
(294,788,o),
(304,797,o),
(322,810,cs),
(343,825,o),
(367,843,o),
(380,853,cs),
(414,877,o),
(439,895,o),
(458,877,cs),
(473,861,o),
(459,842,o),
(441,804,cs),
(428,779,o),
(411,747,o),
(391,712,cs),
(364,664,o),
(328,634,o),
(284,634,cs),
(240,634,o),
(204,664,o),
(177,712,cs),
(157,747,o),
(140,779,o),
(127,804,cs),
(109,842,o),
(95,861,o),
(110,877,cs),
(129,895,o),
(154,877,o),
(188,853,c),
(241,814,ls),
(265,797,o),
(274,788,o),
(284,788,cs)
);
}
);
width = 605;
}
);
unicode = 382;
},
{
glyphname = zdotaccent;
lastChange = "2023-11-15 14:03:38 +0000";
layers = (
{
anchors = (
{
name = top;
pos = (271,883);
}
);
layerId = "49F060A0-2273-4F54-8B81-08E0B15B03EC";
shapes = (
{
ref = z;
},
{
closed = 1;
nodes = (
(195,766,o),
(225,737,o),
(271,737,cs),
(317,737,o),
(347,766,o),
(347,811,cs),
(347,855,o),
(317,883,o),
(271,883,cs),
(225,883,o),
(195,855,o),
(195,811,cs)
);
}
);
width = 563;
}
);
unicode = 380;
},
{
glyphname = ordfeminine;
lastChange = "2023-11-14 18:40:01 +0000";
layers = (
{
layerId = "49F060A0-2273-4F54-8B81-08E0B15B03EC";
shapes = (
{
closed = 1;
nodes = (
(156,538,o),
(145,556,o),
(144,568,cs),
(142,585,o),
(153,589,o),
(167,589,cs),
(182,590,o),
(188,582,o),
(189,574,cs),
(191,559,ls),
(191,557,o),
(192,554,o),
(191,551,cs),
(186,541,o),
(178,538,o),
(170,538,cs)
);
},
{
closed = 1;
nodes = (
(186,690,o),
(185,687,o),
(180,687,cs),
(177,687,o),
(174,690,o),
(172,692,cs),
(160,708,o),
(140,717,o),
(113,717,cs),
(67,717,o),
(36,681,o),
(36,623,cs),
(36,588,o),
(50,549,o),
(73,521,cs),
(90,499,o),
(112,484,o),
(138,483,cs),
(158,482,o),
(176,491,o),
(187,506,cs),
(189,509,o),
(192,512,o),
(196,512,cs),
(200,512,o),
(203,509,o),
(204,506,cs),
(209,492,o),
(216,482,o),
(230,482,cs),
(244,482,o),
(251,492,o),
(256,511,cs),
(266,544,o),
(278,600,o),
(278,654,cs),
(278,695,o),
(255,717,o),
(230,717,c),
(214,717,o),
(199,710,o),
(189,694,cs)
);
}
);
width = 330;
}
);
unicode = 170;
},
{
glyphname = ordmasculine;
lastChange = "2023-11-15 12:47:52 +0000";
layers = (
{
layerId = "49F060A0-2273-4F54-8B81-08E0B15B03EC";
shapes = (
{
closed = 1;
nodes = (
(210,484,o),
(263,535,o),
(263,602,cs),
(263,666,o),
(210,717,o),
(149,717,cs),
(88,717,o),
(32,666,o),
(32,601,cs),
(32,535,o),
(88,484,o),
(147,484,cs)
);
},
{
closed = 1;
nodes = (
(122,518,o),
(105,541,o),
(105,571,cs),
(105,602,o),
(122,625,o),
(147,625,cs),
(173,625,o),
(190,602,o),
(190,571,cs),
(190,541,o),
(173,518,o),
(147,518,cs)
);
}
);
width = 295;
}
);
unicode = 186;
},
{
color = 10;
glyphname = zero;
lastChange = "2023-11-14 06:58:14 +0000";
layers = (
{
layerId = "49F060A0-2273-4F54-8B81-08E0B15B03EC";
shapes = (
{
closed = 1;
nodes = (
(27,105,o),
(152,-16,o),
(332,-16,cs),
(518,-16,o),
(636,106,o),
(636,389,cs),
(636,685,o),
(560,784,o),
(332,784,cs),
(103,784,o),
(27,685,o),
(27,389,c)
);
},
{
closed = 1;
nodes = (
(415,123,o),
(385,94,o),
(330,94,cs),
(274,94,o),
(247,123,o),
(247,261,cs),
(247,401,o),
(273,432,o),
(331,432,cs),
(392,432,o),
(415,400,o),
(415,262,cs)
);
}
);
width = 664;
}
);
unicode = 48;
},
{
color = 10;
glyphname = one;
lastChange = "2023-11-14 05:07:19 +0000";
layers = (
{
layerId = "49F060A0-2273-4F54-8B81-08E0B15B03EC";
shapes = (
{
closed = 1;
nodes = (
(498,784,o),
(572,708,o),
(572,570,cs),
(572,385,o),
(533,196,o),
(502,80,cs),
(484,19,o),
(460,-16,o),
(414,-16,cs),
(368,-16,o),
(344,19,o),
(326,80,cs),
(307,153,o),
(275,350,o),
(273,356,cs),
(271,370,o),
(269,373,o),
(260,366,cs),
(245,354,o),
(234,343,o),
(218,333,cs),
(193,319,o),
(171,310,o),
(148,308,cs),
(108,307,o),
(74,331,o),
(41,387,cs),
(-26,502,o),
(15,633,o),
(186,733,c),
(247,763,o),
(320,784,o),
(414,784,cs)
);
}
);
width = 612;
}
);
unicode = 49;
},
{
color = 10;
glyphname = two;
lastChange = "2023-11-14 06:50:48 +0000";
layers = (
{
layerId = "49F060A0-2273-4F54-8B81-08E0B15B03EC";
shapes = (
{
closed = 0;
nodes = (
(290,98,l)
);
},
{
closed = 1;
nodes = (
(43,494,o),
(61,455,o),
(96,436,cs),
(116,427,o),
(140,424,o),
(169,424,cs),
(227,424,o),
(294,436,o),
(345,436,cs),
(387,436,o),
(418,427,o),
(418,381,cs),
(418,357,o),
(406,347,o),
(389,333,cs),
(340,291,o),
(298,254,o),
(260,221,cs),
(219,187,o),
(170,145,o),
(153,131,cs),
(121,105,o),
(123,76,o),
(123,64,cs),
(123,-7,o),
(152,-13,o),
(210,-13,cs),
(299,-13,ls),
(345,-13,o),
(371,-13,o),
(433,-13,cs),
(475,-13,o),
(498,10,o),
(498,39,cs),
(498,69,o),
(475,92,o),
(433,92,cs),
(371,92,o),
(345,92,o),
(300,92,c),
(286,91,o),
(281,103,o),
(290,109,c),
(302,118,o),
(312,129,o),
(327,140,cs),
(365,169,o),
(447,221,o),
(494,260,cs),
(572,329,o),
(589,439,o),
(589,520,cs),
(589,648,o),
(560,787,o),
(342,787,cs),
(144,786,o),
(43,692,o),
(43,559,cs)
);
}
);
width = 617;
}
);
unicode = 50;
},
{
color = 10;
glyphname = three;
lastChange = "2023-11-14 05:39:47 +0000";
layers = (
{
layerId = "49F060A0-2273-4F54-8B81-08E0B15B03EC";
shapes = (
{
closed = 1;
nodes = (
(375,-13,o),
(456,-15,o),
(500,12,cs),
(543,38,o),
(552,91,o),
(552,137,cs),
(551,200,o),
(526,247,o),
(478,251,cs),
(469,252,o),
(469,261,o),
(478,261,cs),
(574,261,o),
(572,442,o),
(571,519,cs),
(572,647,o),
(543,786,o),
(326,786,cs),
(129,786,o),
(28,691,o),
(28,558,cs),
(28,494,o),
(46,455,o),
(81,436,cs),
(101,427,o),
(125,424,o),
(154,424,cs),
(211,424,o),
(278,436,o),
(329,436,cs),
(371,436,o),
(402,427,o),
(403,379,cs),
(403,359,o),
(392,344,o),
(372,333,cs),
(333,312,o),
(316,286,o),
(316,249,cs),
(316,222,o),
(334,201,o),
(376,168,cs),
(386,160,o),
(392,150,o),
(392,139,cs),
(392,112,o),
(367,92,o),
(307,92,cs),
(263,92,o),
(256,92,o),
(194,92,cs),
(153,92,o),
(130,69,o),
(130,39,cs),
(130,10,o),
(153,-13,o),
(194,-13,cs),
(256,-13,o),
(263,-13,o),
(304,-13,cs)
);
}
);
width = 601;
}
);
unicode = 51;
},
{
color = 10;
glyphname = four;
lastChange = "2023-11-13 20:41:25 +0000";
layers = (
{
layerId = "49F060A0-2273-4F54-8B81-08E0B15B03EC";
shapes = (
{
closed = 1;
nodes = (
(36,374,o),
(33,303,o),
(33,277,cs),
(33,152,o),
(103,152,o),
(233,152,cs),
(404,152,ls),
(408,152,o),
(411,151,o),
(412,147,c),
(431,35,o),
(462,-15,o),
(500,-15,cs),
(539,-15,o),
(564,38,o),
(588,147,cs),
(589,151,o),
(592,153,o),
(596,153,cs),
(655,153,o),
(663,183,o),
(663,213,cs),
(663,232,o),
(660,265,o),
(611,265,cs),
(606,265,o),
(605,269,o),
(605,271,cs),
(616,345,o),
(624,404,o),
(624,475,cs),
(624,476,ls),
(624,597,o),
(605,673,o),
(580,719,cs),
(551,771,o),
(514,785,o),
(485,785,cs),
(408,785,o),
(439,785,o),
(404,785,cs),
(340,785,o),
(311,769,o),
(283,730,cs),
(174,581,o),
(104,480,o),
(66,418,c)
);
},
{
closed = 1;
nodes = (
(302,268,o),
(290,273,o),
(286,282,cs),
(285,284,o),
(284,288,o),
(284,293,cs),
(284,299,o),
(286,306,o),
(294,321,cs),
(310,351,o),
(328,376,o),
(360,376,cs),
(379,376,o),
(392,367,o),
(392,322,cs),
(392,268,o),
(374,268,o),
(355,268,cs),
(319,268,ls)
);
},
{
closed = 0;
nodes = (
(611,265,l)
);
}
);
width = 703;
}
);
unicode = 52;
},
{
color = 10;
glyphname = five;
lastChange = "2023-11-14 04:52:58 +0000";
layers = (
{
layerId = "49F060A0-2273-4F54-8B81-08E0B15B03EC";
shapes = (
{
closed = 1;
nodes = (
(230,326,o),
(235,321,o),
(268,317,cs),
(375,304,o),
(514,285,o),
(512,189,cs),
(512,175,o),
(510,158,o),
(503,127,cs),
(497,100,o),
(479,27,o),
(420,-3,cs),
(395,-16,o),
(370,-17,o),
(299,-17,cs),
(173,-17,ls),
(136,-17,o),
(115,6,o),
(115,35,cs),
(115,65,o),
(136,88,o),
(173,88,cs),
(343,88,ls),
(377,88,o),
(387,99,o),
(387,131,cs),
(387,157,o),
(380,183,o),
(247,183,cs),
(221,183,o),
(147,183,o),
(114,205,cs),
(80,228,o),
(59,295,o),
(45,440,cs),
(39,501,o),
(36,563,o),
(36,601,cs),
(36,623,o),
(37,658,o),
(38,671,cs),
(42,728,o),
(76,745,o),
(102,755,cs),
(156,776,o),
(226,784,o),
(289,784,cs),
(493,784,o),
(594,700,o),
(594,554,cs),
(594,491,o),
(575,451,o),
(540,434,cs),
(520,424,o),
(493,422,o),
(469,422,cs),
(410,422,o),
(352,434,o),
(300,434,cs),
(270,434,o),
(255,430,o),
(242,415,cs),
(232,403,o),
(230,389,o),
(230,368,cs)
);
}
);
width = 614;
}
);
unicode = 53;
},
{
color = 10;
glyphname = six;
lastChange = "2023-11-14 05:22:43 +0000";
layers = (
{
layerId = "49F060A0-2273-4F54-8B81-08E0B15B03EC";
shapes = (
{
closed = 1;
nodes = (
(243,91,o),
(209,97,o),
(209,143,cs),
(209,175,o),
(212,207,o),
(300,193,cs),
(356,184,o),
(394,175,o),
(391,143,cs),
(385,88,o),
(357,91,o),
(300,91,cs)
);
},
{
closed = 1;
nodes = (
(291,-14,ls),
(355,-14,o),
(384,-14,o),
(412,0,cs),
(471,30,o),
(489,103,o),
(495,130,cs),
(502,161,o),
(504,179,o),
(504,191,cs),
(504,288,o),
(375,305,o),
(283,317,cs),
(228,324,o),
(222,328,o),
(222,369,cs),
(222,393,o),
(224,406,o),
(234,418,cs),
(247,434,o),
(267,437,o),
(293,437,cs),
(354,437,o),
(402,421,o),
(466,421,cs),
(493,421,o),
(516,424,o),
(535,433,cs),
(570,450,o),
(589,490,o),
(589,553,cs),
(589,699,o),
(488,787,o),
(282,787,cs),
(216,787,o),
(144,778,o),
(94,758,cs),
(69,748,o),
(29,729,o),
(28,652,cs),
(27,572,o),
(27,476,o),
(34,385,cs),
(42,279,o),
(75,111,o),
(101,52,cs),
(114,23,o),
(128,-14,o),
(189,-14,cs)
);
}
);
width = 617;
}
);
unicode = 54;
},
{
color = 10;
glyphname = seven;
lastChange = "2023-11-14 05:36:50 +0000";
layers = (
{
layerId = "49F060A0-2273-4F54-8B81-08E0B15B03EC";
shapes = (
{
closed = 1;
nodes = (
(206,46,o),
(407,195,o),
(452,231,cs),
(483,256,o),
(504,287,o),
(519,321,cs),
(548,389,o),
(551,466,o),
(551,520,cs),
(551,648,o),
(522,787,o),
(304,787,cs),
(106,786,o),
(5,692,o),
(5,559,cs),
(5,494,o),
(23,455,o),
(58,436,cs),
(78,427,o),
(102,424,o),
(131,424,cs),
(189,424,o),
(256,436,o),
(307,436,cs),
(349,436,o),
(380,434,o),
(380,388,cs),
(380,364,o),
(368,347,o),
(351,333,cs),
(243,241,o),
(164,170,o),
(87,93,cs),
(58,64,o),
(58,31,o),
(78,10,cs),
(99,-11,o),
(126,-7,o),
(162,19,c)
);
}
);
width = 601;
}
);
unicode = 55;
},
{
color = 10;
glyphname = eight;
lastChange = "2023-11-14 06:13:04 +0000";
layers = (
{
layerId = "49F060A0-2273-4F54-8B81-08E0B15B03EC";
shapes = (
{
closed = 1;
nodes = (
(249,90,o),
(222,97,o),
(222,138,c),
(222,177,o),
(249,184,o),
(302,184,cs),
(355,184,o),
(382,177,o),
(382,138,c),
(382,97,o),
(355,90,o),
(302,90,cs)
);
},
{
closed = 1;
nodes = (
(238,322,o),
(206,331,o),
(206,379,c),
(206,427,o),
(238,436,o),
(302,436,cs),
(366,436,o),
(399,427,o),
(399,379,c),
(399,331,o),
(366,322,o),
(302,322,cs)
);
},
{
closed = 1;
nodes = (
(351,-9,o),
(435,-11,o),
(479,17,cs),
(522,44,o),
(530,100,o),
(530,139,cs),
(530,194,o),
(514,236,o),
(480,250,cs),
(472,253,o),
(471,260,o),
(480,260,cs),
(577,260,o),
(575,442,o),
(575,520,cs),
(575,649,o),
(546,789,o),
(305,789,cs),
(64,789,o),
(35,649,o),
(35,520,cs),
(35,442,o),
(33,260,o),
(130,260,cs),
(139,260,o),
(138,253,o),
(130,250,cs),
(96,236,o),
(80,194,o),
(80,139,cs),
(80,100,o),
(88,44,o),
(131,17,cs),
(175,-11,o),
(259,-9,o),
(305,-9,cs)
);
},
{
closed = 0;
nodes = (
(399,379,l)
);
}
);
width = 610;
}
);
unicode = 56;
},
{
color = 10;
glyphname = nine;
lastChange = "2023-11-14 07:01:24 +0000";
layers = (
{
layerId = "49F060A0-2273-4F54-8B81-08E0B15B03EC";
shapes = (
{
closed = 1;
nodes = (
(237,318,o),
(199,321,o),
(199,375,cs),
(199,424,o),
(231,432,o),
(295,432,cs),
(359,432,o),
(392,423,o),
(392,375,c),
(391,318,o),
(351,318,o),
(295,318,c)
);
},
{
closed = 0;
nodes = (
(392,375,l)
);
},
{
closed = 1;
nodes = (
(191,94,l),
(150,94,o),
(127,71,o),
(127,41,cs),
(127,12,o),
(150,-11,o),
(191,-11,cs),
(253,-11,o),
(260,-11,o),
(340,-11,cs),
(413,-11,o),
(462,25,o),
(496,79,cs),
(568,195,o),
(568,395,o),
(568,510,cs),
(568,642,o),
(539,785,o),
(300,785,cs),
(63,785,o),
(28,645,o),
(28,540,cs),
(28,479,o),
(40,406,o),
(57,356,cs),
(78,294,o),
(112,259,o),
(201,253,cs),
(215,252,o),
(235,251,o),
(253,251,cs),
(299,251,o),
(314,252,o),
(342,256,cs),
(364,259,o),
(374,269,o),
(377,272,cs),
(386,281,o),
(392,279,o),
(392,263,cs),
(392,228,o),
(383,182,o),
(378,164,cs),
(359,99,o),
(344,94,o),
(299,94,cs)
);
}
);
width = 588;
}
);
unicode = 57;
},
{
color = 10;
glyphname = period;
lastChange = "2023-11-15 13:30:41 +0000";
layers = (
{
anchors = (
{
name = _bottom;
pos = (116,-6);
}
);
layerId = "49F060A0-2273-4F54-8B81-08E0B15B03EC";
shapes = (
{
closed = 1;
nodes = (
(148,-9,o),
(176,17,o),
(176,53,cs),
(176,90,o),
(148,117,o),
(109,117,cs),
(70,117,o),
(42,90,o),
(42,53,cs),
(42,17,o),
(70,-9,o),
(109,-9,cs)
);
}
);
width = 218;
}
);
unicode = 46;
},
{
color = 10;
glyphname = comma;
lastChange = "2023-11-03 00:49:53 +0000";
layers = (
{
layerId = "49F060A0-2273-4F54-8B81-08E0B15B03EC";
shapes = (
{
closed = 1;
nodes = (
(10,18,o),
(18,-11,o),
(41,-20,cs),
(58,-27,o),
(61,-43,o),
(47,-58,cs),
(28,-79,o),
(22,-103,o),
(33,-119,cs),
(44,-135,o),
(68,-139,o),
(99,-119,cs),
(144,-89,o),
(164,-30,o),
(164,22,cs),
(164,86,o),
(139,118,o),
(90,118,cs),
(37,118,o),
(10,91,o),
(10,39,cs)
);
}
);
width = 174;
}
);
unicode = 44;
},
{
color = 10;
glyphname = colon;
lastChange = "2023-11-14 11:10:32 +0000";
layers = (
{
layerId = "49F060A0-2273-4F54-8B81-08E0B15B03EC";
shapes = (
{
closed = 1;
nodes = (
(10,234,o),
(60,196,o),
(139,196,cs),
(221,196,o),
(271,234,o),
(271,303,cs),
(271,372,o),
(221,408,o),
(139,408,cs),
(60,408,o),
(10,372,o),
(10,303,cs)
);
},
{
closed = 1;
nodes = (
(181,0,o),
(209,26,o),
(209,62,cs),
(209,99,o),
(181,126,o),
(142,126,cs),
(103,126,o),
(75,99,o),
(75,62,cs),
(75,26,o),
(103,0,o),
(142,0,cs)
);
}
);
width = 281;
}
);
unicode = 58;
},
{
color = 10;
glyphname = semicolon;
lastChange = "2023-11-14 09:20:44 +0000";
layers = (
{
layerId = "49F060A0-2273-4F54-8B81-08E0B15B03EC";
shapes = (
{
closed = 1;
nodes = (
(62,18,o),
(70,-11,o),
(93,-20,cs),
(110,-27,o),
(113,-43,o),
(99,-58,cs),
(80,-79,o),
(74,-103,o),
(85,-119,cs),
(96,-135,o),
(120,-139,o),
(151,-119,cs),
(196,-89,o),
(216,-30,o),
(216,22,cs),
(216,86,o),
(191,118,o),
(142,118,cs),
(89,118,o),
(62,91,o),
(62,39,cs)
);
},
{
closed = 1;
nodes = (
(10,237,o),
(60,199,o),
(139,199,cs),
(221,199,o),
(271,237,o),
(271,306,cs),
(271,375,o),
(221,411,o),
(139,411,cs),
(60,411,o),
(10,375,o),
(10,306,cs)
);
}
);
width = 281;
}
);
unicode = 59;
},
{
color = 10;
glyphname = ellipsis;
lastChange = "2023-11-14 11:11:09 +0000";
layers = (
{
layerId = "49F060A0-2273-4F54-8B81-08E0B15B03EC";
shapes = (
{
closed = 1;
nodes = (
(136,-1,o),
(164,25,o),
(164,61,cs),
(164,98,o),
(136,125,o),
(97,125,cs),
(58,125,o),
(30,98,o),
(30,61,cs),
(30,25,o),
(58,-1,o),
(97,-1,cs)
);
},
{
closed = 1;
nodes = (
(334,-3,o),
(362,23,o),
(362,59,cs),
(362,96,o),
(334,123,o),
(295,123,cs),
(256,123,o),
(228,96,o),
(228,59,cs),
(228,23,o),
(256,-3,o),
(295,-3,cs)
);
},
{
closed = 1;
nodes = (
(532,-3,o),
(560,23,o),
(560,59,cs),
(560,96,o),
(532,123,o),
(493,123,cs),
(454,123,o),
(426,96,o),
(426,59,cs),
(426,23,o),
(454,-3,o),
(493,-3,cs)
);
}
);
width = 600;
}
);
unicode = 8230;
},
{
color = 10;
glyphname = exclam;
lastChange = "2023-11-14 12:51:25 +0000";
layers = (
{
layerId = "49F060A0-2273-4F54-8B81-08E0B15B03EC";
shapes = (
{
closed = 1;
nodes = (
(193,-1,o),
(221,25,o),
(221,61,cs),
(221,98,o),
(193,125,o),
(154,125,cs),
(115,125,o),
(87,98,o),
(87,61,cs),
(87,25,o),
(115,-1,o),
(154,-1,cs)
);
},
{
closed = 1;
nodes = (
(191,188,o),
(210,214,o),
(224,260,cs),
(249,346,o),
(279,488,o),
(279,627,cs),
(279,729,o),
(222,786,o),
(154,786,cs),
(87,786,o),
(29,729,o),
(29,627,cs),
(29,488,o),
(59,346,o),
(85,260,cs),
(99,214,o),
(118,188,o),
(154,188,cs)
);
}
);
width = 301;
}
);
unicode = 33;
},
{
glyphname = exclamdown;
lastChange = "2023-11-14 11:11:38 +0000";
layers = (
{
layerId = "49F060A0-2273-4F54-8B81-08E0B15B03EC";
shapes = (
{
closed = 1;
nodes = (
(230,758,o),
(200,784,o),
(150,784,cs),
(100,784,o),
(70,758,o),
(70,710,cs),
(70,661,o),
(100,634,o),
(150,634,cs),
(200,634,o),
(230,661,o),
(230,710,cs)
);
},
{
closed = 1;
nodes = (
(188,-1,o),
(207,25,o),
(221,71,cs),
(246,157,o),
(276,299,o),
(276,438,cs),
(276,540,o),
(219,597,o),
(151,597,cs),
(84,597,o),
(26,540,o),
(26,438,cs),
(26,299,o),
(56,157,o),
(82,71,cs),
(96,25,o),
(115,-1,o),
(151,-1,cs)
);
}
);
width = 301;
}
);
unicode = 161;
},
{
color = 10;
glyphname = question;
lastChange = "2023-11-14 11:08:13 +0000";
layers = (
{
layerId = "49F060A0-2273-4F54-8B81-08E0B15B03EC";
shapes = (
{
closed = 1;
nodes = (
(300,357,o),
(328,417,o),
(328,446,cs),
(328,462,o),
(312,462,o),
(253,462,cs),
(219,462,o),
(140,458,o),
(111,458,cs),
(35,458,o),
(-3,506,o),
(-3,585,cs),
(-3,705,o),
(83,784,o),
(247,784,cs),
(408,784,o),
(501,699,o),
(501,565,cs),
(501,425,o),
(426,309,o),
(328,211,cs),
(300,183,o),
(258,185,o),
(240,205,cs),
(221,226,o),
(233,260,o),
(256,293,cs)
);
},
{
closed = 1;
nodes = (
(320,0,o),
(348,26,o),
(348,62,cs),
(348,99,o),
(320,126,o),
(281,126,cs),
(242,126,o),
(214,99,o),
(214,62,cs),
(214,26,o),
(242,0,o),
(281,0,cs)
);
}
);
width = 574;
}
);
unicode = 63;
},
{
glyphname = questiondown;
lastChange = "2023-11-14 11:09:07 +0000";
layers = (
{
layerId = "49F060A0-2273-4F54-8B81-08E0B15B03EC";
shapes = (
{
closed = 1;
nodes = (
(353,756,o),
(319,786,o),
(263,786,cs),
(206,786,o),
(172,756,o),
(172,700,cs),
(172,646,o),
(206,617,o),
(263,617,cs),
(319,617,o),
(353,646,o),
(353,700,cs)
);
},
{
closed = 1;
nodes = (
(497,-32,o),
(402,-37,o),
(319,-37,cs),
(303,-37,o),
(288,-37,o),
(274,-37,cs),
(113,-37,o),
(20,48,o),
(20,182,cs),
(20,322,o),
(68,425,o),
(149,506,cs),
(176,533,o),
(207,547,o),
(242,547,cs),
(266,547,o),
(292,540,o),
(319,526,cs),
(376,497,o),
(400,460,o),
(400,419,cs),
(400,363,o),
(356,301,o),
(295,241,cs),
(251,198,o),
(165,135,o),
(165,106,cs),
(165,90,o),
(181,90,o),
(240,90,cs),
(274,90,o),
(353,94,o),
(382,94,cs),
(392,94,o),
(403,94,o),
(413,94,cs),
(458,94,o),
(497,90,o),
(497,40,c)
);
}
);
width = 547;
}
);
unicode = 191;
},
{
color = 10;
glyphname = periodcentered;
lastChange = "2023-11-03 02:05:26 +0000";
layers = (
{
anchors = (
{
name = _centered;
pos = (111,396);
}
);
layerId = "49F060A0-2273-4F54-8B81-08E0B15B03EC";
shapes = (
{
closed = 1;
nodes = (
(191,372,o),
(161,399,o),
(111,399,cs),
(61,399,o),
(31,372,o),
(31,323,cs),
(31,275,o),
(61,249,o),
(111,249,cs),
(161,249,o),
(191,275,o),
(191,323,cs)
);
}
);
width = 221;
}
);
unicode = 183;
},
{
color = 10;
glyphname = bullet;
lastChange = "2023-11-07 05:30:41 +0000";
layers = (
{
layerId = "49F060A0-2273-4F54-8B81-08E0B15B03EC";
shapes = (
{
closed = 1;
nodes = (
(252,405,o),
(210,442,o),
(141,442,cs),
(72,442,o),
(30,405,o),
(30,336,cs),
(30,270,o),
(72,234,o),
(141,234,cs),
(210,234,o),
(252,270,o),
(252,336,cs)
);
}
);
width = 282;
}
);
unicode = 8226;
},
{
color = 10;
glyphname = asterisk;
lastChange = "2023-11-14 12:53:32 +0000";
layers = (
{
layerId = "49F060A0-2273-4F54-8B81-08E0B15B03EC";
shapes = (
{
closed = 1;
nodes = (
(446,447,o),
(440,456,o),
(415,471,cs),
(371,497,o),
(330,523,o),
(291,547,cs),
(219,588,o),
(157,628,o),
(115,647,cs),
(47,677,o),
(15,663,o),
(1,630,cs),
(-13,597,o),
(-2,564,o),
(64,535,cs),
(108,515,o),
(178,495,o),
(256,471,cs),
(301,456,o),
(346,441,o),
(396,426,cs),
(422,418,o),
(435,421,o),
(439,434,cs)
);
},
{
closed = 1;
nodes = (
(5,422,o),
(18,419,o),
(44,427,cs),
(94,442,o),
(139,457,o),
(184,472,cs),
(262,496,o),
(332,516,o),
(376,536,cs),
(442,565,o),
(453,598,o),
(439,631,cs),
(425,664,o),
(393,678,o),
(325,648,cs),
(283,629,o),
(221,589,o),
(149,548,cs),
(110,524,o),
(69,498,o),
(25,472,cs),
(0,457,o),
(-6,448,o),
(1,435,c)
);
},
{
closed = 1;
nodes = (
(249,321,o),
(265,341,o),
(276,378,cs),
(296,448,o),
(321,561,o),
(321,673,cs),
(321,754,o),
(275,800,o),
(220,800,cs),
(167,800,o),
(120,754,o),
(120,673,cs),
(120,561,o),
(144,448,o),
(165,378,cs),
(175,341,o),
(192,321,o),
(220,321,cs)
);
}
);
width = 460;
}
);
unicode = 42;
},
{
color = 10;
glyphname = numbersign;
lastChange = "2023-11-14 11:50:41 +0000";
layers = (
{
layerId = "49F060A0-2273-4F54-8B81-08E0B15B03EC";
shapes = (
{
closed = 1;
nodes = (
(121,-2,o),
(117,14,o),
(130,53,cs),
(170,168,ls),
(191,228,o),
(212,285,o),
(231,337,c),
(274,335,o),
(322,332,o),
(376,328,c),
(349,280,o),
(319,229,o),
(287,174,c),
(243,171,o),
(204,169,o),
(170,168,cs),
(157,167,o),
(145,167,o),
(133,167,cs),
(35,166,o),
(0,203,o),
(0,254,cs),
(1,306,o),
(33,342,o),
(133,341,cs),
(161,341,o),
(194,339,o),
(231,337,c),
(242,368,o),
(253,398,o),
(264,426,cs),
(288,491,o),
(311,549,o),
(330,597,c),
(383,595,o),
(445,591,o),
(516,585,c),
(495,544,o),
(468,493,o),
(436,435,c),
(368,430,o),
(310,427,o),
(264,426,cs),
(250,426,ls),
(152,425,o),
(117,462,o),
(117,513,cs),
(118,565,o),
(150,601,o),
(250,600,cs),
(274,600,o),
(300,599,o),
(330,597,c),
(341,624,o),
(351,647,o),
(360,668,cs),
(404,763,o),
(453,779,o),
(499,758,cs),
(546,736,o),
(565,688,o),
(520,593,cs),
(519,590,o),
(517,588,o),
(516,585,c),
(535,583,o),
(555,582,o),
(576,580,cs),
(632,575,o),
(692,569,o),
(755,563,c),
(740,532,o),
(721,497,o),
(701,459,c),
(637,452,o),
(577,446,o),
(522,442,c),
(576,580,ls),
(589,613,o),
(602,642,o),
(613,667,cs),
(656,763,o),
(705,779,o),
(751,757,cs),
(798,735,o),
(817,688,o),
(771,594,cs),
(755,563,l),
(793,559,o),
(832,554,o),
(872,550,cs),
(911,546,o),
(923,537,o),
(923,516,cs),
(923,494,o),
(911,481,o),
(871,477,cs),
(811,470,o),
(754,464,o),
(701,459,c),
(676,413,o),
(647,362,o),
(616,306,cs),
(553,197,l),
(509,192,o),
(467,188,o),
(428,185,c),
(445,232,o),
(461,277,o),
(477,319,c),
(520,315,o),
(567,311,o),
(616,306,cs),
(755,291,ls),
(794,287,o),
(806,278,o),
(806,257,cs),
(806,235,o),
(794,222,o),
(754,218,cs),
(683,210,o),
(616,203,o),
(553,197,c),
(521,141,o),
(486,83,o),
(449,21,cs),
(426,-13,o),
(412,-21,o),
(392,-11,cs),
(373,-2,o),
(369,14,o),
(382,53,cs),
(398,99,o),
(413,143,o),
(428,185,c),
(377,180,o),
(330,177,o),
(287,174,c),
(259,126,o),
(229,75,o),
(197,22,cs),
(174,-12,o),
(160,-21,o),
(140,-11,cs)
);
},
{
closed = 1;
nodes = (
(477,319,l),
(492,363,o),
(508,404,o),
(522,442,c),
(492,439,o),
(463,437,o),
(436,435,c),
(418,402,o),
(398,366,o),
(376,328,c)
);
},
{
closed = 0;
nodes = (
(324,624,l),
(328,624,o),
(330,627,o),
(330,630,cs),
(330,634,o),
(328,636,o),
(324,636,c)
);
},
{
closed = 0;
nodes = (
(304,647,l),
(309,647,o),
(313,651,o),
(313,656,cs),
(313,661,o),
(309,664,o),
(304,664,c)
);
}
);
width = 923;
}
);
unicode = 35;
},
{
color = 10;
glyphname = slash;
lastChange = "2023-11-14 11:25:58 +0000";
layers = (
{
layerId = "49F060A0-2273-4F54-8B81-08E0B15B03EC";
shapes = (
{
closed = 1;
nodes = (
(9,-18,o),
(5,-1,o),
(18,40,c),
(119,332,o),
(205,559,o),
(260,687,cs),
(307,787,o),
(358,804,o),
(407,781,cs),
(456,758,o),
(476,708,o),
(429,608,cs),
(366,483,o),
(248,272,o),
(89,7,c),
(65,-29,o),
(50,-38,o),
(29,-28,cs)
);
}
);
width = 466;
}
);
unicode = 47;
},
{
color = 10;
glyphname = backslash;
lastChange = "2023-11-14 11:25:41 +0000";
layers = (
{
layerId = "49F060A0-2273-4F54-8B81-08E0B15B03EC";
shapes = (
{
closed = 1;
nodes = (
(416,-36,o),
(401,-27,o),
(377,9,c),
(218,274,o),
(100,485,o),
(37,610,cs),
(-10,710,o),
(10,760,o),
(59,783,cs),
(108,806,o),
(159,789,o),
(206,689,cs),
(261,561,o),
(347,334,o),
(448,42,c),
(461,1,o),
(457,-16,o),
(437,-26,cs)
);
}
);
width = 466;
}
);
unicode = 92;
},
{
glyphname = periodcentered.loclCAT;
lastChange = "2023-11-15 13:29:41 +0000";
layers = (
{
layerId = "49F060A0-2273-4F54-8B81-08E0B15B03EC";
shapes = (
{
closed = 1;
nodes = (
(375,338,o),
(345,365,o),
(295,365,cs),
(245,365,o),
(215,338,o),
(215,289,cs),
(215,241,o),
(245,215,o),
(295,215,cs),
(345,215,o),
(375,241,o),
(375,289,cs)
);
}
);
width = 600;
}
);
},
{
glyphname = periodcentered.loclCAT.case;
lastChange = "2023-11-15 13:29:30 +0000";
layers = (
{
layerId = "49F060A0-2273-4F54-8B81-08E0B15B03EC";
shapes = (
{
closed = 1;
nodes = (
(376,340,o),
(346,367,o),
(296,367,cs),
(246,367,o),
(216,340,o),
(216,291,cs),
(216,243,o),
(246,217,o),
(296,217,cs),
(346,217,o),
(376,243,o),
(376,291,cs)
);
}
);
width = 600;
}
);
},
{
color = 10;
glyphname = hyphen;
lastChange = "2023-11-14 20:43:05 +0000";
layers = (
{
layerId = "49F060A0-2273-4F54-8B81-08E0B15B03EC";
shapes = (
{
closed = 1;
nodes = (
(305,248,o),
(250,248,o),
(301,248,cs),
(336,248,o),
(355,267,o),
(355,291,cs),
(355,316,o),
(336,335,o),
(301,335,cs),
(250,335,o),
(305,335,o),
(268,335,cs),
(231,335,o),
(122,335,o),
(71,335,cs),
(36,335,o),
(17,316,o),
(17,291,cs),
(17,267,o),
(36,248,o),
(71,248,cs),
(122,248,o),
(231,248,o),
(268,248,cs)
);
}
);
width = 374;
}
);
unicode = 45;
},
{
color = 10;
glyphname = endash;
lastChange = "2023-11-15 11:36:19 +0000";
layers = (
{
layerId = "49F060A0-2273-4F54-8B81-08E0B15B03EC";
shapes = (
{
closed = 1;
nodes = (
(285,239,o),
(371,252,o),
(407,259,cs),
(483,274,o),
(513,292,o),
(513,315,cs),
(513,339,o),
(486,352,o),
(401,368,cs),
(379,371,o),
(295,384,o),
(188,384,cs),
(61,384,o),
(26,352,o),
(26,311,cs),
(26,268,o),
(63,239,o),
(192,239,cs)
);
}
);
width = 515;
}
);
unicode = 8211;
},
{
color = 10;
glyphname = emdash;
lastChange = "2023-11-14 20:41:34 +0000";
layers = (
{
layerId = "49F060A0-2273-4F54-8B81-08E0B15B03EC";
shapes = (
{
closed = 1;
nodes = (
(530,262,o),
(627,262,o),
(678,262,cs),
(713,262,o),
(732,281,o),
(732,305,cs),
(732,330,o),
(713,349,o),
(678,349,cs),
(627,349,o),
(530,349,o),
(493,349,cs),
(456,349,o),
(125,349,o),
(74,349,cs),
(39,349,o),
(20,330,o),
(20,305,cs),
(20,281,o),
(39,262,o),
(74,262,cs),
(125,262,o),
(456,262,o),
(493,262,cs)
);
}
);
width = 752;
}
);
unicode = 8212;
},
{
color = 10;
glyphname = underscore;
lastChange = "2023-11-14 20:40:31 +0000";
layers = (
{
layerId = "49F060A0-2273-4F54-8B81-08E0B15B03EC";
shapes = (
{
closed = 1;
nodes = (
(308,-148,o),
(405,-148,o),
(456,-148,cs),
(491,-148,o),
(510,-129,o),
(510,-105,cs),
(510,-80,o),
(491,-61,o),
(456,-61,cs),
(405,-61,o),
(308,-61,o),
(271,-61,cs),
(234,-61,o),
(135,-61,o),
(84,-61,cs),
(49,-61,o),
(30,-80,o),
(30,-105,cs),
(30,-129,o),
(49,-148,o),
(84,-148,cs),
(135,-148,o),
(234,-148,o),
(271,-148,cs)
);
}
);
width = 540;
}
);
unicode = 95;
},
{
color = 10;
glyphname = parenleft;
lastChange = "2023-11-14 10:11:42 +0000";
layers = (
{
layerId = "49F060A0-2273-4F54-8B81-08E0B15B03EC";
shapes = (
{
closed = 1;
nodes = (
(229,370,o),
(206,266,o),
(206,186,cs),
(206,92,o),
(238,32,o),
(255,-6,cs),
(271,-39,o),
(279,-57,o),
(279,-70,cs),
(279,-79,o),
(275,-89,o),
(267,-95,cs),
(261,-99,o),
(255,-101,o),
(248,-101,cs),
(224,-101,o),
(194,-78,o),
(158,-26,cs),
(84,83,o),
(41,204,o),
(41,350,cs),
(41,417,o),
(49,489,o),
(68,566,cs),
(105,724,o),
(160,799,o),
(247,799,cs),
(312,799,o),
(369,755,o),
(369,675,cs),
(369,628,o),
(328,562,o),
(302,507,c)
);
}
);
width = 391;
}
);
unicode = 40;
},
{
color = 10;
glyphname = parenright;
lastChange = "2023-11-14 10:11:05 +0000";
layers = (
{
layerId = "49F060A0-2273-4F54-8B81-08E0B15B03EC";
shapes = (
{
closed = 1;
nodes = (
(61,562,o),
(20,628,o),
(20,675,cs),
(20,755,o),
(77,799,o),
(142,799,cs),
(229,799,o),
(284,724,o),
(321,566,cs),
(340,489,o),
(348,417,o),
(348,350,cs),
(348,204,o),
(305,83,o),
(231,-26,cs),
(195,-78,o),
(165,-101,o),
(141,-101,cs),
(134,-101,o),
(128,-99,o),
(122,-95,cs),
(114,-89,o),
(110,-79,o),
(110,-70,cs),
(110,-57,o),
(118,-39,o),
(134,-6,cs),
(151,32,o),
(183,92,o),
(183,186,cs),
(183,266,o),
(160,370,o),
(87,507,c)
);
}
);
width = 389;
}
);
unicode = 41;
},
{
color = 10;
glyphname = braceleft;
lastChange = "2023-11-14 21:47:29 +0000";
layers = (
{
layerId = "49F060A0-2273-4F54-8B81-08E0B15B03EC";
shapes = (
{
closed = 1;
nodes = (
(195,364,o),
(252,401,o),
(252,468,cs),
(252,509,o),
(238,538,o),
(238,569,cs),
(238,583,o),
(240,600,o),
(272,600,cs),
(332,600,o),
(363,626,o),
(363,696,cs),
(363,777,o),
(311,807,o),
(208,807,cs),
(125,807,o),
(77,767,o),
(77,676,cs),
(77,590,o),
(109,553,o),
(109,499,cs),
(109,463,o),
(94,444,o),
(79,432,cs),
(32,395,o),
(17,372,o),
(17,354,cs),
(17,332,o),
(32,317,o),
(79,280,cs),
(90,271,o),
(109,253,o),
(109,215,cs),
(109,162,o),
(72,129,o),
(72,51,cs),
(72,-62,o),
(147,-96,o),
(226,-96,cs),
(260,-96,o),
(295,-89,o),
(317,-80,cs),
(354,-63,o),
(370,-38,o),
(354,-22,cs),
(343,-11,o),
(325,-13,o),
(300,-30,cs),
(255,-63,o),
(221,-48,o),
(203,-38,cs),
(174,-22,o),
(171,11,o),
(171,45,cs),
(171,114,o),
(202,157,o),
(215,216,cs),
(227,273,o),
(207,305,o),
(174,338,cs),
(173,339,o),
(173,340,o),
(173,341,cs),
(173,342,o),
(174,343,o),
(175,344,cs)
);
}
);
width = 381;
}
);
unicode = 123;
},
{
color = 10;
glyphname = braceright;
lastChange = "2023-11-14 21:48:06 +0000";
layers = (
{
layerId = "49F060A0-2273-4F54-8B81-08E0B15B03EC";
shapes = (
{
closed = 1;
nodes = (
(207,343,o),
(208,342,o),
(208,341,cs),
(208,340,o),
(208,339,o),
(207,338,cs),
(174,305,o),
(154,273,o),
(166,216,cs),
(179,157,o),
(210,114,o),
(210,45,cs),
(210,11,o),
(207,-22,o),
(178,-38,cs),
(160,-48,o),
(126,-63,o),
(81,-30,cs),
(56,-13,o),
(38,-11,o),
(27,-22,cs),
(11,-38,o),
(27,-63,o),
(64,-80,cs),
(86,-89,o),
(121,-96,o),
(155,-96,cs),
(234,-96,o),
(309,-62,o),
(309,51,cs),
(309,129,o),
(272,162,o),
(272,215,cs),
(272,253,o),
(291,271,o),
(302,280,cs),
(349,317,o),
(364,332,o),
(364,354,cs),
(364,372,o),
(349,395,o),
(302,432,cs),
(287,444,o),
(272,463,o),
(272,499,cs),
(272,553,o),
(304,590,o),
(304,676,cs),
(304,767,o),
(256,807,o),
(173,807,cs),
(70,807,o),
(18,777,o),
(18,696,cs),
(18,626,o),
(49,600,o),
(109,600,cs),
(141,600,o),
(143,583,o),
(143,569,cs),
(143,538,o),
(129,509,o),
(129,468,cs),
(129,401,o),
(186,364,o),
(206,344,cs)
);
}
);
width = 381;
}
);
unicode = 125;
},
{
color = 10;
glyphname = bracketleft;
lastChange = "2023-11-14 21:18:17 +0000";
layers = (
{
layerId = "49F060A0-2273-4F54-8B81-08E0B15B03EC";
shapes = (
{
closed = 1;
nodes = (
(271,-60,o),
(262,-75,o),
(244,-83,cs),
(219,-94,o),
(179,-99,o),
(126,-99,cs),
(115,-99,o),
(105,-99,o),
(96,-97,cs),
(82,-92,o),
(73,-83,o),
(70,-74,cs),
(53,-30,o),
(42,255,o),
(42,653,cs),
(42,739,o),
(53,778,o),
(83,794,cs),
(95,801,o),
(119,804,o),
(167,804,cs),
(292,804,o),
(374,770,o),
(374,689,cs),
(374,618,o),
(331,589,o),
(269,587,cs),
(259,587,o),
(256,582,o),
(256,572,cs),
(256,510,o),
(199,162,o),
(199,28,cs),
(199,15,o),
(199,14,o),
(215,11,cs),
(229,8,o),
(236,7,o),
(242,4,cs),
(258,-3,o),
(271,-11,o),
(271,-38,cs)
);
}
);
width = 384;
}
);
unicode = 91;
},
{
color = 10;
glyphname = bracketright;
lastChange = "2023-11-14 21:18:48 +0000";
layers = (
{
layerId = "49F060A0-2273-4F54-8B81-08E0B15B03EC";
shapes = (
{
closed = 1;
nodes = (
(113,-11,o),
(126,-3,o),
(142,4,cs),
(148,7,o),
(155,8,o),
(169,11,cs),
(185,14,o),
(185,15,o),
(185,28,cs),
(185,162,o),
(128,510,o),
(128,572,cs),
(128,582,o),
(125,587,o),
(115,587,cs),
(53,589,o),
(10,618,o),
(10,689,cs),
(10,770,o),
(92,804,o),
(217,804,cs),
(265,804,o),
(289,801,o),
(301,794,cs),
(331,778,o),
(342,739,o),
(342,653,cs),
(342,255,o),
(331,-30,o),
(314,-74,cs),
(311,-83,o),
(302,-92,o),
(288,-97,cs),
(279,-99,o),
(269,-99,o),
(258,-99,cs),
(205,-99,o),
(165,-94,o),
(140,-83,cs),
(122,-75,o),
(113,-60,o),
(113,-38,cs)
);
}
);
width = 384;
}
);
unicode = 93;
},
{
glyphname = quotesinglbase;
lastChange = "2023-11-03 01:43:55 +0000";
layers = (
{
layerId = "49F060A0-2273-4F54-8B81-08E0B15B03EC";
shapes = (
{
closed = 1;
nodes = (
(10,19,o),
(18,-10,o),
(41,-19,cs),
(58,-26,o),
(61,-42,o),
(47,-57,cs),
(28,-78,o),
(22,-102,o),
(33,-118,cs),
(44,-134,o),
(68,-138,o),
(99,-118,cs),
(144,-88,o),
(164,-29,o),
(164,23,cs),
(164,87,o),
(139,119,o),
(90,119,cs),
(37,119,o),
(10,92,o),
(10,40,cs)
);
}
);
width = 195;
}
);
unicode = 8218;
},
{
glyphname = quotedblbase;
lastChange = "2023-11-03 01:44:33 +0000";
layers = (
{
layerId = "49F060A0-2273-4F54-8B81-08E0B15B03EC";
shapes = (
{
closed = 1;
nodes = (
(212,18,o),
(220,-11,o),
(243,-20,cs),
(260,-27,o),
(263,-43,o),
(249,-58,cs),
(230,-79,o),
(224,-103,o),
(235,-119,cs),
(246,-135,o),
(270,-139,o),
(301,-119,cs),
(346,-89,o),
(366,-30,o),
(366,22,cs),
(366,86,o),
(341,118,o),
(292,118,cs),
(239,118,o),
(212,91,o),
(212,39,cs)
);
},
{
closed = 1;
nodes = (
(10,18,o),
(18,-11,o),
(41,-20,cs),
(58,-27,o),
(61,-43,o),
(47,-58,cs),
(28,-79,o),
(22,-103,o),
(33,-119,cs),
(44,-135,o),
(68,-139,o),
(99,-119,cs),
(144,-89,o),
(164,-30,o),
(164,22,cs),
(164,86,o),
(139,118,o),
(90,118,cs),
(37,118,o),
(10,91,o),
(10,39,cs)
);
}
);
width = 397;
}
);
unicode = 8222;
},
{
color = 10;
glyphname = quotedblleft;
lastChange = "2023-11-06 10:44:22 +0000";
layers = (
{
anchors = (
{
name = _top;
pos = (204,664);
}
);
layerId = "49F060A0-2273-4F54-8B81-08E0B15B03EC";
shapes = (
{
closed = 1;
nodes = (
(185,663,o),
(177,692,o),
(154,701,cs),
(137,708,o),
(134,724,o),
(148,739,cs),
(167,760,o),
(173,784,o),
(162,800,cs),
(151,816,o),
(127,820,o),
(96,800,cs),
(51,770,o),
(31,711,o),
(31,659,cs),
(31,595,o),
(56,563,o),
(105,563,cs),
(158,563,o),
(185,590,o),
(185,642,cs)
);
},
{
closed = 1;
nodes = (
(387,663,o),
(379,692,o),
(356,701,cs),
(339,708,o),
(336,724,o),
(350,739,cs),
(369,760,o),
(375,784,o),
(364,800,cs),
(353,816,o),
(329,820,o),
(298,800,cs),
(253,770,o),
(233,711,o),
(233,659,cs),
(233,595,o),
(258,563,o),
(307,563,cs),
(360,563,o),
(387,590,o),
(387,642,cs)
);
}
);
width = 398;
}
);
unicode = 8220;
},
{
color = 10;
glyphname = quotedblright;
lastChange = "2023-11-03 01:38:12 +0000";
layers = (
{
layerId = "49F060A0-2273-4F54-8B81-08E0B15B03EC";
shapes = (
{
closed = 1;
nodes = (
(212,713,o),
(220,684,o),
(243,675,cs),
(260,668,o),
(263,652,o),
(249,637,cs),
(230,616,o),
(224,592,o),
(235,576,cs),
(246,560,o),
(270,556,o),
(301,576,cs),
(346,606,o),
(366,665,o),
(366,717,cs),
(366,781,o),
(341,813,o),
(292,813,cs),
(239,813,o),
(212,786,o),
(212,734,cs)
);
},
{
closed = 1;
nodes = (
(10,713,o),
(18,684,o),
(41,675,cs),
(58,668,o),
(61,652,o),
(47,637,cs),
(28,616,o),
(22,592,o),
(33,576,cs),
(44,560,o),
(68,556,o),
(99,576,cs),
(144,606,o),
(164,665,o),
(164,717,cs),
(164,781,o),
(139,813,o),
(90,813,cs),
(37,813,o),
(10,786,o),
(10,734,cs)
);
}
);
width = 397;
}
);
unicode = 8221;
},
{
color = 10;
glyphname = quoteleft;
lastChange = "2023-11-03 01:41:10 +0000";
layers = (
{
layerId = "49F060A0-2273-4F54-8B81-08E0B15B03EC";
shapes = (
{
closed = 1;
nodes = (
(185,663,o),
(177,692,o),
(154,701,cs),
(137,708,o),
(134,724,o),
(148,739,cs),
(167,760,o),
(173,784,o),
(162,800,cs),
(151,816,o),
(127,820,o),
(96,800,cs),
(51,770,o),
(31,711,o),
(31,659,cs),
(31,595,o),
(56,563,o),
(105,563,cs),
(158,563,o),
(185,590,o),
(185,642,cs)
);
}
);
width = 195;
}
);
unicode = 8216;
},
{
color = 10;
glyphname = quoteright;
lastChange = "2023-11-03 01:41:37 +0000";
layers = (
{
layerId = "49F060A0-2273-4F54-8B81-08E0B15B03EC";
shapes = (
{
closed = 1;
nodes = (
(10,713,o),
(18,684,o),
(41,675,cs),
(58,668,o),
(61,652,o),
(47,637,cs),
(28,616,o),
(22,592,o),
(33,576,cs),
(44,560,o),
(68,556,o),
(99,576,cs),
(144,606,o),
(164,665,o),
(164,717,cs),
(164,781,o),
(139,813,o),
(90,813,cs),
(37,813,o),
(10,786,o),
(10,734,cs)
);
}
);
width = 195;
}
);
unicode = 8217;
},
{
glyphname = guillemetleft;
lastChange = "2023-11-14 18:08:01 +0000";
layers = (
{
guides = (
{
pos = (261,67);
}
);
layerId = "49F060A0-2273-4F54-8B81-08E0B15B03EC";
shapes = (
{
closed = 1;
nodes = (
(202,171,o),
(127,229,o),
(127,282,cs),
(127,332,o),
(169,372,o),
(194,391,cs),
(234,421,o),
(260,434,o),
(273,457,cs),
(294,494,o),
(274,535,o),
(243,550,cs),
(204,569,o),
(158,544,o),
(102,476,cs),
(74,442,o),
(33,385,o),
(17,338,cs),
(10,317,o),
(8,298,o),
(14,275,cs),
(33,203,o),
(116,128,o),
(186,87,cs),
(222,66,o),
(239,63,o),
(252,74,cs),
(272,92,o),
(251,119,o),
(235,136,cs)
);
},
{
closed = 1;
nodes = (
(454,171,o),
(379,229,o),
(379,282,cs),
(379,332,o),
(421,372,o),
(446,391,cs),
(486,421,o),
(512,434,o),
(525,457,cs),
(546,494,o),
(526,535,o),
(495,550,cs),
(456,569,o),
(410,544,o),
(354,476,cs),
(326,442,o),
(285,385,o),
(269,338,cs),
(262,317,o),
(260,298,o),
(266,275,cs),
(285,203,o),
(368,128,o),
(438,87,cs),
(474,66,o),
(491,63,o),
(504,74,cs),
(524,92,o),
(503,119,o),
(487,136,cs)
);
}
);
width = 554;
}
);
unicode = 171;
},
{
glyphname = guillemetright;
lastChange = "2023-11-14 18:08:16 +0000";
layers = (
{
layerId = "49F060A0-2273-4F54-8B81-08E0B15B03EC";
shapes = (
{
closed = 1;
nodes = (
(303,119,o),
(282,92,o),
(302,74,cs),
(315,63,o),
(332,66,o),
(368,87,cs),
(438,128,o),
(521,203,o),
(540,275,cs),
(546,298,o),
(544,317,o),
(537,338,cs),
(521,385,o),
(480,442,o),
(452,476,cs),
(396,544,o),
(350,569,o),
(311,550,cs),
(280,535,o),
(260,494,o),
(281,457,cs),
(294,434,o),
(320,421,o),
(360,391,cs),
(385,372,o),
(428,332,o),
(428,282,cs),
(428,229,o),
(352,171,o),
(319,136,cs)
);
},
{
closed = 1;
nodes = (
(51,119,o),
(30,92,o),
(50,74,cs),
(63,63,o),
(80,66,o),
(116,87,cs),
(186,128,o),
(269,203,o),
(288,275,cs),
(294,298,o),
(292,317,o),
(285,338,cs),
(269,385,o),
(228,442,o),
(200,476,cs),
(144,544,o),
(98,569,o),
(59,550,cs),
(28,535,o),
(8,494,o),
(29,457,cs),
(42,434,o),
(68,421,o),
(108,391,cs),
(133,372,o),
(176,332,o),
(176,282,cs),
(176,229,o),
(100,171,o),
(67,136,cs)
);
}
);
width = 554;
}
);
unicode = 187;
},
{
glyphname = guilsinglleft;
lastChange = "2023-11-14 18:07:41 +0000";
layers = (
{
layerId = "49F060A0-2273-4F54-8B81-08E0B15B03EC";
shapes = (
{
closed = 1;
nodes = (
(202,171,o),
(127,229,o),
(127,282,cs),
(127,332,o),
(169,372,o),
(194,391,cs),
(234,421,o),
(260,434,o),
(273,457,cs),
(294,494,o),
(274,535,o),
(243,550,cs),
(204,569,o),
(158,544,o),
(102,476,cs),
(74,442,o),
(33,385,o),
(17,338,cs),
(10,317,o),
(8,298,o),
(14,275,cs),
(33,203,o),
(116,128,o),
(186,87,cs),
(222,66,o),
(239,63,o),
(252,74,cs),
(272,92,o),
(251,119,o),
(235,136,cs)
);
}
);
width = 302;
}
);
unicode = 8249;
},
{
glyphname = guilsinglright;
lastChange = "2023-11-14 18:09:45 +0000";
layers = (
{
layerId = "49F060A0-2273-4F54-8B81-08E0B15B03EC";
shapes = (
{
closed = 1;
nodes = (
(41,119,o),
(20,92,o),
(40,74,cs),
(53,63,o),
(70,66,o),
(106,87,cs),
(176,128,o),
(259,203,o),
(278,275,cs),
(284,298,o),
(282,317,o),
(275,338,cs),
(259,385,o),
(218,442,o),
(190,476,cs),
(134,544,o),
(88,569,o),
(49,550,cs),
(18,535,o),
(-2,494,o),
(19,457,cs),
(32,434,o),
(58,421,o),
(98,391,cs),
(123,372,o),
(166,332,o),
(166,282,cs),
(166,229,o),
(90,171,o),
(57,136,cs)
);
}
);
width = 302;
}
);
unicode = 8250;
},
{
color = 10;
glyphname = quotedbl;
lastChange = "2023-11-14 11:18:40 +0000";
layers = (
{
anchors = (
{
name = _top;
pos = (172,604);
}
);
layerId = "49F060A0-2273-4F54-8B81-08E0B15B03EC";
shapes = (
{
closed = 1;
nodes = (
(130,812,o),
(158,785,o),
(158,723,cs),
(158,669,o),
(147,624,o),
(141,600,cs),
(126,543,o),
(113,524,o),
(91,524,cs),
(69,524,o),
(56,543,o),
(41,600,cs),
(35,624,o),
(24,669,o),
(24,723,cs),
(24,785,o),
(52,812,o),
(91,812,cs)
);
},
{
closed = 1;
nodes = (
(292,812,o),
(320,785,o),
(320,723,cs),
(320,669,o),
(309,624,o),
(303,600,cs),
(288,543,o),
(275,524,o),
(253,524,cs),
(231,524,o),
(218,543,o),
(203,600,cs),
(197,624,o),
(186,669,o),
(186,723,cs),
(186,785,o),
(214,812,o),
(253,812,cs)
);
}
);
width = 344;
}
);
unicode = 34;
},
{
color = 10;
glyphname = quotesingle;
lastChange = "2023-11-14 11:18:23 +0000";
layers = (
{
layerId = "49F060A0-2273-4F54-8B81-08E0B15B03EC";
shapes = (
{
closed = 1;
nodes = (
(130,812,o),
(158,785,o),
(158,723,cs),
(158,669,o),
(147,624,o),
(141,600,cs),
(126,543,o),
(113,524,o),
(91,524,cs),
(69,524,o),
(56,543,o),
(41,600,cs),
(35,624,o),
(24,669,o),
(24,723,cs),
(24,785,o),
(52,812,o),
(91,812,cs)
);
}
);
width = 180;
}
);
unicode = 39;
},
{
color = 10;
glyphname = at;
lastChange = "2023-11-14 09:01:28 +0000";
layers = (
{
layerId = "49F060A0-2273-4F54-8B81-08E0B15B03EC";
shapes = (
{
closed = 1;
nodes = (
(472,94,o),
(457,123,o),
(455,142,cs),
(452,168,o),
(471,176,o),
(491,176,cs),
(516,176,o),
(525,164,o),
(527,151,cs),
(531,128,ls),
(532,123,o),
(532,120,o),
(529,114,cs),
(521,98,o),
(510,94,o),
(500,94,cs)
);
},
{
closed = 1;
nodes = (
(410,-55,o),
(350,-38,o),
(300,2,cs),
(257,36,o),
(197,98,o),
(197,225,cs),
(197,330,o),
(197,447,o),
(385,447,cs),
(486,447,o),
(527,413,o),
(527,346,cs),
(527,328,o),
(524,325,o),
(516,325,cs),
(507,325,o),
(504,329,o),
(500,334,cs),
(480,357,o),
(449,373,o),
(409,373,cs),
(332,373,o),
(284,314,o),
(284,227,cs),
(284,169,o),
(305,105,o),
(343,59,cs),
(372,24,o),
(409,1,o),
(447,0,cs),
(478,-1,o),
(506,13,o),
(524,37,cs),
(528,42,o),
(532,45,o),
(539,45,cs),
(545,45,o),
(550,43,o),
(552,37,cs),
(560,13,o),
(572,-1,o),
(593,-1,cs),
(626,-1,o),
(654,31,o),
(670,77,cs),
(685,121,o),
(705,224,o),
(711,282,cs),
(715,319,o),
(720,400,o),
(720,445,cs),
(720,579,o),
(675,686,o),
(394,686,cs),
(251,686,o),
(115,658,o),
(58,537,cs),
(25,467,o),
(8,343,o),
(20,240,cs),
(43,42,o),
(174,-124,o),
(438,-124,cs),
(460,-124,o),
(506,-127,o),
(533,-114,cs),
(547,-108,o),
(556,-98,o),
(556,-82,cs),
(556,-65,o),
(538,-56,o),
(517,-56,cs),
(480,-56,o),
(494,-55,o),
(468,-55,cs)
);
}
);
width = 746;
}
);
unicode = 64;
},
{
color = 10;
glyphname = ampersand;
lastChange = "2023-11-14 07:08:18 +0000";
layers = (
{
layerId = "49F060A0-2273-4F54-8B81-08E0B15B03EC";
shapes = (
{
closed = 1;
nodes = (
(-417,367,o),
(-455,342,o),
(-521,342,cs),
(-591,342,o),
(-628,369,o),
(-628,411,cs),
(-628,455,o),
(-585,478,o),
(-517,478,cs),
(-453,478,o),
(-417,451,o),
(-417,410,cs)
);
},
{
closed = 1;
nodes = (
(-884,412,o),
(-804,328,o),
(-664,288,c),
(-725,288,o),
(-775,230,o),
(-775,158,cs),
(-775,58,o),
(-681,1,o),
(-522,1,cs),
(-479,1,o),
(-440,7,o),
(-404,15,c),
(-381,-15,o),
(-344,-43,o),
(-303,-43,cs),
(-280,-43,o),
(-242,-34,o),
(-242,-2,cs),
(-242,14,o),
(-253,21,o),
(-266,28,c),
(-206,48,o),
(-170,81,o),
(-155,134,cs),
(-134,208,o),
(-164,266,o),
(-222,282,cs),
(-262,293,o),
(-289,277,o),
(-298,240,cs),
(-301,228,o),
(-304,124,o),
(-338,124,c),
(-312,207,o),
(-338,268,o),
(-380,288,c),
(-240,328,o),
(-160,412,o),
(-160,520,cs),
(-160,698,o),
(-292,801,o),
(-522,801,cs),
(-752,801,o),
(-884,698,o),
(-884,520,cs)
);
},
{
closed = 1;
nodes = (
(-613,150,o),
(-580,171,o),
(-522,171,cs),
(-464,171,o),
(-431,150,o),
(-431,114,cs),
(-431,77,o),
(-464,55,o),
(-522,55,cs),
(-580,55,o),
(-613,77,o),
(-613,114,cs)
);
},
{
closed = 1;
nodes = (
(295,90,o),
(268,97,o),
(268,138,c),
(268,177,o),
(295,184,o),
(348,184,cs),
(401,184,o),
(428,177,o),
(428,138,c),
(428,97,o),
(401,90,o),
(348,90,cs)
);
},
{
closed = 1;
nodes = (
(284,322,o),
(252,331,o),
(252,379,c),
(252,427,o),
(284,436,o),
(348,436,cs),
(412,436,o),
(445,427,o),
(445,379,c),
(445,331,o),
(412,322,o),
(348,322,cs)
);
},
{
closed = 0;
nodes = (
(576,139,l),
(576,194,o),
(560,236,o),
(526,250,cs),
(518,253,o),
(517,260,o),
(526,260,cs),
(623,260,o),
(621,442,o),
(621,520,cs),
(621,649,o),
(592,789,o),
(351,789,cs),
(110,789,o),
(81,649,o),
(81,520,cs),
(81,442,o),
(79,260,o),
(176,260,cs),
(185,260,o),
(184,253,o),
(176,250,cs),
(142,236,o),
(126,194,o),
(126,139,cs),
(126,100,o),
(134,44,o),
(177,17,cs),
(221,-11,o),
(305,-9,o),
(351,-9,cs),
(397,-9,o),
(481,-11,o),
(525,17,cs),
(568,44,o),
(576,100,o),
(576,139,c)
);
},
{
closed = 0;
nodes = (
(445,379,l)
);
}
);
width = 777;
}
);
unicode = 38;
},
{
glyphname = paragraph;
lastChange = "2023-11-14 17:09:22 +0000";
layers = (
{
layerId = "49F060A0-2273-4F54-8B81-08E0B15B03EC";
shapes = (
{
closed = 1;
nodes = (
(335,715,l),
(298,742,o),
(257,756,o),
(204,756,cs),
(77,756,o),
(33,672,o),
(20,596,cs),
(11,543,o),
(13,461,o),
(48,391,cs),
(87,317,o),
(148,289,o),
(204,289,cs),
(258,289,o),
(298,315,o),
(335,364,c)
);
},
{
closed = 1;
nodes = (
(382,777,o),
(370,781,o),
(356,781,cs),
(280,781,o),
(258,662,o),
(258,493,cs),
(258,369,o),
(272,155,o),
(307,42,cs),
(321,-4,o),
(337,-32,o),
(357,-32,cs),
(371,-32,o),
(385,-12,o),
(397,21,cs),
(418,77,o),
(418,124,o),
(418,194,cs),
(418,625,ls),
(418,704,o),
(416,751,o),
(392,769,cs)
);
},
{
closed = 1;
nodes = (
(441,194,ls),
(441,124,o),
(441,72,o),
(469,5,cs),
(480,-18,o),
(492,-32,o),
(504,-32,cs),
(521,-32,o),
(536,-9,o),
(549,28,cs),
(584,129,o),
(601,340,o),
(601,493,cs),
(601,662,o),
(580,781,o),
(505,781,cs),
(491,781,o),
(479,777,o),
(468,769,cs),
(444,751,o),
(441,704,o),
(441,625,cs)
);
},
{
closed = 1;
nodes = (
(202,413,o),
(208,421,o),
(237,426,cs),
(251,428,o),
(261,428,o),
(277,428,c),
(282,400,o),
(287,374,o),
(292,351,c),
(280,330,o),
(254,326,o),
(243,326,cs),
(211,326,o),
(202,364,o),
(202,390,cs)
);
},
{
closed = 1;
nodes = (
(791,778,o),
(709,682,o),
(709,525,cs),
(709,435,o),
(747,329,o),
(808,253,cs),
(855,195,o),
(913,140,o),
(989,140,cs),
(1015,140,o),
(1040,149,o),
(1061,166,cs),
(1077,179,o),
(1087,187,o),
(1097,186,cs),
(1108,185,o),
(1116,178,o),
(1119,167,cs),
(1128,130,o),
(1136,96,o),
(1145,67,cs),
(1163,4,o),
(1184,-34,o),
(1232,-34,cs),
(1279,-34,o),
(1295,2,o),
(1314,65,cs),
(1347,182,o),
(1379,377,o),
(1379,565,cs),
(1379,705,o),
(1325,782,o),
(1235,782,cs),
(1184,782,o),
(1134,759,o),
(1106,709,cs),
(1099,697,o),
(1096,691,o),
(1085,691,cs),
(1077,691,o),
(1071,697,o),
(1063,710,cs),
(1056,721,o),
(1039,740,o),
(1018,752,cs),
(991,768,o),
(956,780,o),
(921,780,cs)
);
},
{
closed = 1;
nodes = (
(987,306,o),
(962,356,o),
(963,389,cs),
(963,433,o),
(992,442,o),
(1029,439,cs),
(1068,438,o),
(1083,416,o),
(1084,395,cs),
(1086,354,ls),
(1086,347,o),
(1087,340,o),
(1083,332,cs),
(1069,305,o),
(1046,301,o),
(1025,303,cs)
);
},
{
closed = 1;
nodes = (
(1212,-130,l),
(1255,-130,l),
(1255,848,l),
(1212,848,l)
);
}
);
width = 632;
}
);
unicode = 182;
},
